<svg width="35" height="35" viewBox="0 0 35 35" fill="none" xmlns="http://www.w3.org/2000/svg">
<g id="System" clip-path="url(#clip0_1105_1397)">
<path id="Vector" d="M6.05615 10.3672C6.05615 9.62492 6.35103 8.91302 6.87592 8.38813C7.40081 7.86324 8.11272 7.56836 8.85502 7.56836H25.6482C26.3906 7.56836 27.1025 7.86324 27.6273 8.38813C28.1522 8.91302 28.4471 9.62492 28.4471 10.3672V27.1605C28.4471 27.9028 28.1522 28.6147 27.6273 29.1396C27.1025 29.6644 26.3906 29.9593 25.6482 29.9593H8.85502C8.11272 29.9593 7.40081 29.6644 6.87592 29.1396C6.35103 28.6147 6.05615 27.9028 6.05615 27.1605V10.3672Z" stroke="#A3A3A3" stroke-width="1.79927" stroke-linecap="round" stroke-linejoin="round"/>
<path id="Vector_2" d="M22.8491 4.76953V10.3673" stroke="#A3A3A3" stroke-width="1.79927" stroke-linecap="round" stroke-linejoin="round"/>
<path id="Vector_3" d="M11.6543 4.76953V10.3673" stroke="#A3A3A3" stroke-width="1.79927" stroke-linecap="round" stroke-linejoin="round"/>
<path id="Vector_4" d="M6.05615 15.9651H28.4471" stroke="#A3A3A3" stroke-width="1.79927" stroke-linecap="round" stroke-linejoin="round"/>
<path id="Vector_5" d="M11.6543 21.5627H14.4532V24.3616H11.6543V21.5627Z" stroke="#A3A3A3" stroke-width="1.79927" stroke-linecap="round" stroke-linejoin="round"/>
</g>
<defs>
<clipPath id="clip0_1105_1397">
<rect width="33.5864" height="33.5864" fill="white" transform="translate(0.458496 0.571289)"/>
</clipPath>
</defs>
</svg>
