<svg width="35" height="35" viewBox="0 0 35 35" fill="none" xmlns="http://www.w3.org/2000/svg">
<g id="Communication" clip-path="url(#clip0_1105_1412)">
<path id="Vector" d="M12.1758 13.1663H23.3713" stroke="#A3A3A3" stroke-width="1.79927" stroke-linecap="round" stroke-linejoin="round"/>
<path id="Vector_2" d="M12.1758 18.7642H20.5724" stroke="#A3A3A3" stroke-width="1.79927" stroke-linecap="round" stroke-linejoin="round"/>
<path id="Vector_3" d="M13.5748 25.7613H9.37653C8.26307 25.7613 7.19521 25.319 6.40788 24.5316C5.62054 23.7443 5.17822 22.6764 5.17822 21.563V10.3675C5.17822 9.25404 5.62054 8.18618 6.40788 7.39885C7.19521 6.61151 8.26307 6.16919 9.37653 6.16919H26.1698C27.2832 6.16919 28.3511 6.61151 29.1384 7.39885C29.9257 8.18618 30.3681 9.25404 30.3681 10.3675V21.563C30.3681 22.6764 29.9257 23.7443 29.1384 24.5316C28.3511 25.319 27.2832 25.7613 26.1698 25.7613H21.9714L17.7731 29.9596L13.5748 25.7613Z" stroke="#A3A3A3" stroke-width="1.79927" stroke-linecap="round" stroke-linejoin="round"/>
</g>
<defs>
<clipPath id="clip0_1105_1412">
<rect width="33.5864" height="33.5864" fill="white" transform="translate(0.97998 0.571289)"/>
</clipPath>
</defs>
</svg>
