<svg width="261" height="210" viewBox="0 0 261 210" fill="none" xmlns="http://www.w3.org/2000/svg">
<path d="M111.33 132.578L110.851 135.511L110.34 138.663L105.651 167.407H97.9871L102.671 138.663L103.187 135.511L103.666 132.578H111.33Z" fill="#EBEBEB"/>
<path d="M110.221 132.578C109.814 135.49 109.382 138.397 108.944 141.299L107.589 150.016L106.172 158.717L105.443 163.062L104.682 167.407L105.307 163.041L105.959 158.68L107.329 149.969L108.746 141.268C109.21 138.366 109.7 135.469 110.221 132.578Z" fill="#C7C7C7"/>
<path d="M110.851 135.511L110.34 138.663H102.671L103.187 135.511H110.851Z" fill="#C7C7C7"/>
<path d="M149.177 132.578L149.656 135.511L150.167 138.663L154.856 167.407H162.52L157.836 138.663L157.32 135.511L156.841 132.578H149.177Z" fill="#EBEBEB"/>
<path d="M150.313 132.578C150.714 135.49 151.152 138.397 151.589 141.299L152.939 150.016L154.356 158.717L155.09 163.062L155.851 167.407L155.226 163.041L154.575 158.68L153.22 149.969L151.803 141.268C151.318 138.366 150.829 135.469 150.313 132.578Z" fill="#C7C7C7"/>
<path d="M149.656 135.511H157.32L157.836 138.663H150.167L149.656 135.511Z" fill="#C7C7C7"/>
<path d="M111.049 124.491H104.974L105.73 118.822H110.294L111.049 124.491Z" fill="#C7C7C7"/>
<path d="M113.593 115.768C114.136 112.688 112.08 109.75 109 109.206C105.92 108.663 102.982 110.719 102.438 113.799C101.895 116.879 103.951 119.817 107.031 120.361C110.111 120.905 113.049 118.848 113.593 115.768Z" fill="#DBDBDB"/>
<path d="M112.205 115.769C112.753 113.454 111.321 111.132 109.005 110.583C106.69 110.034 104.368 111.467 103.819 113.782C103.27 116.098 104.703 118.42 107.018 118.969C109.334 119.517 111.656 118.085 112.205 115.769Z" fill="white"/>
<path d="M111.612 114.525C111.572 114.011 111.426 113.512 111.184 113.057C110.942 112.603 110.609 112.203 110.205 111.883C109.799 111.567 109.332 111.338 108.834 111.208C108.336 111.078 107.817 111.051 107.308 111.128C106.803 111.207 106.32 111.392 105.891 111.67C105.462 111.949 105.097 112.314 104.818 112.743C104.524 113.201 104.331 113.718 104.253 114.257C104.175 114.796 104.213 115.346 104.365 115.869C104.623 116.773 105.228 117.538 106.047 118C106.847 118.454 107.785 118.598 108.684 118.406C109.553 118.22 110.333 117.742 110.893 117.052C111.446 116.369 111.766 115.527 111.805 114.65C111.805 114.613 111.805 114.577 111.768 114.577C111.732 114.577 111.732 114.608 111.732 114.65C111.712 115.005 111.644 115.355 111.529 115.692C111.409 116.022 111.249 116.337 111.054 116.63C110.849 116.913 110.611 117.172 110.346 117.401C110.073 117.628 109.774 117.823 109.455 117.979C108.996 118.195 108.498 118.313 107.991 118.326C107.484 118.338 106.98 118.245 106.511 118.052C106.041 117.853 105.62 117.554 105.276 117.176C104.932 116.798 104.675 116.351 104.521 115.864C104.363 115.363 104.314 114.835 104.379 114.314C104.444 113.794 104.62 113.293 104.896 112.847C105.163 112.424 105.517 112.062 105.935 111.787C106.352 111.512 106.824 111.33 107.319 111.253C107.987 111.147 108.671 111.223 109.299 111.473C109.927 111.723 110.476 112.139 110.888 112.675C111.086 112.952 111.247 113.253 111.367 113.571C111.483 113.894 111.56 114.23 111.596 114.572C111.596 114.572 111.596 114.572 111.596 114.572C111.596 114.572 111.612 114.54 111.612 114.525Z" fill="#EBEBEB"/>
<path d="M111.106 114.53C111.069 114.09 110.942 113.663 110.732 113.275C110.522 112.887 110.235 112.546 109.887 112.274C109.539 112.006 109.14 111.81 108.716 111.697C108.291 111.585 107.848 111.557 107.412 111.617C106.977 111.682 106.56 111.838 106.19 112.075C105.819 112.312 105.502 112.625 105.261 112.993C105.004 113.385 104.833 113.828 104.762 114.292C104.69 114.756 104.718 115.229 104.844 115.681C104.951 116.073 105.136 116.439 105.386 116.758C105.637 117.077 105.948 117.344 106.303 117.541C106.998 117.939 107.818 118.062 108.6 117.885C109.355 117.723 110.03 117.305 110.512 116.702C110.99 116.11 111.266 115.379 111.299 114.618C111.299 114.587 111.299 114.556 111.268 114.556C111.237 114.556 111.226 114.582 111.226 114.618C111.184 115.229 110.979 115.817 110.632 116.322C110.286 116.827 109.811 117.23 109.257 117.489C108.862 117.681 108.432 117.787 107.993 117.799C107.555 117.812 107.119 117.731 106.714 117.562C106.307 117.39 105.942 117.131 105.645 116.804C105.348 116.476 105.126 116.088 104.995 115.666C104.86 115.233 104.82 114.775 104.88 114.325C104.939 113.875 105.096 113.444 105.339 113.061C105.568 112.699 105.873 112.392 106.233 112.16C106.593 111.928 106.999 111.776 107.423 111.716C107.99 111.632 108.569 111.7 109.102 111.912C109.635 112.124 110.101 112.474 110.455 112.925C110.625 113.16 110.765 113.416 110.872 113.686C110.97 113.963 111.038 114.249 111.075 114.54L111.106 114.53Z" fill="#EBEBEB"/>
<path d="M110.601 114.535C110.564 114.169 110.452 113.814 110.273 113.493C110.094 113.171 109.851 112.89 109.559 112.665C108.973 112.219 108.237 112.021 107.506 112.113C107.141 112.161 106.79 112.286 106.476 112.48C106.163 112.674 105.894 112.932 105.688 113.238C105.465 113.568 105.316 113.942 105.25 114.335C105.184 114.728 105.204 115.13 105.308 115.515C105.395 115.85 105.55 116.164 105.762 116.438C105.974 116.712 106.24 116.94 106.543 117.109C107.14 117.443 107.84 117.543 108.507 117.391C109.15 117.241 109.721 116.873 110.122 116.348C110.519 115.845 110.752 115.232 110.789 114.593C110.789 114.561 110.789 114.535 110.752 114.535C110.746 114.536 110.74 114.538 110.735 114.541C110.729 114.544 110.724 114.548 110.721 114.553C110.717 114.558 110.714 114.563 110.712 114.569C110.71 114.575 110.71 114.581 110.711 114.587C110.67 115.1 110.496 115.593 110.205 116.018C109.914 116.442 109.517 116.782 109.054 117.005C108.722 117.169 108.359 117.26 107.988 117.273C107.618 117.286 107.25 117.219 106.907 117.078C106.561 116.935 106.251 116.717 106 116.439C105.748 116.162 105.562 115.832 105.454 115.473C105.346 115.108 105.318 114.724 105.372 114.348C105.426 113.971 105.56 113.61 105.766 113.29C105.963 112.992 106.222 112.74 106.525 112.551C106.828 112.362 107.168 112.241 107.522 112.196C107.99 112.141 108.465 112.196 108.908 112.358C109.354 112.527 109.745 112.815 110.039 113.191C110.184 113.383 110.303 113.593 110.393 113.816C110.48 114.045 110.542 114.283 110.575 114.525V114.525C110.575 114.525 110.606 114.541 110.601 114.535Z" fill="#EBEBEB"/>
<path d="M110.101 114.54C110.024 113.953 109.719 113.419 109.252 113.055C108.784 112.705 108.202 112.545 107.621 112.607C107.326 112.642 107.041 112.738 106.785 112.89C106.529 113.041 106.308 113.245 106.136 113.488C105.95 113.755 105.822 114.06 105.763 114.381C105.704 114.701 105.714 115.031 105.792 115.348C105.861 115.626 105.987 115.888 106.162 116.116C106.337 116.343 106.557 116.532 106.808 116.671C107.303 116.945 107.883 117.025 108.434 116.895C108.958 116.768 109.423 116.467 109.752 116.041C110.066 115.624 110.247 115.123 110.273 114.603C110.274 114.597 110.273 114.592 110.272 114.586C110.271 114.581 110.268 114.576 110.265 114.572C110.261 114.567 110.257 114.564 110.252 114.561C110.247 114.558 110.242 114.556 110.237 114.556C110.237 114.556 110.2 114.556 110.195 114.598C110.164 115.01 110.028 115.408 109.8 115.754C109.572 116.099 109.26 116.381 108.892 116.572C108.624 116.712 108.329 116.792 108.026 116.807C107.724 116.821 107.422 116.77 107.142 116.656C106.858 116.538 106.604 116.359 106.399 116.129C106.194 115.9 106.044 115.628 105.959 115.332C105.876 115.036 105.858 114.725 105.906 114.421C105.955 114.117 106.069 113.827 106.24 113.571C106.402 113.336 106.612 113.138 106.856 112.992C107.101 112.845 107.374 112.753 107.658 112.722C108.028 112.688 108.402 112.736 108.752 112.863C109.104 112.993 109.415 113.214 109.653 113.503C109.768 113.657 109.864 113.823 109.94 113.998C110.014 114.181 110.068 114.372 110.101 114.566V114.566V114.54Z" fill="#EBEBEB"/>
<path d="M155.403 124.491H149.323L150.078 118.822H154.648L155.403 124.491Z" fill="#C7C7C7"/>
<path d="M158.056 115.273C158.525 112.177 156.395 109.286 153.299 108.817C150.202 108.348 147.312 110.478 146.842 113.574C146.373 116.671 148.503 119.561 151.6 120.031C154.696 120.5 157.587 118.37 158.056 115.273Z" fill="#DBDBDB"/>
<path d="M156.619 115.423C156.977 113.071 155.361 110.873 153.009 110.514C150.656 110.155 148.458 111.772 148.099 114.124C147.741 116.477 149.357 118.675 151.709 119.033C154.062 119.392 156.26 117.776 156.619 115.423Z" fill="white"/>
<path d="M155.966 114.524C155.925 114.011 155.779 113.512 155.537 113.057C155.295 112.603 154.962 112.203 154.559 111.883C154.152 111.567 153.686 111.338 153.188 111.208C152.69 111.078 152.171 111.051 151.662 111.127C151.157 111.207 150.674 111.392 150.245 111.67C149.816 111.948 149.45 112.314 149.172 112.742C148.875 113.2 148.681 113.716 148.603 114.256C148.525 114.796 148.564 115.346 148.718 115.869C148.975 116.774 149.58 117.54 150.401 118C151.2 118.454 152.139 118.598 153.038 118.406C153.907 118.22 154.687 117.742 155.247 117.051C155.8 116.369 156.119 115.527 156.158 114.649C156.158 114.613 156.158 114.576 156.122 114.576C156.086 114.576 156.086 114.608 156.08 114.649C156.06 115.004 155.993 115.354 155.882 115.691C155.763 116.023 155.602 116.338 155.403 116.629C154.996 117.21 154.444 117.675 153.804 117.979C153.346 118.196 152.848 118.315 152.342 118.328C151.836 118.34 151.333 118.246 150.865 118.052C150.394 117.853 149.972 117.554 149.627 117.176C149.283 116.799 149.024 116.351 148.87 115.863C148.712 115.363 148.665 114.834 148.73 114.313C148.796 113.793 148.973 113.293 149.25 112.847C149.516 112.423 149.87 112.062 150.288 111.787C150.706 111.512 151.178 111.33 151.673 111.252C152.34 111.146 153.024 111.222 153.653 111.473C154.281 111.723 154.83 112.138 155.242 112.675C155.438 112.953 155.599 113.254 155.721 113.571C155.835 113.894 155.91 114.23 155.945 114.571C155.945 114.571 155.945 114.571 155.945 114.571C155.945 114.571 155.966 114.54 155.966 114.524Z" fill="#EBEBEB"/>
<path d="M155.46 114.53C155.421 114.091 155.292 113.664 155.083 113.277C154.873 112.889 154.587 112.548 154.241 112.274C153.893 112.006 153.495 111.81 153.07 111.697C152.645 111.585 152.202 111.557 151.766 111.617C151.33 111.682 150.913 111.837 150.541 112.074C150.169 112.311 149.852 112.624 149.609 112.993C149.352 113.385 149.182 113.828 149.11 114.292C149.039 114.756 149.067 115.229 149.193 115.681C149.3 116.073 149.485 116.439 149.735 116.758C149.986 117.077 150.297 117.344 150.651 117.541C151.348 117.938 152.167 118.061 152.949 117.885C153.705 117.724 154.383 117.306 154.866 116.702C155.342 116.108 155.618 115.379 155.653 114.618C155.653 114.587 155.653 114.556 155.617 114.556C155.58 114.556 155.58 114.582 155.575 114.618C155.534 115.229 155.329 115.817 154.984 116.321C154.639 116.826 154.165 117.229 153.611 117.489C153.216 117.681 152.786 117.787 152.347 117.799C151.909 117.812 151.473 117.731 151.068 117.562C150.66 117.391 150.294 117.132 149.996 116.805C149.698 116.477 149.476 116.088 149.344 115.666C149.21 115.232 149.172 114.775 149.231 114.326C149.291 113.876 149.446 113.445 149.688 113.061C149.918 112.7 150.224 112.393 150.583 112.161C150.943 111.929 151.348 111.778 151.772 111.716C152.34 111.63 152.922 111.696 153.457 111.908C153.992 112.121 154.46 112.472 154.814 112.925C154.986 113.159 155.127 113.415 155.231 113.686C155.334 113.961 155.402 114.248 155.434 114.54C155.439 114.54 155.444 114.539 155.448 114.538C155.453 114.536 155.457 114.533 155.46 114.53V114.53Z" fill="#EBEBEB"/>
<path d="M154.955 114.535C154.915 114.17 154.802 113.816 154.623 113.495C154.444 113.173 154.203 112.891 153.913 112.665C153.327 112.221 152.59 112.022 151.86 112.113C151.496 112.162 151.147 112.288 150.836 112.482C150.524 112.676 150.257 112.934 150.052 113.238C149.83 113.568 149.68 113.942 149.613 114.335C149.547 114.727 149.565 115.13 149.667 115.515C149.757 115.85 149.913 116.163 150.126 116.437C150.339 116.711 150.604 116.939 150.907 117.109C151.502 117.443 152.2 117.543 152.866 117.391C153.51 117.241 154.083 116.873 154.486 116.349C154.884 115.847 155.115 115.233 155.148 114.593C155.148 114.561 155.148 114.535 155.116 114.535C155.11 114.536 155.104 114.538 155.099 114.541C155.093 114.544 155.089 114.548 155.085 114.553C155.081 114.558 155.078 114.563 155.076 114.569C155.074 114.575 155.074 114.581 155.075 114.588C155.033 115.1 154.859 115.593 154.568 116.017C154.277 116.441 153.881 116.781 153.418 117.005C153.086 117.169 152.723 117.26 152.352 117.273C151.982 117.286 151.614 117.219 151.271 117.078C150.925 116.935 150.615 116.717 150.364 116.439C150.112 116.162 149.926 115.832 149.818 115.473C149.71 115.108 149.682 114.724 149.736 114.348C149.79 113.971 149.924 113.61 150.13 113.29C150.325 112.992 150.583 112.739 150.885 112.551C151.187 112.362 151.527 112.241 151.881 112.196C152.351 112.14 152.827 112.196 153.272 112.358C153.718 112.527 154.109 112.815 154.403 113.191C154.548 113.383 154.667 113.593 154.757 113.816C154.84 114.046 154.901 114.284 154.939 114.525V114.525C154.943 114.53 154.949 114.534 154.955 114.535V114.535Z" fill="#EBEBEB"/>
<path d="M154.45 114.54C154.414 114.249 154.321 113.968 154.176 113.713C154.031 113.459 153.837 113.235 153.606 113.055C153.138 112.706 152.555 112.546 151.975 112.607C151.679 112.639 151.393 112.734 151.137 112.886C150.881 113.038 150.66 113.243 150.49 113.488C150.303 113.755 150.176 114.06 150.117 114.38C150.057 114.701 150.067 115.031 150.146 115.348C150.215 115.626 150.341 115.888 150.516 116.115C150.691 116.343 150.911 116.532 151.162 116.671C151.655 116.945 152.233 117.025 152.782 116.895C153.307 116.767 153.773 116.466 154.106 116.041C154.419 115.624 154.601 115.123 154.627 114.603C154.628 114.597 154.629 114.592 154.628 114.587C154.627 114.581 154.625 114.576 154.622 114.572C154.619 114.567 154.615 114.563 154.611 114.561C154.606 114.558 154.601 114.556 154.596 114.556C154.584 114.556 154.574 114.56 154.566 114.568C154.558 114.576 154.554 114.586 154.554 114.597C154.516 115.012 154.372 115.41 154.136 115.753C153.899 116.097 153.579 116.373 153.204 116.556C152.937 116.696 152.642 116.775 152.341 116.79C152.04 116.804 151.739 116.753 151.459 116.64C151.175 116.523 150.921 116.343 150.716 116.114C150.511 115.884 150.361 115.612 150.276 115.316C150.193 115.02 150.175 114.709 150.223 114.405C150.272 114.101 150.386 113.811 150.558 113.555C150.719 113.32 150.929 113.122 151.173 112.975C151.418 112.829 151.691 112.737 151.975 112.706C152.344 112.673 152.715 112.721 153.064 112.847C153.416 112.975 153.728 113.197 153.965 113.488C154.083 113.639 154.181 113.806 154.257 113.983C154.331 114.166 154.385 114.356 154.418 114.55V114.55C154.418 114.55 154.455 114.545 154.45 114.54Z" fill="#EBEBEB"/>
<path d="M168.444 121.605H92.0581V136.215H168.444V121.605Z" fill="#DBDBDB"/>
<path d="M107.761 121.605L102.218 136.215H92.3499L97.8934 121.605H107.761Z" fill="#EBEBEB"/>
<path d="M127.982 121.605L122.439 136.215H112.571L118.114 121.605H127.982Z" fill="#EBEBEB"/>
<path d="M148.197 121.605L142.659 136.215H132.791L138.335 121.605H148.197Z" fill="#EBEBEB"/>
<path d="M168.423 121.605L162.879 136.215H153.011L158.555 121.605H168.423Z" fill="#EBEBEB"/>
<path d="M166.902 149.724H93.6057V158.972H166.902V149.724Z" fill="#DBDBDB"/>
<path d="M108.668 149.724L103.354 158.967H93.887L99.2065 149.724H108.668Z" fill="#EBEBEB"/>
<path d="M128.076 149.724L122.756 158.967H113.284L118.604 149.724H128.076Z" fill="#EBEBEB"/>
<path d="M147.473 149.724L142.154 158.967H132.687L138.007 149.724H147.473Z" fill="#EBEBEB"/>
<path d="M166.876 149.724L161.556 158.967H152.089L157.409 149.724H166.876Z" fill="#EBEBEB"/>
<path d="M18.7095 167.537L46.3337 167.412L73.9631 167.365L129.211 167.277L184.465 167.365L212.089 167.412L239.713 167.537L212.089 167.662L184.465 167.709L129.211 167.798L73.9631 167.709L46.3337 167.662L18.7095 167.537Z" fill="#263238"/>
<path d="M130.254 208.598C190.707 208.598 239.714 202.886 239.714 195.839C239.714 188.792 190.707 183.079 130.254 183.079C69.8006 183.079 20.7937 188.792 20.7937 195.839C20.7937 202.886 69.8006 208.598 130.254 208.598Z" fill="#EBEBEB"/>
<path d="M144.566 198.22C145.649 198.585 176.671 198.694 177.859 197.949C178.312 197.668 178.588 193.151 178.77 187.685C178.812 186.502 178.843 185.283 178.875 184.038L181.386 167.496L160.65 167.36L158.69 183.913L158.769 187.56C158.769 187.56 146.874 192.833 145.66 193.786C144.446 194.74 143.487 197.85 144.566 198.22Z" fill="#EB9481"/>
<path d="M144.566 198.219C145.649 198.584 176.671 198.693 177.859 197.948C178.406 197.605 178.708 191.008 178.875 184.043L158.69 183.917L158.769 187.565C158.769 187.565 146.874 192.837 145.66 193.791C144.446 194.744 143.487 197.849 144.566 198.219Z" fill="white"/>
<path d="M144.566 198.22C145.649 198.585 176.671 198.694 177.859 197.949C178.312 197.668 178.588 193.15 178.77 187.685L158.769 187.555C158.769 187.555 146.874 192.827 145.66 193.781C144.446 194.734 143.487 197.85 144.566 198.22Z" fill="#50C1BA"/>
<path d="M145.019 196.98C150.229 196.871 171.205 196.918 176.353 197.204C176.395 197.204 176.395 197.235 176.353 197.241C171.2 197.459 150.214 197.241 145.014 197.063C144.904 197.058 144.91 196.98 145.019 196.98Z" fill="#263238"/>
<path d="M147.661 192.671C148.242 192.654 148.821 192.76 149.359 192.981C149.898 193.201 150.384 193.532 150.787 193.952C151.514 194.697 151.928 195.693 151.943 196.735C151.943 196.766 151.881 196.766 151.876 196.735C151.706 195.708 151.208 194.763 150.456 194.043C149.705 193.323 148.741 192.865 147.707 192.738C147.698 192.745 147.687 192.747 147.677 192.745C147.666 192.743 147.656 192.737 147.65 192.728C147.644 192.719 147.642 192.708 147.643 192.697C147.645 192.686 147.652 192.677 147.661 192.671V192.671Z" fill="#263238"/>
<path d="M156.752 188.065C158.837 188.065 161.244 188.789 162.531 190.493C162.583 190.56 162.489 190.628 162.426 190.597C160.602 189.637 158.681 188.874 156.695 188.32C156.661 188.312 156.632 188.292 156.613 188.262C156.595 188.233 156.589 188.198 156.596 188.164C156.604 188.13 156.625 188.1 156.654 188.082C156.683 188.063 156.719 188.057 156.752 188.065V188.065Z" fill="#263238"/>
<path d="M155.143 188.685C157.227 188.685 159.634 189.409 160.921 191.118C160.973 191.18 160.879 191.253 160.817 191.217C158.993 190.255 157.072 189.494 155.085 188.945C155.056 188.933 155.032 188.911 155.017 188.883C155.002 188.854 154.998 188.822 155.005 188.791C155.012 188.76 155.029 188.732 155.054 188.713C155.08 188.693 155.111 188.683 155.143 188.685V188.685Z" fill="#263238"/>
<path d="M153.533 189.31C155.617 189.284 158.024 190.029 159.316 191.738C159.363 191.801 159.269 191.874 159.206 191.842C157.385 190.877 155.463 190.114 153.475 189.566C153.441 189.558 153.412 189.537 153.393 189.508C153.375 189.479 153.369 189.443 153.376 189.409C153.384 189.375 153.405 189.346 153.434 189.327C153.463 189.309 153.499 189.303 153.533 189.31V189.31Z" fill="#263238"/>
<path d="M151.923 189.93C154.007 189.93 156.419 190.649 157.706 192.358C157.753 192.421 157.659 192.494 157.597 192.463C155.775 191.497 153.853 190.734 151.865 190.186C151.832 190.178 151.802 190.157 151.783 190.128C151.765 190.099 151.759 190.063 151.766 190.029C151.774 189.996 151.795 189.966 151.824 189.948C151.853 189.929 151.889 189.923 151.923 189.93V189.93Z" fill="#263238"/>
<path d="M175.061 192.259C177.4 192.259 177.379 195.906 175.061 195.906C172.742 195.906 172.706 192.244 175.061 192.259Z" fill="#263238"/>
<path d="M154.679 185.554C155.794 187.007 157.503 187.929 158.983 188.956C159.017 188.976 159.056 188.987 159.096 188.989C159.136 188.991 159.176 188.983 159.212 188.967C159.249 188.951 159.281 188.926 159.306 188.895C159.331 188.864 159.349 188.828 159.358 188.789C159.366 188.791 159.374 188.791 159.382 188.788C159.39 188.786 159.398 188.782 159.404 188.777C159.41 188.771 159.414 188.764 159.417 188.756C159.42 188.748 159.421 188.74 159.42 188.732C159.275 186.822 158.63 184.983 157.55 183.402C156.904 182.49 155.58 181.636 154.523 182.506C153.465 183.376 154.022 184.71 154.679 185.554ZM154.585 183.829C154.804 181.568 156.841 183.308 157.289 184.001C157.572 184.453 157.824 184.923 158.045 185.408C158.483 186.418 158.871 187.449 159.207 188.497C158.514 187.945 157.774 187.455 157.06 186.934C156.211 186.314 154.471 185.079 154.585 183.829Z" fill="#263238"/>
<path d="M166.818 187.429C166.662 186.069 165.109 185.772 164.015 185.975C162.141 186.368 160.402 187.245 158.972 188.518C158.964 188.523 158.958 188.529 158.954 188.537C158.949 188.545 158.947 188.553 158.947 188.562C158.947 188.571 158.949 188.58 158.954 188.588C158.958 188.595 158.964 188.602 158.972 188.606C158.95 188.64 158.936 188.678 158.932 188.718C158.928 188.758 158.934 188.799 158.949 188.836C158.963 188.873 158.987 188.906 159.017 188.933C159.048 188.959 159.084 188.977 159.123 188.987C160.905 189.268 162.77 189.794 164.588 189.508C165.651 189.362 166.969 188.716 166.818 187.429ZM161.916 188.862C161.035 188.747 160.17 188.586 159.31 188.502C160.295 188.007 161.254 187.46 162.285 187.08C162.781 186.883 163.289 186.719 163.807 186.59C164.609 186.408 167.287 186.559 165.891 188.341C165.073 189.32 162.963 188.992 161.916 188.862Z" fill="#263238"/>
<path d="M211.865 91.0107C211.865 91.0107 187.779 131.983 187.133 134.859C186.143 139.283 180.881 182.933 180.881 182.933L155.82 182.485C155.82 182.485 160.139 143.993 164.229 131.316C167.178 122.183 188.43 91.8913 188.43 91.8913L211.865 91.0107Z" fill="#50C1BA"/>
<path d="M158.107 178.64C161.707 178.614 174.462 178.474 179.25 178.917C179.259 178.917 179.269 178.92 179.276 178.927C179.282 178.934 179.286 178.943 179.286 178.953C179.286 178.963 179.282 178.972 179.276 178.979C179.269 178.986 179.259 178.989 179.25 178.989C177.603 179.224 161.707 178.854 158.107 178.739C158.099 178.742 158.091 178.743 158.083 178.741C158.075 178.74 158.067 178.737 158.06 178.732C158.053 178.727 158.048 178.721 158.044 178.714C158.041 178.706 158.039 178.698 158.039 178.69C158.039 178.682 158.041 178.674 158.044 178.666C158.048 178.659 158.053 178.653 158.06 178.648C158.067 178.643 158.075 178.64 158.083 178.638C158.091 178.637 158.099 178.638 158.107 178.64V178.64Z" fill="#263238"/>
<path d="M207.755 94.7725C206.191 97.2473 204.509 99.67 202.893 102.124C201.278 104.578 199.674 107.037 198.084 109.512C194.913 114.451 191.815 119.436 188.79 124.465C187.323 126.78 186.066 129.221 185.033 131.759C184.093 134.311 183.386 136.942 182.923 139.621C182.428 142.315 182.105 145.03 181.803 147.744C181.476 150.634 181.153 153.524 180.834 156.414C180.174 162.319 179.514 168.234 178.854 174.159C178.77 174.884 178.692 175.613 178.619 176.337C178.619 176.447 178.797 176.468 178.812 176.337C179.547 170.46 180.162 164.568 180.834 158.68L181.834 149.917C182.141 147.192 182.438 144.467 182.876 141.752C183.267 139.083 183.858 136.446 184.642 133.864C185.501 131.189 186.656 128.619 188.086 126.2C190.988 121.193 194.062 116.27 197.136 111.362C200.21 106.454 203.362 101.462 206.608 96.6013C207.004 96.0021 207.411 95.4029 207.827 94.8142C207.885 94.7673 207.786 94.7256 207.755 94.7725Z" fill="#263238"/>
<path d="M190.571 201.664C191.712 201.737 222.494 193.624 223.453 192.603C223.495 192.541 223.52 192.469 223.526 192.395C223.645 191.384 222.072 187.607 220.967 182.766C220.9 182.459 220.321 180.99 219.508 179.005C217.273 173.56 213.288 164.203 213.288 164.203L193.192 169.361L200.59 184.236L201.591 187.732C201.591 187.732 191.426 195.865 190.498 197.11C189.571 198.355 189.436 201.58 190.571 201.664Z" fill="#EB9481"/>
<path d="M190.571 201.664C191.713 201.737 222.494 193.625 223.453 192.603C223.495 192.541 223.52 192.47 223.526 192.395C223.645 191.384 222.072 187.607 220.967 182.767C220.9 182.459 220.321 180.99 219.509 179.005L200.596 184.215L201.596 187.711C201.596 187.711 191.431 195.844 190.504 197.089C189.576 198.335 189.436 201.58 190.571 201.664Z" fill="white"/>
<path d="M190.571 201.659C191.713 201.742 222.494 193.625 223.453 192.603C223.817 192.218 223.02 188.055 220.967 182.767L201.596 187.737C201.596 187.737 191.431 195.86 190.504 197.115C189.576 198.371 189.436 201.58 190.571 201.659Z" fill="#50C1BA"/>
<path d="M190.691 200.345C195.693 198.918 216.002 193.624 221.056 192.587C221.097 192.587 221.103 192.587 221.056 192.624C216.132 194.145 195.781 199.277 190.707 200.439C190.608 200.455 190.587 200.377 190.691 200.345Z" fill="#263238"/>
<path d="M192.155 195.51C192.711 195.35 193.294 195.307 193.867 195.384C194.44 195.461 194.991 195.657 195.484 195.958C196.376 196.494 197.029 197.352 197.308 198.355C197.308 198.386 197.256 198.402 197.245 198.355C196.817 197.402 196.09 196.614 195.175 196.109C194.26 195.605 193.206 195.411 192.171 195.557C192.168 195.562 192.163 195.566 192.158 195.568C192.152 195.571 192.146 195.571 192.141 195.571C192.135 195.57 192.129 195.567 192.125 195.564C192.12 195.56 192.117 195.555 192.115 195.55C192.113 195.544 192.113 195.538 192.114 195.532C192.116 195.527 192.119 195.521 192.123 195.517C192.127 195.513 192.132 195.51 192.138 195.509C192.144 195.508 192.15 195.508 192.155 195.51V195.51Z" fill="#263238"/>
<path d="M199.773 188.742C201.779 188.19 204.3 188.294 205.978 189.618C206.046 189.67 205.978 189.763 205.905 189.748C203.904 189.278 201.859 189.025 199.804 188.992C199.775 188.989 199.749 188.975 199.729 188.955C199.708 188.935 199.695 188.908 199.692 188.879C199.688 188.851 199.694 188.822 199.709 188.797C199.723 188.772 199.746 188.753 199.773 188.742Z" fill="#263238"/>
<path d="M198.376 189.753C200.382 189.201 202.904 189.305 204.582 190.629C204.649 190.681 204.582 190.775 204.503 190.759C202.502 190.299 200.456 190.056 198.402 190.035C198.365 190.038 198.328 190.027 198.299 190.003C198.27 189.979 198.252 189.944 198.249 189.907C198.245 189.87 198.257 189.833 198.281 189.804C198.305 189.775 198.339 189.757 198.376 189.753V189.753Z" fill="#263238"/>
<path d="M196.975 190.764C198.986 190.211 201.502 190.316 203.185 191.639C203.248 191.691 203.185 191.78 203.107 191.769C201.106 191.301 199.061 191.049 197.006 191.019C196.975 191.018 196.946 191.006 196.923 190.985C196.9 190.964 196.885 190.935 196.882 190.905C196.878 190.874 196.885 190.843 196.902 190.817C196.919 190.791 196.945 190.772 196.975 190.764Z" fill="#263238"/>
<path d="M195.579 191.77C197.585 191.223 200.106 191.327 201.784 192.65C201.852 192.702 201.784 192.791 201.711 192.775C199.709 192.311 197.664 192.062 195.61 192.03C195.575 192.034 195.541 192.025 195.513 192.003C195.486 191.982 195.468 191.95 195.464 191.916C195.46 191.881 195.47 191.846 195.491 191.819C195.513 191.791 195.544 191.774 195.579 191.77V191.77Z" fill="#263238"/>
<path d="M218.534 188.143C220.795 187.56 221.702 191.077 219.436 191.655C217.169 192.233 216.268 188.722 218.534 188.143Z" fill="#263238"/>
<path d="M197.126 186.841C198.58 187.961 200.466 188.404 202.154 189.034C202.193 189.045 202.233 189.046 202.272 189.038C202.312 189.03 202.349 189.013 202.38 188.988C202.412 188.964 202.437 188.932 202.454 188.895C202.47 188.859 202.478 188.819 202.477 188.779C202.486 188.779 202.494 188.777 202.501 188.772C202.509 188.768 202.515 188.762 202.52 188.755C202.525 188.748 202.527 188.74 202.528 188.731C202.529 188.722 202.527 188.714 202.524 188.706C201.897 186.892 200.805 185.275 199.356 184.017C198.502 183.303 197.001 182.808 196.199 183.923C195.396 185.038 196.282 186.189 197.126 186.841ZM196.605 185.2C196.24 182.954 198.653 184.126 199.262 184.679C199.652 185.042 200.016 185.432 200.351 185.846C201.035 186.708 201.674 187.605 202.263 188.534C201.451 188.18 200.612 187.898 199.789 187.57C198.799 187.185 196.803 186.434 196.6 185.2H196.605Z" fill="#263238"/>
<path d="M209.344 185.564C208.849 184.288 207.259 184.397 206.264 184.876C204.55 185.73 203.091 187.02 202.034 188.617C202.028 188.624 202.024 188.632 202.023 188.641C202.021 188.649 202.022 188.658 202.024 188.666C202.027 188.674 202.031 188.682 202.038 188.688C202.044 188.694 202.051 188.698 202.06 188.701C202.048 188.739 202.046 188.779 202.053 188.818C202.06 188.857 202.076 188.894 202.1 188.926C202.124 188.958 202.154 188.984 202.19 189.002C202.226 189.02 202.265 189.029 202.305 189.029C204.102 188.847 206.04 188.878 207.723 188.154C208.708 187.732 209.818 186.768 209.344 185.564ZM204.967 188.201C204.092 188.31 203.211 188.378 202.362 188.518C203.164 187.766 204.004 187.055 204.878 186.387C205.307 186.072 205.756 185.785 206.223 185.528C206.952 185.142 209.583 184.611 208.666 186.69C208.14 187.841 206.019 188.07 204.967 188.201V188.201Z" fill="#263238"/>
<path d="M199.215 183.261L221.734 177.353C221.734 177.353 200.174 134.927 200.372 131.999C200.528 129.394 216.164 106.636 217.045 102.374C218.456 95.3974 215.059 89.1661 211.767 85.3105L188.477 91.8753C188.477 91.8753 190.332 95.9028 193.74 98.4453C193.74 98.4453 179.104 122.881 178.729 130.925C178.354 138.97 199.215 183.261 199.215 183.261Z" fill="#50C1BA"/>
<path d="M198.788 179.093C202.05 178.16 201.101 178.384 204.378 177.483C205.983 177.045 216.523 174.164 218.086 174.013C218.123 174.013 218.138 174.065 218.086 174.081C216.648 174.727 206.061 177.426 204.451 177.832C201.159 178.666 202.091 178.39 198.788 179.192C198.752 179.197 198.725 179.093 198.788 179.093Z" fill="#263238"/>
<path d="M190.128 97.5233C192.36 98.3514 194.516 99.3693 196.573 100.566C196.59 100.574 196.603 100.589 196.608 100.606C196.614 100.624 196.613 100.643 196.605 100.66C196.596 100.676 196.582 100.689 196.564 100.695C196.547 100.701 196.527 100.699 196.511 100.691C194.338 99.7428 192.119 98.8362 190.003 97.7734C189.974 97.7546 189.953 97.7257 189.944 97.6923C189.935 97.6589 189.939 97.6234 189.954 97.5924C189.97 97.5615 189.996 97.5373 190.028 97.5245C190.06 97.5118 190.096 97.5114 190.128 97.5233V97.5233Z" fill="#263238"/>
<path d="M192.864 96.9503C193.029 97.3596 193.169 97.779 193.281 98.2059C193.403 98.5392 193.458 98.8934 193.442 99.248C193.435 99.2599 193.426 99.2698 193.414 99.2766C193.402 99.2835 193.388 99.2871 193.375 99.2871C193.361 99.2871 193.347 99.2835 193.335 99.2766C193.324 99.2698 193.314 99.2599 193.307 99.248C193.112 98.9365 192.964 98.5976 192.869 98.2424C192.728 97.8516 192.577 97.4661 192.452 97.0753C192.364 96.8252 192.775 96.7002 192.864 96.9503Z" fill="#263238"/>
<path d="M192.864 94.8406C192.77 94.4811 192.676 94.1269 192.577 93.7674C192.478 93.4079 192.343 93.0379 192.27 92.6628C192.27 92.6055 192.166 92.6315 192.181 92.6628C192.27 93.0223 192.312 93.3974 192.374 93.7622C192.437 94.1269 192.51 94.4916 192.583 94.8511C192.72 95.5337 192.894 96.2086 193.104 96.8726C192.737 96.8459 192.381 96.7373 192.062 96.5548C191.751 96.2977 191.528 95.9497 191.426 95.5596C191.28 95.1533 191.15 94.7417 190.999 94.3405C190.811 93.9006 190.661 93.4457 190.551 92.9806C190.551 92.9181 190.446 92.9442 190.457 92.9806C190.636 93.9628 190.914 94.9246 191.285 95.8514C191.447 96.2161 191.567 96.5913 191.926 96.7684C192.321 96.9359 192.747 97.0193 193.176 97.0133C193.223 97.0133 193.296 97.0133 193.286 96.9456C193.176 96.2787 193.041 95.544 192.864 94.8406Z" fill="#263238"/>
<path d="M193.249 99.2585C192.364 100.858 191.353 102.385 190.405 103.948C189.456 105.511 188.602 107.032 187.737 108.595C185.997 111.752 184.382 114.993 182.907 118.286C182.178 119.915 181.483 121.563 180.823 123.23C180.137 124.889 179.571 126.596 179.13 128.336C178.716 130.073 178.638 131.874 178.901 133.64C179.23 135.451 179.697 137.235 180.297 138.975C181.504 142.962 182.973 146.864 184.694 150.657C184.752 150.782 184.96 150.688 184.913 150.558C183.684 147.088 182.412 143.628 181.303 140.137C180.235 136.73 178.963 133.197 179.552 129.576C179.881 127.839 180.376 126.138 181.032 124.496C181.664 122.808 182.338 121.139 183.053 119.489C184.47 116.233 186.054 113.071 187.68 109.918C188.586 108.152 189.54 106.407 190.462 104.646C191.384 102.885 192.291 101.061 193.328 99.3523C193.359 99.2533 193.296 99.2116 193.249 99.2585Z" fill="#263238"/>
<path d="M210.208 95.8406C209.786 95.7729 209.166 95.9187 207.348 95.7937C206.843 95.7489 206.341 95.6671 205.848 95.5488C205.347 95.4704 204.871 95.2779 204.456 94.9861C203.796 94.3612 203.257 93.6193 202.867 92.7979C202.38 91.9511 202.007 91.0436 201.758 90.099C201.758 90.0417 201.659 90.0677 201.669 90.1251C201.768 90.6461 201.82 91.1671 201.961 91.7194C202.095 92.2155 202.269 92.6999 202.482 93.1678C202.816 94.0935 203.377 94.9209 204.113 95.5749C204.936 96.1949 206.087 96.3095 207.082 96.3824C207.661 96.4241 209.927 96.3824 210.208 96.0386C210.292 95.9813 210.287 95.8562 210.208 95.8406Z" fill="#263238"/>
<path d="M216.143 172.508C213.302 166.735 210.523 160.926 207.807 155.08C205.09 149.234 202.454 143.345 199.898 137.413C199.19 136.02 198.627 134.559 198.215 133.052C197.866 131.4 198.376 129.926 199.074 128.43C200.373 125.719 201.826 123.083 203.425 120.537C204.988 117.974 206.676 115.467 208.328 112.951C210.035 110.486 211.601 107.925 213.017 105.282C214.298 102.723 215.012 99.9985 214.647 97.1329C214.283 94.2674 213.048 91.6206 211.73 89.1041C211.381 88.4424 211.021 87.7859 210.688 87.119C210.662 87.0721 210.584 87.119 210.615 87.1659C212.084 89.8023 213.496 92.5688 214.184 95.5022C214.538 96.9641 214.647 98.4748 214.507 99.9725C214.324 101.484 213.898 102.957 213.246 104.333C212.022 107.022 210.313 109.502 208.703 111.966C207.093 114.431 205.379 116.994 203.774 119.547C202.144 122.103 200.646 124.741 199.288 127.451C198.694 128.665 198.043 129.931 197.897 131.291C197.741 132.786 198.277 134.214 198.856 135.563C201.356 141.43 203.993 147.249 206.671 153.038C209.349 158.826 212.126 164.636 214.944 170.388L215.986 172.56C216.054 172.68 216.184 172.597 216.143 172.508Z" fill="#263238"/>
<path d="M187.961 41.8579C188.482 39.4768 191.129 34.0896 196.355 35.142C203.816 36.6477 204.894 51.0225 208.609 55.5032C215.335 63.6206 215.554 71.6547 210.042 72.9416C203.863 74.3796 197.85 67.7315 198.058 53.4036C198.199 44.4317 195.672 40.4564 193.89 40.7221C192.108 40.9878 191.124 43.2542 191.124 43.2542L187.961 41.8579Z" fill="#263238"/>
<path d="M188.211 40.9672C188.58 39.8565 189.083 38.7946 189.707 37.8046C190.333 36.7902 191.163 35.9173 192.145 35.2412C193.162 34.5544 194.368 34.2045 195.594 34.2409C196.81 34.2775 197.999 34.6083 199.059 35.2047C200.092 35.8231 200.981 36.6564 201.664 37.6483C202.339 38.6229 202.9 39.6718 203.336 40.7744C204.164 42.9604 204.744 45.2323 205.066 47.5476C204.498 45.3091 203.763 43.1164 202.868 40.988C202.403 39.9473 201.832 38.9573 201.164 38.0338C200.515 37.1224 199.681 36.3588 198.715 35.7935C197.748 35.2422 196.664 34.9296 195.553 34.8817C194.452 34.8302 193.362 35.1136 192.426 35.6945C191.467 36.2998 190.633 37.0853 189.972 38.0078C189.627 38.4684 189.309 38.9485 189.019 39.4458C188.727 39.9251 188.462 40.4409 188.211 40.9672Z" fill="#263238"/>
<path d="M198.032 48.459C198.111 49.8814 198.032 51.3089 198.001 52.7313C197.97 54.1537 197.913 55.5708 197.907 56.988C197.902 58.4051 197.949 59.8171 198.095 61.2186C198.214 62.6138 198.469 63.9941 198.856 65.3399C199.222 66.677 199.839 67.9323 200.674 69.0391C201.55 70.1164 202.608 71.0316 203.8 71.7431C204.994 72.4676 206.341 72.8996 207.734 73.004C208.43 73.0578 209.131 73.021 209.818 72.8946C210.171 72.8285 210.519 72.7379 210.86 72.6236C211.199 72.5233 211.522 72.3741 211.818 72.1808C211.238 72.6038 210.576 72.9034 209.875 73.0613C209.176 73.2434 208.456 73.3328 207.734 73.327C207.005 73.3137 206.28 73.2105 205.577 73.0196C204.875 72.8223 204.198 72.5443 203.56 72.1912C202.921 71.8408 202.317 71.429 201.758 70.9616L201.346 70.6073L200.95 70.2374C200.681 69.9843 200.431 69.7127 200.2 69.4246C199.304 68.2625 198.639 66.9396 198.241 65.5274C197.519 62.7384 197.241 59.8531 197.418 56.9776C197.459 55.55 197.569 54.1276 197.694 52.7105C197.819 51.2933 197.986 49.8814 198.032 48.459Z" fill="#263238"/>
<path d="M187.534 41.8991C187.45 41.2374 187.852 40.3361 188.268 40.1746C188.685 40.0131 192.009 41.0811 192.358 41.8783C192.707 42.6754 191.363 43.5247 191.363 43.5247L187.534 41.8991Z" fill="#50C1BA"/>
<path d="M191.514 65.3663C189.467 68.2892 174.66 80.3819 166.584 80.83C162.937 81.028 148.671 79.4753 145.493 78.1676C141.591 76.5629 149.307 66.898 151.745 67.3096C154.799 67.8307 165.625 68.9717 167.782 69.029C171.242 69.1176 181.85 63.2978 188.993 61.7817C192.687 61.0054 193.098 63.1155 191.514 65.3663Z" fill="#EB9481"/>
<path d="M191.353 65.9189C189.092 69.863 181.11 76.6257 181.11 76.6257L179.75 74.1144L175.249 65.8251C175.249 65.8251 182.814 62.8136 187.831 61.3496C188.42 61.1688 189.023 61.0363 189.634 60.9536C192.874 60.5368 193.296 62.5323 191.353 65.9189Z" fill="#DBDBDB"/>
<path d="M191.353 65.9182C189.092 69.8623 181.11 76.625 181.11 76.625L179.75 74.1137L178.823 72.4048L175.243 65.8296C175.243 65.8296 182.814 62.8077 187.831 61.3437C188.421 61.1679 189.024 61.0373 189.634 60.9529C189.698 60.9481 189.762 60.9481 189.827 60.9529C192.89 60.6195 193.265 62.5993 191.353 65.9182Z" fill="#384259"/>
<path d="M181.917 63.7874C182.091 64.5065 182.091 65.2566 181.917 65.9757C181.744 65.2566 181.744 64.5065 181.917 63.7874V63.7874ZM179.776 68.0806C179.409 68.0746 179.042 68.1185 178.687 68.2108C179.043 68.3006 179.409 68.3444 179.776 68.3411C180.145 68.3441 180.512 68.3003 180.87 68.2108C180.513 68.1188 180.145 68.075 179.776 68.0806V68.0806ZM190.842 61.9638C190.473 61.9583 190.105 62.0021 189.748 62.0941C190.105 62.1861 190.473 62.2299 190.842 62.2244C191.209 62.227 191.575 62.1833 191.931 62.0941C191.575 62.0049 191.209 61.9612 190.842 61.9638V61.9638ZM186.58 67.4032C186.838 67.6655 187.129 67.8932 187.445 68.0806C187.258 67.7641 187.03 67.4734 186.768 67.2157C186.509 66.9546 186.219 66.7271 185.903 66.5384C186.092 66.8538 186.319 67.1444 186.58 67.4032V67.4032ZM182.376 72.6134C182.633 72.8773 182.924 73.1067 183.241 73.2959C183.055 72.9784 182.827 72.6874 182.563 72.431C182.306 72.1671 182.015 71.9377 181.698 71.7485C181.878 72.0646 182.099 72.3554 182.355 72.6134H182.376Z" fill="white"/>
<path d="M182.501 74.7757C181.745 73.2491 178.411 67.1011 177.603 65.8194C177.546 65.7308 177.478 65.7413 177.52 65.8194C178.997 68.8912 180.639 71.8809 182.438 74.7757C182.459 74.8382 182.521 74.8173 182.501 74.7757Z" fill="#263238"/>
<path d="M191.353 65.9187C189.092 69.8628 181.11 76.6256 181.11 76.6256L179.75 74.1143L178.823 72.4053C183.152 68.133 188.368 62.876 189.827 60.943C192.89 60.62 193.265 62.5998 191.353 65.9187Z" fill="#A6A6A6"/>
<path d="M183.97 84.0863L185.153 97.1117C186.746 97.0382 188.334 96.8782 189.91 96.6323C194.066 96.0089 198.183 95.1513 202.242 94.0637C206.27 93.0217 210.99 91.5837 216.388 89.6664C216.388 89.6664 204.18 67.6483 195.756 61.5733C195.563 61.4326 195.375 61.3023 195.182 61.1825C195.146 61.1513 195.11 61.1356 195.073 61.1096C191.244 58.6869 187.779 60.5886 185.862 63.2874C185.377 63.9647 180.688 74.6247 180.922 78.1988C181.136 81.3406 183.97 84.0863 183.97 84.0863Z" fill="#384259"/>
<path d="M190.743 70.1438C190.836 70.4992 190.879 70.8655 190.874 71.2327C190.879 71.6016 190.835 71.9696 190.743 72.3268C190.651 71.9696 190.607 71.6016 190.613 71.2327C190.61 70.8656 190.654 70.4997 190.743 70.1438V70.1438ZM193.583 83.7839C193.58 84.1527 193.624 84.5203 193.713 84.8781C193.808 84.5213 193.852 84.153 193.843 83.7839C193.849 83.4151 193.805 83.0471 193.713 82.6898C193.624 83.0475 193.58 83.4152 193.583 83.7839V83.7839ZM202.675 76.0208C202.669 76.3897 202.713 76.7577 202.805 77.115C202.979 76.3959 202.979 75.6458 202.805 74.9267C202.713 75.284 202.669 75.6519 202.675 76.0208V76.0208ZM186.002 82.1219C185.996 82.4908 186.04 82.8588 186.132 83.216C186.306 82.497 186.306 81.7468 186.132 81.0278C186.04 81.385 185.996 81.753 186.002 82.1219V82.1219ZM196.506 72.5196C196.137 72.5166 195.769 72.5604 195.412 72.6499C196.131 72.8234 196.881 72.8234 197.6 72.6499C197.244 72.5608 196.878 72.517 196.511 72.5196H196.506ZM204.258 82.2365C203.889 82.2283 203.521 82.2722 203.164 82.3668C203.883 82.5404 204.633 82.5404 205.353 82.3668C204.997 82.2752 204.631 82.2314 204.264 82.2365H204.258ZM192.473 89.9371C192.106 89.9312 191.74 89.975 191.384 90.0674C191.74 90.1597 192.106 90.2035 192.473 90.1976C192.842 90.2032 193.21 90.1594 193.567 90.0674C193.211 89.9783 192.845 89.9345 192.478 89.9371H192.473ZM206.202 88.4366C205.835 88.4336 205.469 88.4774 205.113 88.5669C205.83 88.7406 206.579 88.7406 207.296 88.5669C206.938 88.4773 206.571 88.4336 206.202 88.4366ZM190.842 61.9482C190.473 61.9427 190.105 61.9865 189.748 62.0785C190.105 62.1705 190.473 62.2143 190.842 62.2087C191.209 62.2114 191.575 62.1677 191.931 62.0785C191.575 61.9946 191.209 61.9561 190.842 61.9639V61.9482ZM196.417 64.3605C196.675 64.6244 196.965 64.8538 197.282 65.0431C197.098 64.7246 196.87 64.4335 196.605 64.1782C196.347 63.9143 196.056 63.6849 195.74 63.4956C195.928 63.8178 196.157 64.1139 196.422 64.3762L196.417 64.3605ZM207.801 76.547C208.059 76.8109 208.35 77.0404 208.666 77.2296C208.48 76.9123 208.252 76.6214 207.989 76.3647C207.73 76.102 207.44 75.8727 207.124 75.6822C207.31 76.0041 207.538 76.3001 207.801 76.5627V76.547ZM189.597 77.8496C189.855 78.1135 190.145 78.3429 190.462 78.5321C190.073 77.894 189.537 77.3581 188.899 76.9691C189.091 77.2975 189.325 77.5989 189.597 77.8652V77.8496ZM200.069 86.6704C200.327 86.9342 200.618 87.1637 200.934 87.3529C200.545 86.7148 200.009 86.1789 199.371 85.7898C199.564 86.1128 199.799 86.4089 200.069 86.6704V86.6704ZM186.606 67.3928C186.864 67.6551 187.155 67.8828 187.471 68.0701C187.284 67.7537 187.056 67.463 186.794 67.2053C186.535 66.9442 186.245 66.7167 185.929 66.5279C186.109 66.8456 186.328 67.1396 186.58 67.4032L186.606 67.3928ZM185.867 74.239C186.129 73.9803 186.359 73.6897 186.549 73.3741C186.232 73.5598 185.941 73.7876 185.684 74.0514C185.42 74.309 185.191 74.5997 185.002 74.9163C185.307 74.7287 185.589 74.5047 185.841 74.2494L185.867 74.239ZM210.589 83.5443C210.853 83.2879 211.08 82.9969 211.266 82.6794C210.626 83.0665 210.09 83.6028 209.703 84.2424C210.018 84.0512 210.307 83.8201 210.563 83.5547L210.589 83.5443ZM187.216 87.2747C187.478 87.017 187.706 86.7263 187.893 86.4099C187.254 86.7969 186.717 87.3332 186.33 87.9729C186.645 87.7817 186.934 87.5505 187.19 87.2852L187.216 87.2747ZM201.169 69.3154C201.433 69.0577 201.662 68.767 201.851 68.4505C201.534 68.6384 201.243 68.8679 200.986 69.133C200.723 69.3906 200.493 69.6814 200.304 69.9979C200.611 69.8101 200.893 69.5842 201.143 69.3258L201.169 69.3154ZM197.709 92.7089C197.974 92.4524 198.204 92.1615 198.392 91.844C198.074 92.0319 197.783 92.2615 197.527 92.5266C197.263 92.7842 197.034 93.0749 196.844 93.3914C197.151 93.2036 197.433 92.9778 197.683 92.7193L197.709 92.7089ZM197.709 78.6415C197.976 78.3864 198.206 78.0953 198.392 77.7766C197.754 78.1656 197.218 78.7016 196.829 79.3397C197.147 79.1454 197.438 78.9088 197.694 78.6363L197.709 78.6415Z" fill="white"/>
<path d="M192.682 60.8856C192.609 61.4066 190.535 64.7932 188.274 64.8817C187.534 64.9078 187.206 60.896 187.206 60.896L187.112 60.6042L185.825 56.5351L190.431 53.0078L191.103 52.5337C191.103 52.5337 191.379 53.6747 191.712 55.0919L191.759 55.2951C191.759 55.3732 191.801 55.4462 191.817 55.5243L191.973 56.1652C192.009 56.3319 192.046 56.4934 192.077 56.6862L192.187 57.2072C192.435 58.4206 192.601 59.6496 192.682 60.8856V60.8856Z" fill="#EB9481"/>
<path d="M191.733 55.0919C191.415 56.294 190.839 57.4124 190.045 58.3689C189.25 59.3255 188.256 60.0972 187.133 60.6303L185.846 56.5611L190.431 53.0078L191.103 52.5337C191.103 52.5337 191.379 53.6487 191.733 55.0919Z" fill="#263238"/>
<path d="M180.115 50.4026C180.078 57.8948 184.564 58.7649 186.179 58.7701C187.643 58.7701 192.64 58.6086 193.474 51.1581C194.307 43.7076 190.811 41.3266 187.461 41.1338C184.111 40.941 180.151 42.8948 180.115 50.4026Z" fill="#EB9481"/>
<path d="M193.041 51.6632C191.817 51.7882 191.478 49.2196 191.478 49.2196C191.478 49.2196 188.982 49.2925 188.071 45.7184C188.167 46.7935 188.577 47.8169 189.248 48.6621C189.248 48.6621 184.825 48.3182 182.876 44.6711C182.876 44.6711 183.663 46.5312 184.371 47.1824C183.247 46.8651 182.261 46.1788 181.574 45.2338C181.574 45.2338 180.855 47.3804 180.276 47.9796C180.276 47.9796 179.422 44.2074 180.99 42.2484C184.293 38.0803 189.717 41.7274 189.717 41.7274C189.717 41.7274 192.749 42.1859 193.833 44.4575C195.506 47.9327 193.041 51.6632 193.041 51.6632Z" fill="#263238"/>
<path d="M192.254 51.7099C192.254 51.7099 193.692 49.2455 194.802 49.7405C195.912 50.2355 194.958 53.7158 193.76 54.2785C193.612 54.3619 193.449 54.4147 193.28 54.4335C193.111 54.4524 192.94 54.4371 192.777 54.3885C192.614 54.3399 192.462 54.2589 192.332 54.1505C192.201 54.0421 192.093 53.9085 192.015 53.7575L192.254 51.7099Z" fill="#EB9481"/>
<path d="M181.053 48.8864C181.229 48.8558 181.403 48.8141 181.574 48.7614C181.758 48.7407 181.93 48.6602 182.063 48.5321C182.1 48.4853 182.12 48.4275 182.12 48.368C182.12 48.3085 182.1 48.2507 182.063 48.2039C181.974 48.1258 181.866 48.0726 181.75 48.0498C181.634 48.0269 181.514 48.0351 181.402 48.0736C181.163 48.1189 180.95 48.2506 180.803 48.4436C180.774 48.4875 180.758 48.5385 180.756 48.5909C180.755 48.6434 180.767 48.6953 180.793 48.7409C180.819 48.7866 180.857 48.8243 180.903 48.85C180.948 48.8757 181 48.8882 181.053 48.8864V48.8864Z" fill="#263238"/>
<path d="M185.94 49.4701C185.764 49.4527 185.59 49.4249 185.419 49.3868C185.228 49.3831 185.044 49.3152 184.898 49.194C184.86 49.1476 184.839 49.0896 184.839 49.0299C184.839 48.9701 184.86 48.9122 184.898 48.8657C184.979 48.7805 185.082 48.7189 185.196 48.6877C185.31 48.6565 185.43 48.6568 185.544 48.6886C185.785 48.7153 186.009 48.8281 186.174 49.0064C186.208 49.0493 186.229 49.1009 186.234 49.1553C186.239 49.2096 186.229 49.2643 186.205 49.313C186.18 49.3617 186.142 49.4024 186.095 49.4302C186.048 49.4581 185.994 49.4719 185.94 49.4701V49.4701Z" fill="#263238"/>
<path d="M184.96 51.002C184.96 51.002 184.997 51.002 184.997 51.0489C184.997 51.5699 185.064 52.1534 185.518 52.3149V52.3462C184.96 52.2732 184.851 51.4917 184.96 51.002Z" fill="#263238"/>
<path d="M185.393 50.4602C186.216 50.3821 186.31 52.0233 185.544 52.1118C184.778 52.2004 184.7 50.5227 185.393 50.4602Z" fill="#263238"/>
<path d="M185.721 50.5274C185.872 50.616 186.023 50.7723 186.2 50.7827C186.377 50.7931 186.544 50.6055 186.669 50.4336H186.695C186.695 50.7514 186.612 51.0849 186.278 51.1526C185.945 51.2203 185.757 50.9442 185.632 50.6316C185.617 50.5847 185.664 50.4961 185.721 50.5274Z" fill="#263238"/>
<path d="M182.089 51.0273C182.089 51.0273 182.048 51.0534 182.053 51.0742C182.1 51.5952 182.053 52.184 181.615 52.382C181.615 52.382 181.615 52.4132 181.615 52.382C182.183 52.2934 182.214 51.5067 182.089 51.0273Z" fill="#263238"/>
<path d="M181.594 50.5225C180.766 50.5225 180.808 52.1689 181.594 52.1793C182.381 52.1897 182.292 50.5329 181.594 50.5225Z" fill="#263238"/>
<path d="M181.256 50.6372C181.126 50.731 181 50.8925 180.844 50.9082C180.688 50.9238 180.521 50.7466 180.401 50.5747H180.375C180.375 50.8925 180.49 51.2208 180.797 51.2729C181.105 51.325 181.271 51.0436 181.318 50.7258C181.355 50.6893 181.313 50.6008 181.256 50.6372Z" fill="#263238"/>
<path d="M182.949 53.2999C182.949 53.2999 182.876 54.0502 182.876 54.4305C183.577 54.4092 184.279 54.4828 184.96 54.6493C185.122 54.6962 185.111 54.5608 184.929 54.4618C184.385 54.1691 183.767 54.044 183.152 54.1023C183.126 54.0033 183.288 52.9196 183.23 52.9196C182.951 52.9547 182.677 53.0284 182.418 53.1384C182.522 51.5285 182.887 49.9446 182.965 48.3399C182.965 48.3274 182.96 48.3155 182.951 48.3067C182.942 48.2979 182.93 48.293 182.918 48.293C182.905 48.293 182.893 48.2979 182.885 48.3067C182.876 48.3155 182.871 48.3274 182.871 48.3399C182.43 50.0211 182.158 51.742 182.058 53.4771C182.074 53.6698 182.808 53.3676 182.949 53.2999Z" fill="#263238"/>
<path d="M183.725 54.43C183.987 54.7731 184.352 55.0218 184.767 55.1386C185.398 55.2011 185.439 54.6175 184.736 54.3518C184.398 54.2849 184.049 54.3119 183.725 54.43V54.43Z" fill="#263238"/>
<path d="M184.778 55.1388C184.541 55.0989 184.319 54.9944 184.137 54.8366C184.252 54.6334 184.544 54.4041 185.231 54.7324C185.341 54.972 185.179 55.1804 184.778 55.1388Z" fill="#FF99BA"/>
<path d="M191.582 59.9893C192.499 59.9893 194.041 60.2185 196.126 61.8024C196.126 61.8024 191.78 65.2984 187.737 65.2984C186.294 65.2984 185.862 63.2821 185.862 63.2821C185.862 63.2821 187.805 60.0205 191.582 59.9893Z" fill="#EB9481"/>
<path d="M260.226 210H243.205C230.836 210 223.271 201.45 221.911 185.929C221.239 178.275 220.827 169.012 220.395 159.206C219.061 129.076 217.232 87.8273 205.504 87.8273H192.025V84.7012H205.504C220.217 84.7012 221.895 122.511 223.516 159.076C223.948 168.85 224.36 178.083 225.026 185.648C225.876 195.328 229.716 206.869 243.205 206.869H260.226V210Z" fill="#50C1BA"/>
<path opacity="0.2" d="M201.925 84.6899L201.258 87.816H192.025V84.6899H201.925Z" fill="black"/>
<path d="M166.62 67.5444H161.171V105.625H166.62V67.5444Z" fill="#50C1BA"/>
<path d="M161.176 70.3579H140.455V102.421H161.176V70.3579Z" fill="#50C1BA"/>
<path opacity="0.2" d="M161.171 70.3628V102.426H156.023L153.715 70.3628H161.171Z" fill="black"/>
<path d="M124.554 76.1147H140.45V80.9081H124.554C124.009 80.9081 123.487 80.6918 123.102 80.3068C122.717 79.9218 122.501 79.3997 122.501 78.8553V78.1728C122.5 77.9027 122.553 77.6352 122.656 77.3856C122.759 77.1359 122.91 76.909 123.1 76.7178C123.291 76.5267 123.518 76.375 123.767 76.2715C124.016 76.168 124.284 76.1147 124.554 76.1147V76.1147Z" fill="#DBDBDB"/>
<path d="M140.45 76.1147H134.87V80.9029H140.45V76.1147Z" fill="#A6A6A6"/>
<path d="M124.554 91.875H140.45V96.6683H124.554C124.009 96.6683 123.487 96.4521 123.102 96.0671C122.717 95.6821 122.501 95.16 122.501 94.6155V93.933C122.5 93.663 122.553 93.3955 122.656 93.1458C122.759 92.8962 122.91 92.6693 123.1 92.4781C123.291 92.2869 123.518 92.1352 123.767 92.0318C124.016 91.9283 124.284 91.875 124.554 91.875Z" fill="#DBDBDB"/>
<path d="M140.45 91.875H134.87V96.6631H140.45V91.875Z" fill="#A6A6A6"/>
<path d="M198.824 83.3311H182.636V89.7239H198.824V83.3311Z" fill="#50C1BA"/>
<path d="M198.824 83.3359H182.636V89.7288H198.824V83.3359Z" fill="#50C1BA"/>
<path opacity="0.2" d="M188.321 83.3359L187.789 89.7288H182.636V83.3359H188.321Z" fill="black"/>
<path d="M166.62 71.5664H179.432C180.282 71.5664 181.097 71.904 181.698 72.5049C182.299 73.1058 182.636 73.9208 182.636 74.7706V98.0131C182.636 98.8629 182.299 99.6779 181.698 100.279C181.097 100.88 180.282 101.217 179.432 101.217H166.62V71.5664Z" fill="#50C1BA"/>
<path opacity="0.2" d="M173.435 71.5664L171.127 101.217H166.626V71.5664H173.435Z" fill="black"/>
<g opacity="0.2">
<path opacity="0.2" d="M172.242 77.5586H171.221V95.221H172.242V77.5586Z" fill="black"/>
<path opacity="0.2" d="M175.139 77.5581H174.118V95.2205H175.139V77.5581Z" fill="black"/>
<path opacity="0.2" d="M178.036 77.5581H177.015V95.2205H178.036V77.5581Z" fill="black"/>
</g>
<path d="M197.324 65.444C199.116 70.4718 196.547 88.8897 193.51 92.7921C188.998 98.5753 180.083 103.895 176.676 105.557C175.186 106.281 168.512 95.6108 169.965 94.6156C173.091 92.4743 183.048 87.3631 183.892 86.3471C184.736 85.3311 189.279 75.5725 191.098 70.0863C193.541 62.7191 196.422 62.9067 197.324 65.444Z" fill="#EB9481"/>
<path d="M176.666 105.588C171.94 108.287 162.536 107.891 161.254 107.5L159.597 106.979C157.622 106.422 157.091 105.333 157.091 105.333C157.091 105.333 154.621 105.364 154.351 103.874C154.048 102.201 157.576 102.483 159.613 101.451C164.302 99.0909 170.252 94.4226 171.528 93.6099L176.666 105.588Z" fill="#EB9481"/>
<path d="M166.245 102.421C164.889 103.132 163.484 103.746 162.041 104.26C160.431 104.727 158.788 105.075 157.128 105.302C157.12 105.305 157.113 105.31 157.108 105.317C157.103 105.324 157.1 105.333 157.1 105.341C157.1 105.35 157.103 105.358 157.108 105.365C157.113 105.372 157.12 105.377 157.128 105.38C160.387 105.292 163.561 104.311 166.303 102.546C166.37 102.504 166.313 102.39 166.245 102.421Z" fill="#263238"/>
<path d="M168.079 105.031C166.693 105.604 164.25 106.594 159.592 106.938C159.592 106.938 159.592 106.964 159.592 106.969C162.55 107.174 165.507 106.551 168.131 105.172C168.215 105.109 168.173 104.994 168.079 105.031Z" fill="#263238"/>
<path d="M165.057 98.2582C165.542 97.7372 165.255 97.4558 163.974 97.6851C162.692 97.9143 157.821 99.9254 157.263 98.1696C156.706 96.4138 163.625 93.6732 165.787 93.4492C167.74 93.3481 169.699 93.4056 171.643 93.6211C170.403 94.4235 167.465 96.6534 165.057 98.2582Z" fill="#EB9481"/>
<path d="M192.296 66.7106C195.448 60.0781 198.324 61.8339 198.6 68.3935C198.693 72.9488 198.488 77.5052 197.985 82.0337L186.56 78.7617C186.56 78.7617 190.28 70.9569 192.296 66.7106Z" fill="#384259"/>
<path d="M195.141 62.8442C195.779 63.2332 196.315 63.7692 196.704 64.4073C196.066 64.0183 195.53 63.4824 195.141 62.8442V62.8442ZM190.613 71.243C190.608 71.6119 190.651 71.9799 190.743 72.3371C190.835 71.9799 190.879 71.6119 190.874 71.243C190.879 70.8758 190.836 70.5095 190.743 70.1541C190.654 70.51 190.61 70.8759 190.613 71.243ZM196.511 72.5299C196.142 72.5269 195.775 72.5706 195.417 72.6601C196.136 72.8337 196.886 72.8337 197.605 72.6601C197.248 72.5671 196.88 72.5199 196.511 72.5195V72.5299ZM189.597 77.8651C189.855 78.129 190.145 78.3584 190.462 78.5476C190.073 77.9095 189.537 77.3736 188.899 76.9846C189.092 77.3075 189.327 77.6036 189.597 77.8651V77.8651ZM197.694 78.6362C197.96 78.381 198.19 78.0899 198.376 77.7713C197.738 78.1603 197.202 78.6962 196.813 79.3343C197.137 79.1428 197.433 78.9079 197.694 78.6362V78.6362Z" fill="white"/>
<path d="M191.212 68.7318C190.785 69.6019 190.337 70.4564 189.889 71.3369C189.965 70.9305 190.028 70.5189 190.077 70.1021H190.045C189.983 70.4251 189.905 70.7482 189.842 71.0712C189.816 71.2275 189.785 71.3838 189.754 71.5401C189.754 71.5714 189.754 71.6026 189.754 71.6391C189.405 72.306 189.061 72.9781 188.712 73.6554C188.316 74.4682 187.946 75.2862 187.571 76.1042C187.195 76.9222 186.846 77.9225 186.424 78.751C186.783 78.9005 187.157 79.0122 187.539 79.0844C187.638 79.1209 187.69 79.0219 187.586 79.0063C187.482 78.9906 186.628 78.652 186.617 78.6468C186.992 77.8183 187.456 77.0368 187.852 76.224C188.248 75.4113 188.654 74.6089 189.035 73.7909C189.806 72.1341 190.483 70.4304 191.249 68.7683C191.249 68.7266 191.212 68.711 191.212 68.7318Z" fill="#263238"/>
<path d="M199.074 72.6814C198.97 73.02 198.85 73.3587 198.762 73.7234C198.73 73.8693 198.694 74.01 198.657 74.1559C198.699 72.9679 198.737 71.7835 198.772 70.6025C198.611 72.5407 198.444 74.4737 198.319 76.4118C198.137 78.268 198.052 80.1322 198.064 81.9971C197.721 81.916 197.373 81.862 197.021 81.8356C197.4 81.9966 197.798 82.1103 198.204 82.1743C198.491 80.2986 198.512 78.225 198.605 76.3389C198.631 75.8179 198.647 75.2969 198.668 74.7394C198.73 74.4112 198.824 74.0881 198.913 73.7651C199.001 73.4421 199.069 73.0669 199.142 72.7231C199.116 72.671 199.079 72.6605 199.074 72.6814Z" fill="#263238"/>
<path d="M197.522 80.3039C195.912 79.7307 189.243 77.6258 187.774 77.2663C187.669 77.2403 187.628 77.2976 187.732 77.3341C190.928 78.5219 194.188 79.5325 197.496 80.3612C197.537 80.3768 197.564 80.3143 197.522 80.3039Z" fill="#263238"/>
<path d="M141.508 78.5377C143.071 79.017 142.753 76.8809 142.753 76.8809C142.753 76.8809 143.977 79.8402 145.796 79.71C147.614 79.5797 147.051 77.0111 147.02 76.8236C147.082 76.9799 148.281 79.6683 150.094 79.3505C151.907 79.0327 151.037 76.5214 150.974 76.3651C151.084 76.4901 152.538 78.1522 153.871 77.5947C156.143 76.636 152.517 72.2803 152.782 70.3005L155.976 70.3943C156.081 70.3841 156.186 70.3685 156.289 70.3474L156.409 68.7166C155.388 68.3023 154.402 67.8075 153.46 67.2369C152.256 66.5596 151.094 65.9448 150.229 65.9239C149.841 65.9032 149.457 66.0081 149.133 66.223C148.809 66.4379 148.564 66.7514 148.432 67.1171C148.432 67.1171 147.494 65.6374 146.056 65.8458C145.321 65.9552 144.842 67.2317 144.842 67.2317C144.611 66.9049 144.294 66.6486 143.926 66.4913C143.558 66.334 143.154 66.2819 142.758 66.3408C141.747 66.5492 141.424 67.7996 141.424 67.7996C141.424 67.7996 140.143 67.0441 139.179 67.5964C137.246 68.6697 138.131 77.4957 141.508 78.5377Z" fill="#EB9481"/>
<path d="M153.178 70.1127L155.96 70.368C156.065 70.3579 156.17 70.3422 156.273 70.3211C159.785 69.6855 161.973 65.6632 159.399 65.3767C157.466 65.1526 155.372 67.7212 153.418 67.2054L153.178 70.1127Z" fill="#EB9481"/>
<path d="M141.356 67.9609H141.31C140.867 71.0428 141.372 74.1865 142.758 76.9745C142.805 77.0631 142.966 77.0214 142.935 76.9172C141.976 74.0244 141.445 71.0072 141.356 67.9609Z" fill="#263238"/>
<path d="M144.842 67.1636C144.842 67.1271 144.785 67.1271 144.78 67.1636C144.31 70.5617 145.072 74.0155 146.926 76.9013C146.994 77.0003 147.156 77.0212 147.083 76.9013C145.926 74.8902 144.842 70.024 144.842 67.1636Z" fill="#263238"/>
<path d="M151.183 76.4895C149.385 73.6552 148.672 70.5291 148.406 67.2155C148.406 67.1738 148.343 67.1842 148.333 67.2155C148.026 68.8723 148.416 70.9668 148.854 72.5715C149.236 74.0679 150.003 75.4384 151.079 76.5468C151.131 76.5937 151.225 76.5521 151.183 76.4895Z" fill="#263238"/>
<path d="M107.173 195.244C106.094 195.604 75.2135 195.515 74.036 194.77C73.5931 194.489 73.3431 189.987 73.1972 184.543C73.1607 183.371 73.1399 182.157 73.119 180.922C73.119 179.463 73.0773 177.983 73.0669 176.545C73.0304 170.095 73.119 164.416 73.119 164.416H93.225V176.545V180.922L93.1208 184.543C93.1208 184.543 104.927 189.868 106.146 190.826C107.365 191.785 108.251 194.911 107.173 195.244Z" fill="#AD6359"/>
<path d="M107.173 195.244C106.094 195.604 75.214 195.515 74.0365 194.77C73.5936 194.489 73.3435 189.987 73.1976 184.542C73.1612 183.37 73.1403 182.156 73.1195 180.921C73.1195 179.463 73.0778 177.983 73.0674 176.545H93.215V180.921L93.1108 184.542C93.1108 184.542 104.917 189.867 106.136 190.826C107.355 191.785 108.251 194.911 107.173 195.244Z" fill="white"/>
<path d="M107.267 195.312C106.563 195.547 93.4128 195.594 83.8209 195.396C81.6014 195.344 79.5746 195.286 77.9439 195.213C75.6879 195.109 74.1769 194.989 73.932 194.833C73.385 194.484 73.1297 187.877 73.0046 180.906H93.2044L93.1002 184.553C93.1002 184.553 104.974 189.909 106.183 190.873C107.392 191.837 108.371 194.948 107.267 195.312Z" fill="#50C1BA"/>
<path d="M106.808 194.072C101.598 193.926 80.6009 193.843 75.4429 194.098C75.4012 194.098 75.4012 194.124 75.4429 194.13C80.6009 194.385 101.603 194.296 106.808 194.156C106.933 194.15 106.938 194.072 106.808 194.072Z" fill="#263238"/>
<path d="M93.8557 183.397C91.8081 183.011 89.302 183.319 87.7338 184.772C87.6713 184.83 87.7338 184.913 87.8223 184.892C89.7814 184.265 91.8025 183.851 93.8505 183.657C93.885 183.658 93.9184 183.645 93.9434 183.621C93.9683 183.597 93.9827 183.564 93.9833 183.53C93.984 183.495 93.971 183.462 93.947 183.437C93.9231 183.412 93.8902 183.398 93.8557 183.397V183.397Z" fill="#263238"/>
<path d="M95.3455 184.303C93.2979 183.912 90.7918 184.22 89.2183 185.679C89.161 185.731 89.2183 185.819 89.3069 185.799C91.269 185.167 93.2936 184.75 95.3455 184.553C95.3725 184.545 95.3963 184.529 95.4132 184.506C95.4301 184.484 95.4392 184.456 95.4392 184.428C95.4392 184.4 95.4301 184.373 95.4132 184.35C95.3963 184.328 95.3725 184.311 95.3455 184.303Z" fill="#263238"/>
<path d="M96.8099 185.189C94.7623 184.798 92.2562 185.105 90.688 186.559C90.6255 186.616 90.688 186.705 90.7714 186.684C92.7311 186.058 94.7518 185.642 96.7995 185.444C96.8293 185.439 96.8565 185.424 96.8766 185.402C96.8966 185.379 96.9083 185.351 96.9095 185.32C96.9107 185.29 96.9015 185.261 96.8833 185.237C96.8651 185.213 96.8392 185.196 96.8099 185.189V185.189Z" fill="#263238"/>
<path d="M98.2842 186.086C96.2366 185.695 93.7305 186.003 92.1622 187.456C92.0997 187.514 92.1622 187.602 92.2508 187.581C94.208 186.952 96.2273 186.537 98.2737 186.341C98.3035 186.337 98.3308 186.322 98.3508 186.299C98.3709 186.277 98.3825 186.248 98.3837 186.218C98.385 186.188 98.3757 186.158 98.3576 186.134C98.3394 186.11 98.3135 186.093 98.2842 186.086V186.086Z" fill="#263238"/>
<path d="M97.6539 178.671C96.8516 177.562 95.351 178.057 94.4966 178.77C93.0477 180.029 91.9553 181.646 91.3288 183.459C91.3254 183.467 91.3239 183.476 91.3246 183.484C91.3253 183.493 91.3281 183.501 91.3327 183.508C91.3374 183.516 91.3437 183.522 91.3512 183.526C91.3587 183.53 91.3671 183.532 91.3757 183.532C91.3757 183.689 91.5216 183.855 91.6935 183.788C93.3868 183.168 95.2781 182.714 96.7265 181.589C97.5758 180.933 98.4146 179.724 97.6539 178.671ZM94.0694 182.318C93.2461 182.641 92.4073 182.928 91.5945 183.282C92.1856 182.352 92.8238 181.453 93.5067 180.589C93.8408 180.174 94.2048 179.784 94.5956 179.422C95.2052 178.864 97.6227 177.692 97.2528 179.943C97.0496 181.177 95.0541 181.928 94.0694 182.318Z" fill="#263238"/>
<path d="M86.1235 182.901C87.8064 183.626 89.7706 183.594 91.5421 183.777C91.5819 183.776 91.6212 183.767 91.6569 183.749C91.6926 183.732 91.7237 183.706 91.7478 183.674C91.772 183.642 91.7886 183.606 91.7962 183.566C91.8039 183.527 91.8025 183.487 91.7922 183.448C91.7986 183.444 91.8039 183.437 91.8075 183.43C91.8111 183.423 91.813 183.415 91.813 183.407C91.813 183.399 91.8111 183.391 91.8075 183.384C91.8039 183.376 91.7986 183.37 91.7922 183.365C90.7408 181.768 89.2893 180.475 87.5824 179.614C86.5716 179.134 84.9773 179.03 84.498 180.307C84.0186 181.583 85.1388 182.479 86.1235 182.901ZM85.2013 181.443C84.2844 179.359 86.9155 179.88 87.6449 180.27C88.1126 180.53 88.5633 180.819 88.9943 181.135C89.8714 181.801 90.7131 182.512 91.516 183.266C90.6407 183.125 89.7602 183.058 88.8797 182.948C87.8273 182.818 85.7067 182.589 85.2013 181.443Z" fill="#263238"/>
<path d="M96.0802 179.489L71.1653 179.937C71.1653 179.937 67.7735 157.893 65.5436 144.185C64.6995 139.032 64.0326 135.052 63.7617 133.854C63.1156 130.993 50.4915 85.592 50.4915 85.592L68.6019 85.5659H74.7916C74.7916 85.5659 74.3956 93.1571 74.6301 93.9542C77.8603 104.942 84.4616 124.428 86.5248 131.217C89.6874 141.653 96.0802 179.489 96.0802 179.489Z" fill="#50C1BA"/>
<path d="M93.8138 175.67C90.2397 175.644 77.5582 175.503 72.7961 175.946C72.7894 175.949 72.7836 175.953 72.7795 175.959C72.7754 175.965 72.7732 175.972 72.7732 175.98C72.7732 175.987 72.7754 175.994 72.7795 176C72.7836 176.006 72.7894 176.011 72.7961 176.014C74.4373 176.248 90.2397 175.883 93.8191 175.769C93.827 175.771 93.8353 175.771 93.8434 175.769C93.8514 175.768 93.8589 175.764 93.8653 175.759C93.8717 175.754 93.8768 175.747 93.8801 175.74C93.8834 175.732 93.885 175.724 93.8845 175.716C93.8841 175.707 93.8817 175.699 93.8776 175.692C93.8735 175.685 93.8678 175.679 93.8609 175.675C93.854 175.67 93.8461 175.667 93.838 175.667C93.8298 175.666 93.8215 175.667 93.8138 175.67V175.67Z" fill="#263238"/>
<path d="M71.5717 156.882C70.7103 151.182 69.7499 145.496 68.6905 139.824C68.1695 137.037 67.6016 134.255 66.8722 131.488C66.1427 128.722 65.2153 125.986 64.2671 123.272C62.4019 117.874 60.62 112.45 58.9475 106.99C57.2751 101.53 55.7172 96.0488 54.2584 90.5208C54.0708 89.8226 53.8885 89.1245 53.6853 88.4367C53.6853 88.3794 53.5863 88.4055 53.5967 88.4367C54.1646 91.219 54.8993 93.9751 55.6026 96.7261C56.306 99.477 57.0615 102.218 57.8482 104.948C59.4321 110.429 61.1497 115.872 63.001 121.276C63.9232 123.965 64.8819 126.648 65.6999 129.373C66.5179 132.098 67.1535 134.859 67.7214 137.641C68.8729 143.289 69.8524 148.973 70.7589 154.658C71.6655 160.342 72.4418 166.12 73.2025 171.851C73.3015 172.575 73.3953 173.305 73.489 174.034C73.5151 174.237 73.8381 174.237 73.8173 174.034C73.2285 168.319 72.421 162.593 71.5717 156.882Z" fill="#263238"/>
<path d="M68.6019 85.5557L65.5436 144.185C64.6995 139.033 64.0326 135.052 63.7617 133.854C63.1156 130.993 50.4915 85.5921 50.4915 85.5921L68.6019 85.5557Z" fill="#263238"/>
<path d="M76.2714 200.184C75.1929 200.543 44.3124 200.455 43.1349 199.705C42.692 199.428 42.4419 194.927 42.296 189.482C42.2596 188.305 42.2387 187.096 42.2179 185.861C42.2179 184.397 42.1762 182.923 42.1658 181.485C42.1293 175.035 42.2179 169.355 42.2179 169.355H62.3186V185.866L62.2144 189.487C62.2144 189.487 74.0206 194.812 75.2398 195.771C76.459 196.73 77.3499 199.83 76.2714 200.184Z" fill="#AD6359"/>
<path d="M76.2711 200.184C75.1926 200.544 44.3121 200.455 43.1346 199.705C42.6918 199.429 42.4417 194.927 42.2958 189.482C42.2593 188.305 42.2385 187.096 42.2176 185.861C42.2176 184.397 42.1759 182.923 42.1655 181.485H62.3132V185.867L62.209 189.488C62.209 189.488 74.0151 194.812 75.2343 195.771C76.4535 196.73 77.3496 199.83 76.2711 200.184Z" fill="white"/>
<path d="M76.3651 200.231C75.6617 200.46 62.5061 200.507 52.9194 200.309C50.7051 200.262 48.6784 200.199 47.0424 200.132C44.7916 200.028 43.2807 199.903 43.0306 199.746C42.5096 199.397 42.2282 192.796 42.1084 185.825H62.3081L62.2039 189.472C62.2039 189.472 74.0883 194.823 75.297 195.766C76.5058 196.709 77.4488 199.866 76.3651 200.231Z" fill="#50C1BA"/>
<path d="M75.9222 198.986C70.7121 198.846 49.71 198.757 44.5571 199.013C44.5155 199.013 44.5155 199.044 44.5571 199.049C49.71 199.299 70.7173 199.216 75.9222 199.075C76.0316 199.07 76.0316 198.992 75.9222 198.986Z" fill="#263238"/>
<path d="M62.954 188.315C60.9064 187.924 58.4003 188.232 56.832 189.685C56.7695 189.743 56.832 189.831 56.9154 189.81C58.8751 189.184 60.8959 188.769 62.9435 188.57C62.9733 188.566 63.0005 188.551 63.0206 188.528C63.0407 188.506 63.0523 188.477 63.0535 188.447C63.0548 188.417 63.0455 188.387 63.0273 188.363C63.0092 188.339 62.9833 188.322 62.954 188.315V188.315Z" fill="#263238"/>
<path d="M64.4287 189.212C62.3811 188.821 59.875 189.129 58.3068 190.582C58.2443 190.64 58.3068 190.728 58.3953 190.707C60.3542 190.078 62.3753 189.662 64.4235 189.467C64.4531 189.462 64.4799 189.446 64.4994 189.424C64.5189 189.401 64.5299 189.372 64.5305 189.342C64.5311 189.312 64.5213 189.282 64.5028 189.259C64.4842 189.235 64.458 189.219 64.4287 189.212V189.212Z" fill="#263238"/>
<path d="M65.9082 190.103C63.8606 189.717 61.3545 190.025 59.7811 191.478C59.7238 191.536 59.7811 191.619 59.8696 191.598C61.8294 190.974 63.8502 190.56 65.8978 190.363C65.9323 190.365 65.966 190.352 65.9914 190.329C66.0168 190.306 66.0319 190.273 66.0332 190.238C66.0346 190.204 66.0222 190.17 65.9988 190.145C65.9753 190.119 65.9427 190.104 65.9082 190.103V190.103Z" fill="#263238"/>
<path d="M67.3829 190.998C65.3353 190.613 62.8292 190.92 61.261 192.374C61.1985 192.431 61.261 192.515 61.3444 192.494C63.3043 191.87 65.325 191.456 67.3725 191.259C67.407 191.26 67.4407 191.248 67.4661 191.224C67.4915 191.201 67.5066 191.168 67.508 191.134C67.5093 191.099 67.4969 191.066 67.4735 191.04C67.45 191.015 67.4175 191 67.3829 190.998V190.998Z" fill="#263238"/>
<path d="M66.7524 183.589C65.9501 182.474 64.4496 182.969 63.5899 183.688C62.141 184.946 61.0486 186.564 60.4221 188.377C60.4198 188.386 60.4193 188.394 60.4208 188.403C60.4222 188.411 60.4256 188.419 60.4306 188.426C60.4356 188.433 60.4421 188.439 60.4497 188.443C60.4572 188.447 60.4656 188.45 60.4742 188.45C60.4719 188.49 60.4791 188.53 60.4953 188.566C60.5115 188.603 60.5361 188.635 60.5673 188.66C60.5984 188.685 60.635 188.702 60.6741 188.71C60.7132 188.718 60.7536 188.716 60.792 188.706C62.4853 188.086 64.3714 187.632 65.825 186.507C66.6899 185.866 67.5079 184.636 66.7524 183.589ZM63.1679 187.236C62.3394 187.565 61.5058 187.846 60.693 188.205C61.313 187.294 61.8914 186.361 62.6 185.512C62.937 185.098 63.3007 184.706 63.6889 184.339C64.3037 183.787 66.716 182.615 66.3513 184.86C66.1689 186.095 64.1526 186.846 63.1679 187.231V187.236Z" fill="#263238"/>
<path d="M55.2276 187.821C56.9157 188.545 58.8747 188.513 60.6513 188.696C60.6917 188.696 60.7316 188.687 60.7677 188.669C60.8038 188.651 60.835 188.624 60.8589 188.592C60.8828 188.559 60.8987 188.521 60.9052 188.481C60.9116 188.442 60.9086 188.401 60.8962 188.362C60.9043 188.36 60.9117 188.355 60.9178 188.349C60.924 188.343 60.9287 188.336 60.9317 188.328C60.9347 188.32 60.9359 188.312 60.9351 188.303C60.9344 188.295 60.9318 188.286 60.9275 188.279C59.8658 186.684 58.4056 185.394 56.6916 184.538C55.6809 184.059 54.0865 183.955 53.6072 185.231C53.1279 186.508 54.2324 187.399 55.2276 187.821ZM54.3106 186.356C53.3936 184.272 56.0247 184.793 56.7541 185.189C57.2229 185.445 57.6737 185.732 58.1036 186.049C58.9794 186.718 59.821 187.431 60.6253 188.185C59.7448 188.039 58.8643 187.977 57.9837 187.867C56.9261 187.737 54.8056 187.508 54.3002 186.356H54.3106Z" fill="#263238"/>
<path d="M65.1268 184.11H40.7485C40.7485 184.11 46.0473 108.522 45.1928 104.286C43.7913 97.3511 44.7239 89.3848 48.0063 85.5293H69.6961C69.6961 85.5293 70.1285 91.6147 67.8882 95.2514C67.8882 95.2514 65.851 96.5383 64.8663 97.1062L65.1268 184.11Z" fill="#50C1BA"/>
<path d="M62.8553 180.166C59.4791 180.083 60.4534 180.057 57.072 180.01C55.4204 179.984 44.5677 179.833 43.0046 180.078C42.9682 180.078 42.9682 180.14 43.0046 180.145C44.5677 180.411 55.4152 180.375 57.072 180.364C60.4482 180.364 59.4791 180.317 62.8553 180.265C62.8657 180.262 62.8748 180.255 62.8812 180.246C62.8877 180.237 62.8911 180.227 62.8911 180.216C62.8911 180.205 62.8877 180.194 62.8812 180.185C62.8748 180.176 62.8657 180.17 62.8553 180.166V180.166Z" fill="#263238"/>
<path d="M69.2427 94.2978C67.1101 95.3259 65.069 96.5338 63.1416 97.9084C63.1257 97.9181 63.1143 97.9337 63.1099 97.9518C63.1055 97.9698 63.1085 97.9889 63.1181 98.0048C63.1278 98.0207 63.1434 98.0321 63.1615 98.0365C63.1796 98.0409 63.1986 98.0379 63.2145 98.0283C65.2986 96.8872 67.3826 95.7827 69.3833 94.5323C69.4144 94.5136 69.4368 94.4834 69.4456 94.4482C69.4544 94.413 69.4489 94.3758 69.4302 94.3447C69.4116 94.3136 69.3813 94.2912 69.3462 94.2824C69.311 94.2736 69.2737 94.2791 69.2427 94.2978Z" fill="#263238"/>
<path d="M66.4763 93.9851C66.3527 94.4059 66.2552 94.834 66.1845 95.2668C66.096 95.6067 66.073 95.9604 66.1168 96.3089C66.1168 96.3766 66.2262 96.3714 66.2575 96.3089C66.421 95.9805 66.5334 95.6291 66.5909 95.2668C66.6951 94.8657 66.8097 94.4697 66.8983 94.0685C66.9608 93.8132 66.5596 93.7246 66.4763 93.9851Z" fill="#263238"/>
<path d="M66.2837 91.8965C66.341 91.5318 66.3983 91.1723 66.4661 90.8128C66.5338 90.4533 66.6276 90.0625 66.664 89.6874C66.664 89.6249 66.7683 89.6457 66.7578 89.6874C66.7005 90.0521 66.6953 90.4273 66.664 90.792C66.6328 91.1567 66.6015 91.5266 66.5651 91.8913C66.4917 92.5788 66.3839 93.2622 66.242 93.9389C66.6019 93.8776 66.9436 93.737 67.2424 93.5273C67.5194 93.242 67.7013 92.878 67.7634 92.4853C67.8676 92.0684 67.9614 91.6516 68.0708 91.2348C68.2184 90.7834 68.3247 90.3195 68.3886 89.8489C68.3886 89.7864 68.4928 89.8072 68.4824 89.8489C68.3977 90.8394 68.2127 91.8187 67.9301 92.7718C67.8692 93.1498 67.6752 93.4935 67.3831 93.7409C67.0069 93.9416 66.5939 94.0639 66.1691 94.1004C66.1222 94.1004 66.0493 94.1004 66.0545 94.0431C66.0952 93.3242 66.1717 92.6078 66.2837 91.8965V91.8965Z" fill="#263238"/>
<path d="M48.7147 104.01C48.5584 102.416 48.2979 100.832 48.126 99.2378C47.8002 96.0461 47.9937 92.8227 48.6991 89.6928C48.6991 89.6355 48.621 89.6095 48.6105 89.6928C47.9937 92.4416 47.7068 95.2541 47.7561 98.0708C47.8968 100.884 48.3969 103.656 48.4386 106.475C48.4803 109.293 48.2615 112.18 48.0791 115.025C47.8968 117.869 47.7092 120.756 47.5268 123.616C46.787 135.125 46.1045 146.634 45.4011 158.149C45.2066 161.358 45.019 164.571 44.8384 167.788C44.6508 171.054 44.4216 174.326 44.3174 177.604C44.3174 177.885 44.7238 177.864 44.7498 177.604C45.2396 171.826 45.5209 166.027 45.8908 160.249C46.2608 154.471 46.589 148.786 46.9329 143.055C47.2767 137.324 47.6258 131.593 47.9749 125.862C48.1416 123 48.3153 120.137 48.4959 117.275C48.6626 114.425 48.871 111.57 48.9127 108.715C48.9357 107.144 48.8696 105.574 48.7147 104.01Z" fill="#263238"/>
<path d="M56.3947 89.4792C56.39 89.4717 56.3835 89.4655 56.3757 89.4612C56.368 89.4568 56.3592 89.4546 56.3504 89.4546C56.3415 89.4546 56.3328 89.4568 56.325 89.4612C56.3173 89.4655 56.3108 89.4717 56.3061 89.4792C56.1767 89.8568 56.1081 90.2525 56.1029 90.6515C56.0354 91.0786 55.9361 91.5001 55.8059 91.9124C55.5667 92.7415 55.1181 93.4951 54.5034 94.1006C53.1383 95.3771 51.3096 95.8513 49.5485 96.2785C49.5369 96.2821 49.5267 96.2894 49.5194 96.2992C49.5122 96.3091 49.5083 96.321 49.5083 96.3332C49.5083 96.3454 49.5122 96.3573 49.5194 96.3671C49.5267 96.377 49.5369 96.3842 49.5485 96.3879C50.5949 96.435 51.6402 96.272 52.6225 95.9086C53.4988 95.6407 54.3073 95.1876 54.9931 94.58C55.648 93.9568 56.0954 93.1474 56.2748 92.2615C56.368 91.7982 56.4168 91.3272 56.4207 90.8547C56.4207 90.6307 56.4207 90.4066 56.4207 90.1774C56.458 89.9452 56.4492 89.708 56.3947 89.4792V89.4792Z" fill="#263238"/>
<path d="M66.6064 60.2394C67.0545 63.7823 73.9944 76.9535 81.3824 82.7889C84.0916 84.9303 98.456 86.1963 102.051 85.915C106.256 85.5919 106.886 75.5833 104.531 74.8017C101.587 73.8274 87.968 72.6239 85.2952 71.6757C82.0441 70.4982 76.1253 62.9382 70.4984 58.2595C67.6067 55.8368 66.2625 57.5145 66.6064 60.2394Z" fill="#AD6359"/>
<path d="M102.051 85.9199C103.38 85.8834 109.46 85.1852 111.112 84.6121C112.763 84.039 117.364 82.0487 117.072 80.741C116.78 79.4332 115.363 79.9074 115.363 79.9074C115.363 79.9074 117.181 78.7559 116.749 77.469C116.317 76.1821 114.144 76.9949 114.144 76.9949C114.144 76.9949 115.926 75.6767 115.4 74.4211C114.873 73.1654 112.847 74.3481 112.847 74.3481C112.847 74.3481 114.535 73.2175 113.67 72.3631C112.628 71.321 109.752 73.775 107.887 74.27C107.459 74.3846 99.123 75.9425 99.123 75.9425L102.051 85.9199Z" fill="#AD6359"/>
<path d="M113.06 74.2499C110.94 76.0318 109.705 76.4486 107.006 76.8185C106.997 76.8217 106.989 76.8277 106.983 76.8357C106.977 76.8436 106.974 76.8531 106.974 76.8628C106.974 76.8726 106.977 76.882 106.983 76.89C106.989 76.8979 106.997 76.9039 107.006 76.9071C109.679 76.7821 111.304 76.4851 113.149 74.3489C113.227 74.2447 113.143 74.1666 113.06 74.2499Z" fill="#263238"/>
<path d="M114.326 76.8494C111.966 78.5375 110.632 78.9699 107.85 79.5795C107.814 79.5795 107.824 79.6577 107.85 79.6525C110.643 79.293 112.258 78.9595 114.399 76.9901C114.488 76.8911 114.436 76.7712 114.326 76.8494Z" fill="#263238"/>
<path d="M115.217 79.9336C112.815 81.3768 111.372 81.9447 108.579 82.1792C108.566 82.1792 108.552 82.1846 108.543 82.1944C108.533 82.2042 108.527 82.2174 108.527 82.2312C108.527 82.2451 108.533 82.2583 108.543 82.2681C108.552 82.2779 108.566 82.2834 108.579 82.2834C111.014 82.43 113.409 81.6142 115.248 80.0117C115.389 79.9023 115.368 79.845 115.217 79.9336Z" fill="#263238"/>
<path d="M97.1953 74.849C98.5987 73.9421 100.067 73.1394 101.587 72.4471C103.057 71.9261 109.257 71.9261 109.325 73.2703C109.418 75.0001 105.839 75.6931 104.041 75.8077C104.041 75.8077 104.265 79.8039 101.801 80.8615C99.3367 81.9192 97.1953 74.849 97.1953 74.849Z" fill="#AD6359"/>
<path d="M109.199 73.7542C108.157 75.3902 105.776 75.385 104.041 75.6247C104.015 75.626 103.989 75.6339 103.967 75.6477C103.945 75.6615 103.926 75.6807 103.913 75.7035C103.9 75.7264 103.893 75.7522 103.893 75.7784C103.892 75.8047 103.899 75.8307 103.911 75.8539C103.911 77.5368 103.39 79.9022 101.905 80.8973C101.858 80.9286 101.905 80.9963 101.941 80.9703C103.666 80.1158 104.364 77.8442 104.265 75.9842C106.047 75.7705 108.433 75.6715 109.215 73.7594C109.22 73.749 109.204 73.7438 109.199 73.7542Z" fill="#263238"/>
<path d="M89.6405 85.727C89.6405 85.727 82.2837 83.7159 81.3876 83.0125C80.4098 82.244 79.4773 81.4194 78.595 80.5429C71.8999 73.9625 67.8569 64.9907 66.7627 61.8646C65.6061 58.5353 66.6689 55.3467 69.769 57.4933C70.0184 57.6698 70.2584 57.8594 70.488 58.0612C74.1351 61.2393 83.8885 70.9042 85.0764 71.3991C86.2643 71.8941 91.9902 72.6444 91.9902 72.6444L89.6405 85.727Z" fill="#384259"/>
<path d="M78.595 80.5429C71.8999 73.9625 67.8569 64.9906 66.7627 61.8646C65.6061 58.5353 66.6689 55.3467 69.769 57.4933L78.595 80.5429Z" fill="#263238"/>
<path d="M89.6144 72.4153C89.2719 73.4209 88.9884 74.4455 88.7652 75.4841C88.5099 76.5261 88.2442 77.5682 88.0306 78.6102C87.5666 80.6538 87.2187 82.7221 86.9885 84.8051C86.9885 84.8175 86.9935 84.8294 87.0023 84.8382C87.011 84.847 87.023 84.8519 87.0354 84.8519C87.0479 84.8519 87.0598 84.847 87.0686 84.8382C87.0774 84.8294 87.0823 84.8175 87.0823 84.8051C87.645 82.7627 88.0618 80.6734 88.489 78.5998C88.7027 77.5577 88.8954 76.547 89.1091 75.5258C89.3227 74.5046 89.578 73.4417 89.6926 72.431C89.6947 72.4206 89.6925 72.4098 89.6867 72.401C89.6808 72.3923 89.6717 72.3861 89.6613 72.3841C89.651 72.382 89.6402 72.3841 89.6314 72.39C89.6226 72.3959 89.6165 72.405 89.6144 72.4153V72.4153Z" fill="#263238"/>
<path d="M73.7441 67.4556C73.9161 68.2267 74.0515 69.0186 74.1557 69.8314C74.1532 69.8002 74.1532 69.7688 74.1557 69.7376C74.1974 69.2948 74.2287 68.8415 74.3068 68.4038C74.3068 68.4038 74.3485 68.3778 74.3485 68.4038C74.3754 68.8543 74.358 69.3062 74.2964 69.7533C74.2704 69.9669 74.2443 70.1805 74.213 70.3889C74.2495 70.7484 74.2808 71.1079 74.3016 71.4622C74.3433 72.1395 74.4736 75.0311 74.4579 75.5261C74.4579 75.6303 74.3381 75.6407 74.312 75.5261C74.213 75.0051 73.9525 72.0405 73.8796 71.358C73.7432 70.0565 73.6771 68.7486 73.6816 67.4399C73.692 67.4243 73.7337 67.4295 73.7441 67.4556Z" fill="#263238"/>
<path d="M74.5727 89.0985C73.5306 90.0363 72.2594 91.4066 64.9443 91.9172C64.4858 91.9172 64.0169 91.9537 63.548 91.9172C56.5039 91.7192 46.6202 86.186 46.0315 85.7484C46.0315 85.7484 53.6227 65.21 63.6626 57.327C65.0954 56.1964 68.1694 56.7539 70.0919 57.9158C70.7797 58.3326 73.0513 62.1308 73.5098 65.5903C73.9683 69.0499 75.6095 88.1607 74.5727 89.0985Z" fill="#384259"/>
<path d="M68.8675 63.0632C67.096 63.2091 64.5587 60.1455 63.7251 57.853C63.6678 57.6967 64.1263 56.2014 64.5952 54.357C64.8765 53.2369 65.1631 51.9864 65.3402 50.8246C65.3767 50.5849 66.1218 51.1476 66.1218 51.1476L67.5702 51.7416L72.3635 53.711C71.7231 55.1004 71.2559 56.5633 70.9724 58.0667C70.957 58.2296 70.957 58.3935 70.9724 58.5564C70.9747 58.5824 70.9747 58.6086 70.9724 58.6346C70.9568 59.5568 70.5764 62.9069 68.8675 63.0632Z" fill="#AD6359"/>
<path d="M70.9514 58.5517C70.9537 58.5777 70.9537 58.6038 70.9514 58.6298C70.698 58.6266 70.4453 58.6022 70.196 58.5569C65.2984 57.6972 65.6475 51.3564 65.6475 51.3564L67.5753 51.7368L72.3686 53.7062C71.7282 55.0956 71.261 56.5585 70.9775 58.0619C70.9534 58.224 70.9447 58.3879 70.9514 58.5517V58.5517Z" fill="#263238"/>
<path d="M64.8453 43.1916C63.9127 45.7654 64.9078 53.3827 66.6793 55.1749C69.2479 57.78 73.6504 58.2125 75.8856 55.0759C78.0582 52.0436 76.5837 42.1339 74.5883 40.4875C71.6445 38.0752 66.2208 39.3934 64.8453 43.1916Z" fill="#AD6359"/>
<path d="M71.7853 48.4644C71.7853 48.4644 71.7488 48.4956 71.754 48.5165C71.8322 49.0375 71.8426 49.6262 71.3945 49.8555C71.3945 49.8555 71.3945 49.8867 71.3945 49.8815C71.9624 49.7304 71.9468 48.9333 71.7853 48.4644Z" fill="#263238"/>
<path d="M71.2592 47.9855C70.4256 48.0271 70.5714 49.6892 71.3425 49.6527C72.1137 49.6162 71.9574 47.949 71.2592 47.9855Z" fill="#263238"/>
<path d="M74.9427 48.1206C74.9427 48.1206 74.9844 48.1206 74.9844 48.1623C75.0156 48.6833 75.1355 49.2668 75.6148 49.4023C75.026 49.3971 74.8854 48.6156 74.9427 48.1206Z" fill="#263238"/>
<path d="M75.3595 47.5424C76.1827 47.4122 76.4015 49.069 75.6252 49.1941C74.8489 49.3191 74.6666 47.6571 75.3595 47.5424Z" fill="#263238"/>
<path d="M70.613 46.7553C70.8318 46.6772 71.0246 46.5678 71.2382 46.4688C71.4706 46.401 71.674 46.2581 71.8165 46.0624C71.8512 45.9923 71.8613 45.9126 71.8452 45.8361C71.8291 45.7595 71.7879 45.6906 71.728 45.6404C71.5925 45.5622 71.4389 45.521 71.2825 45.521C71.1261 45.521 70.9725 45.5622 70.837 45.6404C70.538 45.7532 70.2924 45.9746 70.1493 46.2604C70.1232 46.3265 70.1164 46.3986 70.1297 46.4684C70.143 46.5382 70.1758 46.6028 70.2244 46.6547C70.273 46.7065 70.3353 46.7435 70.4041 46.7613C70.4729 46.7792 70.5453 46.7771 70.613 46.7553V46.7553Z" fill="#263238"/>
<path d="M75.8807 46.98C75.6529 46.9549 75.4267 46.9166 75.2034 46.8654C74.9596 46.8575 74.7253 46.7696 74.5365 46.6153C74.49 46.5538 74.4648 46.4788 74.4648 46.4017C74.4648 46.3246 74.49 46.2496 74.5365 46.188C74.6436 46.0742 74.7798 45.9917 74.9304 45.9494C75.081 45.9072 75.2402 45.9068 75.3909 45.9484C75.7099 45.9814 76.0051 46.1318 76.2194 46.3704C76.2643 46.4292 76.2911 46.4999 76.2965 46.5737C76.3019 46.6476 76.2856 46.7214 76.2497 46.7861C76.2137 46.8508 76.1597 46.9036 76.0941 46.9381C76.0286 46.9725 75.9544 46.9871 75.8807 46.98V46.98Z" fill="#263238"/>
<path d="M74.2185 50.924C74.2708 51.2989 74.3038 51.6763 74.3175 52.0546C73.6128 52.0574 72.9118 52.1556 72.2334 52.3464C72.0771 52.3985 72.0771 52.263 72.2334 52.1588C72.7641 51.843 73.3783 51.6958 73.9945 51.7368C73.9945 51.6378 73.8173 50.5593 73.8746 50.5541C74.1545 50.5825 74.4295 50.6474 74.6926 50.7468C74.5311 49.1421 74.1143 47.5739 73.9736 45.9744C73.9736 45.917 74.0518 45.8962 74.0674 45.9483C74.5708 47.614 74.9043 49.3265 75.0626 51.0595C75.1094 51.2626 74.3644 50.9813 74.2185 50.924Z" fill="#263238"/>
<path d="M65.3976 49.5438C66.7106 49.45 66.5438 46.2405 66.5438 46.2405C66.5438 46.2405 68.5445 45.855 69.4876 43.1144C69.4876 43.1144 72.0926 44.6775 74.2444 44.2815C77.6206 43.625 77.4747 39.2225 76.1982 38.342C74.3851 37.0915 71.2069 38.9828 71.2069 38.9828C71.2069 38.9828 66.3511 37.6959 64.9547 40.9887C64.3278 41.0401 63.7437 41.3273 63.3202 41.7924C62.8967 42.2574 62.6653 42.8658 62.6727 43.4948C62.5477 45.8654 64.4233 49.6115 65.3976 49.5438Z" fill="#263238"/>
<path d="M66.0802 46.6255C67.0517 46.4457 67.9354 45.947 68.5915 45.2083C68.9439 44.809 69.1948 44.3305 69.3227 43.8134C69.4506 43.2964 69.4518 42.7561 69.3261 42.2385C69.3293 42.2293 69.3353 42.2213 69.3432 42.2157C69.3512 42.2101 69.3607 42.207 69.3704 42.207C69.3801 42.207 69.3896 42.2101 69.3976 42.2157C69.4055 42.2213 69.4115 42.2293 69.4147 42.2385C69.5706 42.7804 69.6048 43.3501 69.5147 43.9068C69.4246 44.4634 69.2125 44.9933 68.8937 45.4584C68.5751 45.8992 68.1471 46.2493 67.6519 46.4741C67.1566 46.6989 66.6113 46.7905 66.0698 46.7401C66.0385 46.714 66.0229 46.6359 66.0802 46.6255Z" fill="#263238"/>
<path d="M71.0768 39.128C71.4953 38.4371 72.1509 37.9223 72.9212 37.6796C73.8579 37.4137 74.8597 37.5028 75.7347 37.9296C76.0828 38.1121 76.3767 38.3829 76.5871 38.7148C76.7974 39.0468 76.9167 39.4283 76.9331 39.8209C76.9435 40.7319 76.6399 41.6187 76.0734 42.3322C76.0734 42.3322 76.0265 42.3322 76.0421 42.3322C76.4942 41.6586 76.7255 40.8611 76.7038 40.0502C76.6897 39.6643 76.5667 39.2903 76.3492 38.9714C76.1316 38.6524 75.8283 38.4014 75.4742 38.2475C74.0779 37.6483 72.0459 37.7733 71.1498 39.1957C71.1237 39.227 71.0456 39.1749 71.0768 39.128Z" fill="#263238"/>
<path d="M66.1689 49.4227C66.1689 49.4227 64.5381 46.9271 63.4075 47.5054C62.2769 48.0837 63.4596 51.6735 64.7465 52.1945C64.9067 52.2728 65.081 52.3179 65.259 52.3271C65.4371 52.3363 65.6151 52.3094 65.7825 52.2481C65.9499 52.1868 66.1032 52.0923 66.2331 51.9703C66.3631 51.8483 66.4671 51.7012 66.5388 51.5381L66.1689 49.4227Z" fill="#AD6359"/>
<path d="M63.7463 48.5215C63.7463 48.5215 63.7463 48.5475 63.7463 48.558C64.1582 48.7794 64.519 49.085 64.8053 49.4547C65.0916 49.8245 65.2971 50.2503 65.4084 50.7045C65.3585 50.611 65.2888 50.5294 65.2041 50.4655C65.1195 50.4017 65.022 50.357 64.9183 50.3347C64.8146 50.3124 64.7074 50.3129 64.6039 50.3363C64.5005 50.3597 64.4034 50.4053 64.3195 50.4701C64.3195 50.4701 64.3195 50.5222 64.3195 50.517C64.4813 50.471 64.6534 50.4764 64.812 50.5324C64.9707 50.5884 65.1081 50.6922 65.2052 50.8296C65.3669 51.0609 65.5031 51.3089 65.6116 51.5694C65.6533 51.6528 65.7991 51.6111 65.7731 51.5173C65.846 50.3346 64.9916 48.6778 63.7463 48.5215Z" fill="#263238"/>
<path d="M17.0215 210H0V206.874H17.0215C30.5054 206.874 34.3505 195.334 35.1997 185.653C35.8666 178.072 36.273 168.84 36.7055 159.081C38.3258 122.517 40.0035 84.7065 54.7169 84.7065H68.2008V87.8326H54.7065C42.9837 87.8326 41.1601 129.092 39.8211 159.212C39.3835 169.022 38.9719 178.286 38.305 185.94C36.9503 201.45 29.3904 210 17.0215 210Z" fill="#50C1BA"/>
<path opacity="0.2" d="M68.2009 84.6909V87.817H57.4472L56.7803 84.6909H68.2009Z" fill="black"/>
<path d="M114.977 106.448H120.719V66.3401H114.977V106.448Z" fill="#50C1BA"/>
<path d="M114.978 68.2422H93.1575V104.13H114.978V68.2422Z" fill="#50C1BA"/>
<path opacity="0.2" d="M114.977 68.2422V104.13H109.559L107.126 68.2422H114.977Z" fill="black"/>
<path d="M60.1043 89.4473H76.2922V83.0544H60.1043V89.4473Z" fill="#50C1BA"/>
<path d="M76.2919 83.0596H60.104V89.4524H76.2919V83.0596Z" fill="#50C1BA"/>
<path opacity="0.2" d="M70.6082 89.4472L71.1396 83.0596H76.2924V89.4472H70.6082Z" fill="black"/>
<path d="M93.1575 102.004H79.4965C78.6467 102.004 77.8316 101.667 77.2307 101.066C76.6298 100.465 76.2922 99.65 76.2922 98.8002V73.979C76.2922 73.1292 76.6298 72.3142 77.2307 71.7133C77.8316 71.1124 78.6467 70.7748 79.4965 70.7748H93.1575V102.004Z" fill="#50C1BA"/>
<path opacity="0.2" d="M85.9778 102.004L88.4109 70.7793H93.1574V102.004H85.9778Z" fill="black"/>
<g opacity="0.2">
<path opacity="0.2" d="M87.2335 95.6895H88.312V77.0892H87.2335V95.6895Z" fill="black"/>
<path opacity="0.2" d="M84.1857 95.6895H85.2642V77.0892H84.1857V95.6895Z" fill="black"/>
<path opacity="0.2" d="M81.1327 95.6895H82.2112V77.0892H81.1327V95.6895Z" fill="black"/>
</g>
<path d="M59.109 64.5484C58.5879 72.0719 57.994 87.3949 61.3181 91.8912C65.6789 97.7891 77.9905 101.368 81.6376 102.442C83.2007 102.905 86.9468 92.5425 86.0194 91.0524C85.0919 89.5623 72.3844 86.3633 71.3841 85.488C70.3837 84.6127 67.2159 72.4001 65.7102 66.1792C63.7616 58.3327 59.3226 61.5786 59.109 64.5484Z" fill="#AD6359"/>
<path d="M95.4083 95.0333C97.4142 95.5126 100.457 94.481 100.556 96.018C100.644 97.383 98.4718 97.8884 98.4718 97.8884C98.4718 97.8884 101.108 98.1125 100.785 99.6078C100.462 101.103 97.9612 101.171 97.9612 101.171C97.9612 101.171 100.379 101.499 99.9463 102.968C99.5139 104.438 97.1953 104.641 97.1953 104.641C97.1953 104.641 97.8049 105.094 97.0338 105.995C95.9345 107.288 92.2666 107.136 90.3753 106.605C88.484 106.074 81.9348 102.718 80.9397 102.182L84.2586 89.9898C84.2586 89.9898 88.0672 89.3855 90.0366 89.3125C92.006 89.2396 98.5552 90.8026 98.2791 92.4386C98.0029 94.0746 93.3919 92.9075 92.1988 92.8658C91.0057 92.8242 90.7973 93.0899 91.3183 93.5275C91.657 93.8349 94.5173 94.8196 95.4083 95.0333Z" fill="#AD6359"/>
<path d="M98.3521 97.8622C95.2729 98.3832 93.8349 98.0393 91.011 96.8202C90.9536 96.7941 90.9068 96.8723 90.9641 96.9035C93.6212 98.3363 95.3666 98.9876 98.3833 98.0029C98.5344 97.9612 98.5032 97.8414 98.3521 97.8622Z" fill="#263238"/>
<path d="M98.0809 101.118C94.835 101.353 93.2772 101.025 90.224 99.9722C90.1824 99.9722 90.1511 100.029 90.1928 100.05C93.1052 101.327 94.8559 101.947 98.0705 101.285C98.2164 101.259 98.232 101.108 98.0809 101.118Z" fill="#263238"/>
<path d="M97.1536 104.62C93.991 104.62 92.2665 104.328 89.4321 102.932C89.4191 102.925 89.4041 102.924 89.3901 102.928C89.3762 102.932 89.3644 102.942 89.3571 102.954C89.3498 102.967 89.3476 102.982 89.3509 102.996C89.3542 103.01 89.3627 103.023 89.3748 103.031C92.1258 104.74 94.2776 105.115 97.1432 104.719C97.3359 104.688 97.3516 104.62 97.1536 104.62Z" fill="#263238"/>
<path d="M72.0251 99.9975C72.0251 99.9975 62.0894 95.0062 60.5628 91.1819C58.6871 86.4095 57.9212 72.4932 58.6507 65.3553C59.3801 58.2174 64.3506 59.1031 65.9449 65.4126C67.5079 71.571 71.0352 83.8721 71.3999 84.4504C71.8636 85.1955 77.5322 86.597 77.5322 86.597" fill="#384259"/>
<path d="M71.0298 82.8568C70.8578 82.2681 70.5556 80.9395 70.3837 80.3664C70.0346 79.2202 69.6855 78.0687 69.3417 76.9225C68.9978 75.7763 68.6279 74.6248 68.2475 73.4838C68.1798 73.291 68.1173 73.093 68.0548 72.9003C68.086 72.7752 67.9454 71.2643 67.9558 70.8944C67.9558 70.837 67.862 70.8318 67.8672 70.8944C67.8811 71.2647 67.8689 71.6355 67.8307 72.0041C67.8307 72.0719 67.8307 72.1448 67.8307 72.2125C67.5911 71.4623 67.3514 70.7172 67.1065 69.9878C67.1065 69.9357 67.0023 69.9565 67.018 69.9878C67.4869 71.5508 67.7161 72.5356 68.06 73.8016C68.4039 75.0677 68.7581 76.2452 69.102 77.4487C69.4459 78.6523 69.8471 79.8766 70.2274 81.0958C70.4413 81.8183 70.6918 82.5296 70.9777 83.2268C71.1965 83.6957 71.2069 83.4769 71.0298 82.8568Z" fill="#263238"/>
<path d="M59.8229 87.0613C59.6197 85.7744 59.4165 84.4562 59.2602 83.1849C58.9424 80.5799 58.7392 78.0165 58.6246 75.4114C58.5569 73.9213 58.4475 72.4416 58.3641 70.9567C58.3641 70.9415 58.3581 70.927 58.3473 70.9162C58.3366 70.9055 58.322 70.8994 58.3068 70.8994C58.2916 70.8994 58.277 70.9055 58.2663 70.9162C58.2555 70.927 58.2495 70.9415 58.2495 70.9567C58.2495 72.2801 58.2026 73.5983 58.2495 74.9216C58.2495 75.1144 58.2495 75.3072 58.2495 75.5L58.187 75.229C57.9942 74.4736 57.7232 73.7337 57.5565 72.9678C57.552 72.959 57.5444 72.9521 57.5352 72.9483C57.526 72.9446 57.5157 72.9442 57.5063 72.9474C57.4968 72.9505 57.4888 72.9569 57.4837 72.9655C57.4786 72.974 57.4767 72.9841 57.4784 72.9939C57.6659 73.7546 57.7649 74.5569 57.9421 75.302C58.0359 75.6823 58.1296 76.0627 58.2338 76.443L58.2859 76.6045C58.3172 77.3652 58.3537 78.1259 58.4058 78.8866C58.547 81.4972 58.8481 84.0967 59.3071 86.6705C59.6219 88.3537 60.0768 90.0076 60.667 91.615C60.6699 91.6229 60.6753 91.6298 60.6823 91.6347C60.6892 91.6395 60.6975 91.6421 60.7061 91.6421C60.7146 91.6421 60.7229 91.6395 60.7299 91.6347C60.7368 91.6298 60.7422 91.6229 60.7451 91.615C60.4377 90.328 60.0313 88.3482 59.8229 87.0613Z" fill="#263238"/>
<path d="M75.6879 86.5927C75.1438 87.5281 74.6566 88.4955 74.229 89.4896C73.7705 90.4691 73.3068 91.4486 72.8744 92.4385C71.9976 94.3879 71.2305 96.3847 70.5767 98.4198C70.5755 98.4312 70.578 98.4426 70.584 98.4524C70.5899 98.4622 70.599 98.4698 70.6096 98.4739C70.6203 98.4781 70.6321 98.4786 70.6431 98.4754C70.6541 98.4722 70.6637 98.4655 70.6705 98.4562C71.6396 96.5285 72.468 94.5226 73.312 92.5375C73.7289 91.558 74.13 90.5681 74.5416 89.5886C74.9532 88.6091 75.4221 87.6243 75.74 86.6136C75.7504 86.5823 75.7035 86.5667 75.6879 86.5927Z" fill="#263238"/>
<path d="M111.497 29.2498C111.497 29.6028 111.427 29.9522 111.291 30.2776C111.154 30.6031 110.954 30.8982 110.702 31.1455C110.451 31.3929 110.152 31.5876 109.824 31.7184C109.497 31.8491 109.146 31.9132 108.793 31.907H108.314V35.5541C108.314 36.2588 108.034 36.9347 107.536 37.433C107.037 37.9313 106.361 38.2113 105.657 38.2113C104.952 38.2113 104.276 37.9313 103.778 37.433C103.279 36.9347 102.999 36.2588 102.999 35.5541V31.907H87.7702C87.1688 31.9289 86.5817 31.7201 86.129 31.3235C85.8486 31.114 85.6138 30.8494 85.4391 30.5461C85.2644 30.2427 85.1534 29.9069 85.113 29.5592C85.0725 29.2114 85.1034 28.8591 85.2037 28.5237C85.3041 28.1884 85.4718 27.877 85.6966 27.6086L103.562 5.3978C103.609 5.3978 103.609 5.3457 103.656 5.29881C103.717 5.24484 103.766 5.17931 103.802 5.10603C103.895 5.08364 103.979 5.03262 104.042 4.96015C104.094 4.91325 104.187 4.86636 104.234 4.81426C104.32 4.75446 104.422 4.72178 104.526 4.72048C104.573 4.62149 104.62 4.5746 104.719 4.5746C104.818 4.5746 104.865 4.5277 105.011 4.48081C105.079 4.4876 105.148 4.46907 105.203 4.42871H106.021C106.096 4.47076 106.181 4.48895 106.266 4.48081C106.313 4.5277 106.459 4.52771 106.553 4.5746C106.647 4.62149 106.699 4.62149 106.746 4.62149C106.823 4.69051 106.905 4.75488 106.99 4.81426C107.084 4.86636 107.131 4.91325 107.23 4.96015C107.237 4.9601 107.243 4.96147 107.249 4.96414C107.255 4.96682 107.261 4.97075 107.265 4.97567C107.27 4.98059 107.273 4.98639 107.275 4.9927C107.277 4.999 107.278 5.00567 107.277 5.01225C107.324 5.01225 107.423 5.05914 107.423 5.10603L107.616 5.29881C107.663 5.3457 107.715 5.44469 107.762 5.49158C107.834 5.56624 107.899 5.64832 107.954 5.73646C107.967 5.80937 108.001 5.87669 108.053 5.92923C108.092 6.02203 108.124 6.11787 108.147 6.21579C108.147 6.26268 108.194 6.36168 108.194 6.40857C108.239 6.49873 108.257 6.60009 108.246 6.70033C108.246 6.79412 108.293 6.84622 108.293 6.94V26.5927H108.772C109.126 26.5878 109.477 26.6528 109.805 26.7838C110.134 26.9148 110.433 27.1093 110.686 27.3561C110.939 27.6029 111.141 27.8972 111.28 28.2222C111.419 28.5471 111.493 28.8963 111.497 29.2498V29.2498ZM102.999 14.6614L93.3712 26.5927H102.979L102.999 14.6614Z" fill="#50C1BA"/>
<path d="M117.848 21.3304C117.895 16.8862 119.005 12.8796 121.131 9.78995C123.157 6.70033 126.299 4.42871 130.113 4.42871C133.828 4.42871 137.016 6.70033 139.043 9.78995C141.07 12.8796 142.279 16.8862 142.279 21.3304C142.279 25.7747 141.122 29.7813 139.043 32.8709C136.964 35.9605 133.833 38.2321 130.113 38.2321C126.299 38.2321 123.157 35.9136 121.131 32.8709C119.005 29.7813 117.895 25.7226 117.848 21.3304ZM136.917 21.3304C136.972 18.3041 136.17 15.3241 134.604 12.7337C133.202 10.7069 131.608 9.74306 130.113 9.78995C128.612 9.74306 126.987 10.7069 125.523 12.7337C123.955 15.3235 123.151 18.3036 123.204 21.3304C123.15 24.341 123.954 27.3047 125.523 29.8751C126.971 31.9591 128.612 32.8709 130.113 32.8709C131.613 32.8709 133.202 31.9539 134.604 29.8751C136.005 27.7962 136.917 24.7587 136.917 21.3304Z" fill="#50C1BA"/>
<path d="M171.763 29.2498C171.762 29.603 171.691 29.9525 171.554 30.278C171.417 30.6035 171.217 30.8985 170.965 31.1458C170.712 31.3931 170.414 31.5878 170.085 31.7185C169.757 31.8491 169.407 31.9132 169.053 31.907H168.574V35.5541C168.574 36.2588 168.294 36.9347 167.796 37.433C167.298 37.9313 166.622 38.2113 165.917 38.2113C165.212 38.2113 164.536 37.9313 164.038 37.433C163.54 36.9347 163.26 36.2588 163.26 35.5541V31.907H148.051C147.448 31.9302 146.859 31.7214 146.405 31.3235C146.124 31.114 145.89 30.8494 145.715 30.5461C145.54 30.2427 145.429 29.9069 145.389 29.5592C145.348 29.2114 145.379 28.8591 145.48 28.5237C145.58 28.1884 145.748 27.877 145.972 27.6086L163.838 5.3978C163.885 5.3978 163.885 5.3457 163.932 5.29881C163.993 5.24484 164.042 5.17931 164.078 5.10603C164.171 5.08364 164.255 5.03262 164.317 4.96015C164.37 4.91325 164.463 4.86636 164.51 4.81426C164.596 4.75446 164.697 4.72178 164.802 4.72048C164.849 4.62149 164.896 4.5746 164.995 4.5746C165.094 4.5746 165.141 4.5277 165.286 4.48081C165.355 4.4876 165.424 4.46907 165.479 4.42871H166.297C166.372 4.47076 166.457 4.48895 166.542 4.48081C166.589 4.5277 166.735 4.52771 166.829 4.5746C166.922 4.62149 166.975 4.62149 167.021 4.62149C167.12 4.72048 167.214 4.76737 167.261 4.81426C167.308 4.86115 167.407 4.91325 167.506 4.96015C167.513 4.9601 167.519 4.96147 167.525 4.96414C167.531 4.96682 167.537 4.97075 167.541 4.97567C167.546 4.98059 167.549 4.98639 167.551 4.9927C167.553 4.999 167.554 5.00567 167.553 5.01225C167.6 5.01225 167.699 5.05914 167.699 5.10603L167.892 5.29881C167.938 5.3457 167.991 5.44469 168.037 5.49158C168.11 5.56624 168.175 5.64832 168.23 5.73646C168.243 5.80937 168.277 5.87669 168.329 5.92923C168.368 6.02203 168.4 6.11787 168.423 6.21579C168.423 6.26268 168.47 6.36168 168.47 6.40857C168.513 6.49926 168.53 6.60059 168.517 6.70033C168.517 6.79412 168.569 6.84622 168.569 6.94V26.5927H169.048C169.76 26.5871 170.445 26.8634 170.954 27.3613C171.462 27.8592 171.753 28.5382 171.763 29.2498V29.2498ZM163.26 14.6614L153.652 26.5927H163.26V14.6614Z" fill="#50C1BA"/>
<path d="M130.337 59.6295C130.268 59.6295 130.202 59.6021 130.153 59.5532C130.104 59.5044 130.076 59.4381 130.076 59.369V52.0383C130.076 51.9692 130.104 51.903 130.153 51.8541C130.202 51.8053 130.268 51.7778 130.337 51.7778C130.406 51.7778 130.472 51.8053 130.521 51.8541C130.57 51.903 130.597 51.9692 130.597 52.0383V59.369C130.597 59.4381 130.57 59.5044 130.521 59.5532C130.472 59.6021 130.406 59.6295 130.337 59.6295V59.6295Z" fill="#263238"/>
<path d="M117.072 63.1412C117.026 63.1414 116.98 63.1294 116.94 63.1066C116.9 63.0837 116.866 63.0508 116.843 63.011L113.196 56.6598C113.174 56.6303 113.159 56.5967 113.152 56.561C113.144 56.5254 113.144 56.4886 113.152 56.4529C113.159 56.4172 113.174 56.3835 113.195 56.354C113.217 56.3244 113.244 56.2997 113.276 56.2814C113.307 56.2631 113.342 56.2516 113.378 56.2476C113.415 56.2437 113.451 56.2474 113.486 56.2585C113.521 56.2696 113.553 56.2879 113.58 56.3121C113.607 56.3364 113.629 56.3661 113.644 56.3993L117.291 62.7505C117.309 62.7798 117.32 62.8123 117.325 62.8461C117.33 62.88 117.328 62.9144 117.319 62.9475C117.31 62.9805 117.295 63.0115 117.274 63.0385C117.253 63.0655 117.227 63.088 117.197 63.1048C117.16 63.128 117.116 63.1406 117.072 63.1412V63.1412Z" fill="#263238"/>
<path d="M113.258 115.41C113.212 115.41 113.167 115.397 113.128 115.373C113.099 115.354 113.074 115.33 113.054 115.301C113.035 115.272 113.022 115.239 113.016 115.205C113.009 115.171 113.01 115.136 113.018 115.102C113.025 115.068 113.04 115.036 113.06 115.008L116.707 108.662C116.724 108.633 116.747 108.607 116.774 108.586C116.802 108.565 116.833 108.549 116.866 108.54C116.899 108.531 116.933 108.529 116.968 108.533C117.002 108.538 117.034 108.549 117.064 108.566C117.094 108.583 117.12 108.606 117.141 108.633C117.162 108.66 117.177 108.691 117.186 108.724C117.195 108.758 117.198 108.792 117.193 108.826C117.189 108.86 117.178 108.893 117.161 108.923L113.513 115.269C113.49 115.315 113.453 115.353 113.407 115.378C113.362 115.403 113.31 115.414 113.258 115.41Z" fill="#263238"/>
<path d="M130.17 119.984C130.101 119.984 130.035 119.957 129.986 119.908C129.937 119.859 129.91 119.793 129.91 119.724V112.404C129.91 112.334 129.937 112.268 129.986 112.219C130.035 112.171 130.101 112.143 130.17 112.143C130.239 112.144 130.304 112.172 130.353 112.221C130.401 112.269 130.429 112.335 130.431 112.404V119.734C130.428 119.802 130.399 119.865 130.351 119.912C130.302 119.958 130.237 119.984 130.17 119.984Z" fill="#263238"/>
<path d="M147.103 115.493C147.058 115.493 147.013 115.48 146.974 115.458C146.935 115.435 146.902 115.402 146.879 115.363L143.232 109.017C143.215 108.987 143.204 108.954 143.2 108.92C143.195 108.886 143.198 108.851 143.207 108.818C143.215 108.785 143.231 108.754 143.252 108.727C143.273 108.7 143.299 108.677 143.329 108.66C143.358 108.643 143.391 108.632 143.425 108.627C143.459 108.623 143.494 108.625 143.527 108.634C143.56 108.643 143.591 108.658 143.618 108.679C143.646 108.7 143.668 108.726 143.686 108.756L147.333 115.102C147.35 115.131 147.362 115.164 147.367 115.198C147.371 115.232 147.369 115.266 147.361 115.299C147.352 115.332 147.337 115.363 147.316 115.39C147.295 115.417 147.269 115.44 147.239 115.456C147.198 115.481 147.151 115.494 147.103 115.493Z" fill="#263238"/>
<path d="M143.581 63.2247C143.535 63.225 143.49 63.2124 143.451 63.1882C143.421 63.1715 143.395 63.149 143.374 63.1219C143.353 63.0949 143.338 63.064 143.329 63.0309C143.32 62.9979 143.318 62.9634 143.323 62.9296C143.328 62.8958 143.339 62.8632 143.357 62.8339L147.004 56.4828C147.042 56.4306 147.098 56.3944 147.161 56.3811C147.224 56.3678 147.29 56.3784 147.346 56.4108C147.401 56.4432 147.443 56.4951 147.463 56.5566C147.482 56.618 147.479 56.6845 147.452 56.7433L143.805 63.0944C143.781 63.1331 143.749 63.1653 143.71 63.1881C143.67 63.2109 143.626 63.2234 143.581 63.2247V63.2247Z" fill="#263238"/>
</svg>
