<svg width="103" height="29" viewBox="0 0 103 29" fill="none" xmlns="http://www.w3.org/2000/svg">
<path d="M27.48 20V19.184L33.464 10.432V10.384H27.992V9.216H35.272V10.064L29.32 18.784V18.832H35.352V20H27.48ZM43.3824 12.256V17.888C43.3824 18.688 43.3984 19.392 43.4464 20H42.1984L42.1184 18.736H42.0864C41.7184 19.36 40.9024 20.176 39.5264 20.176C38.3104 20.176 36.8544 19.504 36.8544 16.784V12.256H38.2624V16.544C38.2624 18.016 38.7104 19.008 39.9904 19.008C40.9344 19.008 41.5904 18.352 41.8464 17.728C41.9264 17.52 41.9744 17.264 41.9744 17.008V12.256H43.3824ZM45.7149 20V14.672C45.7149 13.76 45.6989 12.976 45.6509 12.256H46.8829L46.9309 13.776H46.9949C47.3469 12.736 48.1949 12.08 49.1389 12.08C49.2989 12.08 49.4109 12.096 49.5389 12.128V13.456C49.3949 13.424 49.2509 13.408 49.0589 13.408C48.0669 13.408 47.3629 14.16 47.1709 15.216C47.1389 15.408 47.1069 15.632 47.1069 15.872V20H45.7149ZM52.7573 10.88H52.7413C52.2773 10.88 51.9413 10.496 51.9413 10.064C51.9413 9.616 52.3093 9.248 52.7573 9.248C53.2053 9.248 53.5413 9.6 53.5413 10.064C53.5413 10.496 53.2213 10.88 52.7573 10.88ZM55.7173 10.88H55.7013C55.2373 10.88 54.9173 10.496 54.9173 10.064C54.9173 9.616 55.2693 9.248 55.7173 9.248C56.1653 9.248 56.5013 9.6 56.5013 10.064C56.5013 10.496 56.1813 10.88 55.7173 10.88ZM57.4293 12.256V17.888C57.4293 18.688 57.4453 19.392 57.4933 20H56.2453L56.1653 18.736H56.1333C55.7653 19.36 54.9493 20.176 53.5733 20.176C52.3573 20.176 50.9013 19.504 50.9013 16.784V12.256H52.3093V16.544C52.3093 18.016 52.7573 19.008 54.0373 19.008C54.9813 19.008 55.6373 18.352 55.8933 17.728C55.9733 17.52 56.0213 17.264 56.0213 17.008V12.256H57.4293ZM65.0418 18.656L65.2818 19.712C64.9138 19.904 64.0978 20.176 63.0578 20.176C60.7218 20.176 59.2018 18.576 59.2018 16.208C59.2018 13.824 60.8338 12.096 63.3618 12.096C64.1938 12.096 64.9298 12.304 65.3138 12.496L64.9938 13.584C64.6578 13.392 64.1298 13.216 63.3618 13.216C61.5858 13.216 60.6258 14.528 60.6258 16.144C60.6258 17.936 61.7778 19.04 63.3138 19.04C64.1138 19.04 64.6418 18.832 65.0418 18.656ZM68.3256 8.64V15.808H68.3576C68.5496 15.536 68.8216 15.2 69.0456 14.928L71.3176 12.256H73.0136L70.0216 15.44L73.4296 20H71.7176L69.0456 16.288L68.3256 17.088V20H66.9336V8.64H68.3256Z" fill="#50C1BA"/>
<g clip-path="url(#clip0_55_250)">
<path d="M12.5 10L7.5 15L12.5 20" stroke="#50C1BA" stroke-width="1.5" stroke-linecap="round" stroke-linejoin="round"/>
</g>
<defs>
<clipPath id="clip0_55_250">
<rect width="20" height="20" fill="white" transform="translate(0 5)"/>
</clipPath>
</defs>
</svg>
