<svg width="68" height="57" viewBox="0 0 68 57" fill="none" xmlns="http://www.w3.org/2000/svg">
<g clip-path="url(#clip0_365_978)">
<path d="M23.0559 10.3672C23.0559 9.62492 23.3508 8.91302 23.8757 8.38813C24.4006 7.86324 25.1125 7.56836 25.8548 7.56836H42.648C43.3903 7.56836 44.1022 7.86324 44.6271 8.38813C45.152 8.91302 45.4469 9.62492 45.4469 10.3672V27.1605C45.4469 27.9028 45.152 28.6147 44.6271 29.1396C44.1022 29.6644 43.3903 29.9593 42.648 29.9593H25.8548C25.1125 29.9593 24.4006 29.6644 23.8757 29.1396C23.3508 28.6147 23.0559 27.9028 23.0559 27.1605V10.3672Z" stroke="#A3A3A3" stroke-width="1.79927" stroke-linecap="round" stroke-linejoin="round"/>
<path d="M39.8491 4.76953V10.3673" stroke="#A3A3A3" stroke-width="1.79927" stroke-linecap="round" stroke-linejoin="round"/>
<path d="M28.6538 4.76953V10.3673" stroke="#A3A3A3" stroke-width="1.79927" stroke-linecap="round" stroke-linejoin="round"/>
<path d="M23.0559 15.9651H45.4469" stroke="#A3A3A3" stroke-width="1.79927" stroke-linecap="round" stroke-linejoin="round"/>
<path d="M28.6538 21.5627H31.4527V24.3616H28.6538V21.5627Z" stroke="#A3A3A3" stroke-width="1.79927" stroke-linecap="round" stroke-linejoin="round"/>
</g>
<path d="M5.99768 51.1704V40.9454H7.23587V46.0179H7.3557L11.949 40.9454H13.5666L9.27289 45.5586L13.5666 51.1704H12.0688L8.514 46.4174L7.23587 47.8553V51.1704H5.99768ZM17.2662 51.3501C16.7802 51.3501 16.3392 51.2586 15.9431 51.0755C15.5471 50.8892 15.2325 50.6212 14.9995 50.2717C14.7665 49.9189 14.65 49.4929 14.65 48.9936C14.65 48.5542 14.7366 48.1981 14.9097 47.9252C15.0827 47.6489 15.3141 47.4325 15.6036 47.2761C15.8932 47.1197 16.2127 47.0032 16.5622 46.9266C16.9151 46.8467 17.2695 46.7835 17.6257 46.7369C18.0917 46.677 18.4694 46.632 18.759 46.6021C19.0519 46.5688 19.2649 46.5139 19.3981 46.4373C19.5346 46.3608 19.6028 46.2276 19.6028 46.0379V45.998C19.6028 45.5054 19.468 45.1226 19.1984 44.8497C18.9321 44.5767 18.5277 44.4403 17.9852 44.4403C17.4226 44.4403 16.9816 44.5634 16.6621 44.8097C16.3426 45.056 16.1179 45.319 15.9881 45.5986L14.8697 45.1991C15.0694 44.7332 15.3357 44.3704 15.6685 44.1107C16.0047 43.8478 16.3708 43.6647 16.7669 43.5615C17.1664 43.455 17.5591 43.4018 17.9452 43.4018C18.1915 43.4018 18.4744 43.4317 18.794 43.4916C19.1168 43.5482 19.428 43.6664 19.7276 43.8461C20.0305 44.0259 20.2818 44.2971 20.4815 44.6599C20.6812 45.0227 20.7811 45.5087 20.7811 46.1178V51.1704H19.6028V50.1319H19.5429C19.463 50.2984 19.3299 50.4764 19.1435 50.6661C18.9571 50.8559 18.7091 51.0173 18.3995 51.1504C18.09 51.2836 17.7122 51.3501 17.2662 51.3501ZM17.4459 50.2917C17.9119 50.2917 18.3047 50.2002 18.6242 50.0171C18.9471 49.834 19.1901 49.5977 19.3532 49.3081C19.5196 49.0186 19.6028 48.714 19.6028 48.3945V47.316C19.5529 47.376 19.443 47.4309 19.2733 47.4808C19.1068 47.5274 18.9138 47.569 18.6941 47.6056C18.4778 47.6389 18.2664 47.6689 18.06 47.6955C17.857 47.7188 17.6922 47.7388 17.5658 47.7554C17.2595 47.7953 16.9733 47.8602 16.707 47.9501C16.4441 48.0367 16.2311 48.1681 16.068 48.3445C15.9082 48.5176 15.8283 48.7539 15.8283 49.0535C15.8283 49.4629 15.9798 49.7725 16.2826 49.9821C16.5889 50.1885 16.9766 50.2917 17.4459 50.2917ZM24.1099 40.9454V51.1704H22.9317V40.9454H24.1099ZM29.4833 51.3302C28.7444 51.3302 28.107 51.1671 27.5711 50.8409C27.0386 50.5114 26.6275 50.052 26.3379 49.4629C26.0517 48.8704 25.9086 48.1814 25.9086 47.3959C25.9086 46.6104 26.0517 45.9181 26.3379 45.319C26.6275 44.7165 27.0303 44.2472 27.5462 43.911C28.0654 43.5715 28.6712 43.4018 29.3635 43.4018C29.7629 43.4018 30.1574 43.4683 30.5468 43.6015C30.9362 43.7346 31.2907 43.951 31.6102 44.2505C31.9298 44.5468 32.1844 44.9395 32.3741 45.4288C32.5638 45.9181 32.6587 46.5205 32.6587 47.2362V47.7354H26.7473V46.7169H31.4605C31.4605 46.2842 31.3739 45.8981 31.2008 45.5586C31.0311 45.2191 30.7881 44.9512 30.4719 44.7548C30.159 44.5584 29.7896 44.4602 29.3635 44.4602C28.8942 44.4602 28.4881 44.5767 28.1453 44.8097C27.8058 45.0394 27.5445 45.3389 27.3614 45.7084C27.1784 46.0779 27.0868 46.4739 27.0868 46.8967V47.5757C27.0868 48.1548 27.1867 48.6458 27.3864 49.0485C27.5894 49.4479 27.8707 49.7525 28.2302 49.9622C28.5896 50.1685 29.0074 50.2717 29.4833 50.2717C29.7929 50.2717 30.0725 50.2285 30.3221 50.1419C30.5751 50.052 30.7931 49.9189 30.9762 49.7425C31.1592 49.5628 31.3007 49.3398 31.4005 49.0735L32.5389 49.393C32.419 49.7791 32.2177 50.1186 31.9348 50.4115C31.6518 50.7011 31.3023 50.9274 30.8863 51.0905C30.4702 51.2503 30.0026 51.3302 29.4833 51.3302ZM35.6294 46.5572V51.1704H34.4511V43.5016H35.5894V44.6999H35.6893C35.869 44.3104 36.1419 43.9976 36.5081 43.7612C36.8742 43.5216 37.3468 43.4018 37.926 43.4018C38.4452 43.4018 38.8996 43.5083 39.289 43.7213C39.6784 43.931 39.9813 44.2505 40.1977 44.6799C40.414 45.1059 40.5222 45.6452 40.5222 46.2975V51.1704H39.3439V46.3774C39.3439 45.775 39.1875 45.3057 38.8746 44.9695C38.5617 44.63 38.1324 44.4602 37.5865 44.4602C37.2104 44.4602 36.8742 44.5418 36.578 44.7049C36.2851 44.868 36.0537 45.1059 35.884 45.4188C35.7142 45.7317 35.6294 46.1111 35.6294 46.5572ZM45.5711 51.3302C44.932 51.3302 44.3678 51.1687 43.8785 50.8459C43.3893 50.5197 43.0065 50.0604 42.7302 49.4679C42.454 48.8721 42.3158 48.1681 42.3158 47.356C42.3158 46.5505 42.454 45.8515 42.7302 45.2591C43.0065 44.6666 43.3909 44.2089 43.8835 43.8861C44.3762 43.5632 44.9453 43.4018 45.591 43.4018C46.0903 43.4018 46.4847 43.485 46.7743 43.6514C47.0672 43.8145 47.2902 44.0009 47.4433 44.2106C47.5998 44.417 47.7213 44.5867 47.8078 44.7198H47.9077V40.9454H49.0859V51.1704H47.9476V49.9921H47.8078C47.7213 50.1319 47.5981 50.3083 47.4383 50.5214C47.2786 50.7311 47.0506 50.9191 46.7543 51.0855C46.4581 51.2486 46.0637 51.3302 45.5711 51.3302ZM45.7308 50.2717C46.2035 50.2717 46.6029 50.1486 46.9291 49.9023C47.2553 49.6526 47.5032 49.3081 47.673 48.8688C47.8427 48.4261 47.9276 47.9152 47.9276 47.336C47.9276 46.7635 47.8444 46.2626 47.678 45.8332C47.5116 45.4005 47.2653 45.0643 46.9391 44.8247C46.6129 44.5817 46.2101 44.4602 45.7308 44.4602C45.2316 44.4602 44.8155 44.5884 44.4827 44.8447C44.1531 45.0976 43.9052 45.4421 43.7388 45.8781C43.5757 46.3108 43.4941 46.7968 43.4941 47.336C43.4941 47.8819 43.5773 48.3778 43.7437 48.8238C43.9135 49.2665 44.1631 49.6193 44.4926 49.8823C44.8255 50.1419 45.2382 50.2717 45.7308 50.2717ZM54.6228 51.3302C53.8839 51.3302 53.2465 51.1671 52.7106 50.8409C52.1781 50.5114 51.767 50.052 51.4774 49.4629C51.1912 48.8704 51.0481 48.1814 51.0481 47.3959C51.0481 46.6104 51.1912 45.9181 51.4774 45.319C51.767 44.7165 52.1698 44.2472 52.6857 43.911C53.2049 43.5715 53.8107 43.4018 54.503 43.4018C54.9024 43.4018 55.2968 43.4683 55.6863 43.6015C56.0757 43.7346 56.4302 43.951 56.7497 44.2505C57.0693 44.5468 57.3239 44.9395 57.5136 45.4288C57.7033 45.9181 57.7982 46.5205 57.7982 47.2362V47.7354H51.8868V46.7169H56.5999C56.5999 46.2842 56.5134 45.8981 56.3403 45.5586C56.1706 45.2191 55.9276 44.9512 55.6114 44.7548C55.2985 44.5584 54.9291 44.4602 54.503 44.4602C54.0337 44.4602 53.6276 44.5767 53.2848 44.8097C52.9453 45.0394 52.684 45.3389 52.5009 45.7084C52.3179 46.0779 52.2263 46.4739 52.2263 46.8967V47.5757C52.2263 48.1548 52.3262 48.6458 52.5259 49.0485C52.7289 49.4479 53.0102 49.7525 53.3697 49.9622C53.7291 50.1685 54.1469 50.2717 54.6228 50.2717C54.9324 50.2717 55.212 50.2285 55.4616 50.1419C55.7146 50.052 55.9326 49.9189 56.1157 49.7425C56.2987 49.5628 56.4402 49.3398 56.54 49.0735L57.6784 49.393C57.5585 49.7791 57.3572 50.1186 57.0743 50.4115C56.7913 50.7011 56.4418 50.9274 56.0258 51.0905C55.6097 51.2503 55.1421 51.3302 54.6228 51.3302ZM59.5906 51.1704V43.5016H60.7289V44.6599H60.8088C60.9486 44.2805 61.2016 43.9726 61.5677 43.7363C61.9338 43.5 62.3465 43.3818 62.8059 43.3818C62.8924 43.3818 63.0006 43.3835 63.1304 43.3868C63.2602 43.3901 63.3584 43.3951 63.425 43.4018V44.6C63.385 44.59 63.2935 44.5751 63.1504 44.5551C63.0106 44.5318 62.8625 44.5201 62.706 44.5201C62.3332 44.5201 62.0004 44.5984 61.7075 44.7548C61.4179 44.9079 61.1882 45.1209 61.0185 45.3939C60.8521 45.6635 60.7689 45.9713 60.7689 46.3175V51.1704H59.5906Z" fill="#A3A3A3"/>
<defs>
<clipPath id="clip0_365_978">
<rect width="33.5864" height="33.5864" fill="white" transform="translate(17.4583 0.571289)"/>
</clipPath>
</defs>
</svg>
