<?xml version="1.0" encoding="UTF-8"?>
<svg xmlns="http://www.w3.org/2000/svg" viewBox="0 0 397.76 406.94">
  <defs>
    <style>
      .cls-1 {
        fill: #263238;
      }

      .cls-1, .cls-2, .cls-3, .cls-4, .cls-5, .cls-6, .cls-7, .cls-8, .cls-9, .cls-10, .cls-11 {
        stroke-width: 0px;
      }

      .cls-2 {
        fill: #455a64;
      }

      .cls-3 {
        fill: #000;
      }

      .cls-4 {
        fill: #eb996e;
      }

      .cls-5 {
        fill: #ffbe9d;
      }

      .cls-6 {
        fill: #f5f5f5;
      }

      .cls-12 {
        opacity: .3;
      }

      .cls-7 {
        fill: #50c1ba;
      }

      .cls-8 {
        fill: #ebebeb;
      }

      .cls-9 {
        fill: #e0e0e0;
      }

      .cls-10 {
        fill: #fff;
      }

      .cls-11 {
        fill: #fafafa;
      }
    </style>
  </defs>
  <g id="Background_Complete" data-name="Background Complete">
    <g>
      <rect class="cls-8" x="343.29" y="196.37" width="38.37" height="56.93" transform="translate(20.58 479.89) rotate(-68.53)"/>
      <path class="cls-9" d="M395.99,217.9s-.23.11-.68.28c-.5.18-1.16.42-1.98.71-1.78.62-4.27,1.48-7.33,2.53-6.26,2.11-14.82,4.99-24.31,8.19l-.2.07-.11-.18c-.08-.14-.17-.29-.26-.44-5.03-8.79-9.58-16.75-12.91-22.57-1.61-2.86-2.92-5.2-3.86-6.87-.43-.78-.77-1.41-1.03-1.88-.23-.43-.34-.66-.33-.67.02,0,.16.21.42.62.28.46.65,1.07,1.11,1.83.97,1.65,2.33,3.96,4,6.79,3.36,5.8,7.96,13.73,13.04,22.49.09.15.17.3.26.44l-.31-.12c9.51-3.14,18.09-5.97,24.36-8.04,3.08-.99,5.59-1.8,7.38-2.38.84-.26,1.51-.46,2.01-.62.46-.14.71-.2.71-.18Z"/>
      <path class="cls-9" d="M328.96,232.78c-.07-.13,5.84-3.45,13.2-7.43,7.36-3.98,13.38-7.11,13.44-6.98.07.13-5.84,3.45-13.2,7.43-7.36,3.98-13.37,7.1-13.44,6.98Z"/>
      <path class="cls-9" d="M373.39,224.84c.14-.04,2.16,6.37,4.52,14.31,2.36,7.95,4.17,14.42,4.03,14.46-.14.04-2.16-6.37-4.53-14.31-2.36-7.94-4.17-14.42-4.03-14.46Z"/>
    </g>
    <g>
      <rect class="cls-8" x="122.54" y="357.54" width="56.93" height="38.37" transform="translate(-152.36 107.1) rotate(-26.53)"/>
      <path class="cls-9" d="M168.27,347.18s-.07.25-.25.69c-.2.49-.47,1.14-.8,1.95-.74,1.74-1.76,4.16-3.02,7.14-2.62,6.06-6.21,14.36-10.18,23.54l-.08.19-.21-.04c-.16-.03-.33-.07-.5-.11-9.9-2.15-18.86-4.09-25.41-5.51-3.2-.72-5.82-1.31-7.69-1.73-.87-.21-1.56-.37-2.08-.5-.48-.12-.72-.19-.72-.21,0-.02.26.02.74.11.53.1,1.23.23,2.1.4,1.88.38,4.5.91,7.72,1.57,6.56,1.38,15.53,3.27,25.44,5.37.17.04.34.07.5.11l-.29.15c4.03-9.16,7.67-17.44,10.32-23.48,1.32-2.95,2.4-5.36,3.17-7.08.37-.79.66-1.43.89-1.91.21-.43.32-.66.34-.65Z"/>
      <path class="cls-9" d="M134.47,406.94c-.14-.03,1.34-6.65,3.31-14.78,1.97-8.13,3.67-14.69,3.81-14.66.14.03-1.34,6.65-3.31,14.78-1.97,8.13-3.67,14.69-3.81,14.66Z"/>
      <path class="cls-9" d="M158.31,368.62c.06-.13,6.18,2.65,13.66,6.21,7.49,3.56,13.5,6.55,13.44,6.68-.06.13-6.18-2.65-13.66-6.21-7.48-3.56-13.5-6.55-13.44-6.68Z"/>
    </g>
    <g>
      <path class="cls-8" d="M84.24,217.98c19.36-12.92,24.08-37.36,23.67-59.41-.07-3.68.4-7.55-1.32-10.8-1.72-3.25-5.82-5.52-9.18-4.02-2.79,1.24-4.04,4.4-5.63,7.01-2.11,3.46-5.23,6.31-8.87,8.11-2.39,1.18-5.34,1.88-7.66.57-3.19-1.8-3.5-6.19-3.42-9.84.15-6.82.3-13.63.45-20.45.08-3.66.15-7.39-.95-10.88-1.1-3.49-3.59-6.75-7.1-7.78-3.51-1.03-7.9.91-8.7,4.48-.33,1.49-.05,3.04-.18,4.55-.13,1.52-.87,3.19-2.34,3.59-1.48.41-2.95-.65-4.04-1.74-3.77-3.75-6.29-8.55-8.64-13.31-2.35-4.77-4.63-9.64-8.04-13.73-3.41-4.08-8.16-7.34-13.46-7.72-5.3-.38-11.01,2.77-12.43,7.9-1.43,5.14,1.54,10.41,4.79,14.64,4.82,6.27,10.56,11.83,16.97,16.46,1.16.84,2.41,1.74,2.83,3.1.77,2.45-1.61,4.84-4.06,5.6-2.78.87-5.77.54-8.66.83-2.9.29-6.05,1.5-7.18,4.18-1.58,3.72,1.53,7.68,4.61,10.3,6.16,5.23,13.23,9.4,20.79,12.26,2.71,1.03,5.57,1.93,7.73,3.86,2.17,1.92,3.44,5.23,2.08,7.79-1.37,2.56-4.79,3.33-7.64,2.77-2.85-.56-5.38-2.13-8.09-3.19-5.06-1.97-11.65-1.72-14.98,2.57-2.19,2.82-2.44,6.8-1.41,10.22,1.03,3.42,3.18,6.38,5.48,9.12,8.02,9.57,18.35,17.34,30.1,21.56,11.75,4.22,22.68,5.48,34.49,1.42"/>
      <path class="cls-9" d="M78.63,204.1c-3.11-11.16-7.56-23.12-12.64-35.47-1.28-3.08-2.55-6.13-3.8-9.13-1.25-3-2.49-5.96-3.89-8.79-2.77-5.67-5.86-10.92-8.96-15.81-3.1-4.89-6.22-9.42-9.17-13.64-2.96-4.21-5.79-8.09-8.52-11.51-5.45-6.87-10.49-11.89-14.1-15.19-1.8-1.66-3.24-2.9-4.22-3.74-.48-.4-.85-.71-1.13-.94-.26-.21-.4-.31-.4-.31,0,0,.11.12.36.35.26.24.63.56,1.09.98.96.86,2.37,2.13,4.15,3.81,3.56,3.35,8.55,8.4,13.94,15.28,2.71,3.43,5.52,7.31,8.46,11.53,2.93,4.23,6.03,8.76,9.11,13.65,3.08,4.89,6.16,10.12,8.91,15.77,1.39,2.82,2.62,5.77,3.87,8.77,1.25,3,2.51,6.05,3.79,9.13,5.08,12.35,9.52,24.27,12.66,35.4"/>
      <path class="cls-9" d="M58.18,150.64s.16-.55.36-1.56c.2-1.01.45-2.48.73-4.29.57-3.64,1.19-8.68,1.86-14.25.67-5.57,1.38-10.59,2.03-14.21.32-1.81.59-3.27.8-4.28.2-1.01.29-1.57.25-1.58-.04,0-.2.54-.46,1.53-.27.99-.6,2.45-.97,4.25-.75,3.61-1.52,8.64-2.19,14.21-.66,5.52-1.25,10.51-1.7,14.26-.23,1.74-.42,3.2-.56,4.32-.13,1.02-.19,1.59-.15,1.59Z"/>
      <path class="cls-9" d="M10.67,141.14s.17.05.49.09c.39.04.85.09,1.41.14,1.22.12,2.99.28,5.17.56,4.36.52,10.35,1.45,16.92,2.77,6.57,1.34,12.46,2.8,16.68,3.99,2.12.58,3.82,1.1,4.99,1.45.54.16.99.29,1.36.4.31.09.48.12.49.1,0-.02-.15-.09-.45-.21-.36-.14-.8-.3-1.33-.5-1.16-.42-2.84-.99-4.95-1.62-4.21-1.29-10.1-2.81-16.68-4.15-6.58-1.33-12.61-2.2-16.99-2.62-2.19-.23-3.97-.34-5.2-.39-.56-.02-1.03-.03-1.42-.04-.32,0-.5,0-.5.02Z"/>
      <path class="cls-9" d="M78.12,203.21s.13-.19.32-.57c.22-.44.49-1,.83-1.69.72-1.47,1.7-3.63,2.89-6.31,2.37-5.36,5.42-12.85,8.68-21.17,3.26-8.32,6.25-15.83,8.52-21.22,1.13-2.64,2.05-4.8,2.72-6.37.3-.71.54-1.28.74-1.74.16-.4.24-.61.22-.62-.02,0-.13.19-.32.57-.22.44-.49,1-.83,1.69-.72,1.47-1.7,3.63-2.88,6.31-2.37,5.36-5.42,12.85-8.68,21.18-3.26,8.32-6.25,15.83-8.52,21.22-1.13,2.64-2.05,4.8-2.72,6.37-.3.71-.55,1.28-.74,1.74-.16.4-.24.61-.22.62Z"/>
      <path class="cls-9" d="M15.12,182.12s.21.1.63.25c.47.16,1.08.37,1.83.62,1.66.55,3.95,1.32,6.75,2.25,5.7,1.91,13.54,4.64,22.19,7.68,8.66,3.04,16.52,5.71,22.26,7.53,2.87.91,5.19,1.62,6.81,2.08.76.22,1.38.39,1.86.53.43.11.66.16.66.15,0-.02-.21-.1-.63-.25-.47-.16-1.08-.37-1.83-.62-1.66-.55-3.95-1.32-6.75-2.25-5.7-1.91-13.54-4.64-22.2-7.68-8.65-3.04-16.52-5.71-22.25-7.53-2.87-.91-5.19-1.62-6.81-2.08-.76-.22-1.38-.39-1.86-.53-.43-.11-.66-.16-.66-.15Z"/>
    </g>
    <g>
      <rect class="cls-9" x="21.72" width="70.5" height="41.95" rx="7.04" ry="7.04"/>
      <polyline class="cls-9" points="64.61 40.61 81.28 55.42 82.65 40.88"/>
      <path class="cls-10" d="M47.8,21.57c0,2.27-1.84,4.11-4.1,4.11s-4.1-1.84-4.1-4.11,1.84-4.11,4.1-4.11,4.1,1.84,4.1,4.11Z"/>
      <path class="cls-10" d="M61.93,21.57c0,2.27-1.84,4.11-4.1,4.11s-4.1-1.84-4.1-4.11,1.84-4.11,4.1-4.11,4.1,1.84,4.1,4.11Z"/>
      <path class="cls-10" d="M76.06,21.57c0,2.27-1.84,4.11-4.11,4.11s-4.1-1.84-4.1-4.11,1.84-4.11,4.1-4.11,4.11,1.84,4.11,4.11Z"/>
    </g>
    <g>
      <rect class="cls-8" x="289.65" y="44.78" width="38.37" height="56.93" transform="translate(127.66 333.86) rotate(-68.53)"/>
      <path class="cls-9" d="M342.35,66.3s-.23.11-.68.28c-.5.18-1.16.42-1.98.71-1.78.62-4.27,1.48-7.33,2.53-6.26,2.11-14.82,4.99-24.31,8.19l-.2.07-.11-.18c-.08-.14-.17-.29-.26-.44-5.03-8.79-9.58-16.75-12.91-22.57-1.61-2.86-2.92-5.2-3.86-6.87-.43-.78-.77-1.41-1.03-1.88-.23-.43-.34-.66-.33-.67.02,0,.16.21.42.62.28.46.65,1.07,1.11,1.83.97,1.65,2.33,3.96,4,6.79,3.36,5.8,7.96,13.73,13.04,22.49.09.15.17.3.26.44l-.31-.12c9.51-3.14,18.09-5.97,24.36-8.04,3.08-.99,5.59-1.8,7.38-2.38.84-.26,1.51-.46,2.01-.62.46-.14.71-.2.71-.18Z"/>
      <path class="cls-9" d="M275.32,81.18c-.07-.13,5.84-3.45,13.2-7.43,7.36-3.98,13.38-7.11,13.44-6.98.07.13-5.84,3.45-13.2,7.43-7.36,3.98-13.37,7.1-13.44,6.98Z"/>
      <path class="cls-9" d="M319.75,73.24c.14-.04,2.16,6.37,4.52,14.31,2.36,7.95,4.17,14.42,4.03,14.46-.14.04-2.16-6.37-4.53-14.31-2.36-7.94-4.17-14.42-4.03-14.46Z"/>
    </g>
  </g>
  <g id="Speech_bubbles" data-name="Speech bubbles">
    <g>
      <circle class="cls-7" cx="211.27" cy="201.41" r="12.9"/>
      <circle class="cls-7" cx="255.67" cy="201.41" r="12.9"/>
      <path class="cls-7" d="M341.53,134.67s.25-.04.76-.05c.5-.02,1.26.05,2.23.25.98.18,2.17.6,3.47,1.3,1.29.72,2.68,1.79,3.88,3.34,1.2,1.54,2.2,3.57,2.55,5.97.13.59.11,1.22.16,1.85,0,.61.01,1.24.02,1.88.01,1.28.02,2.61.04,4,.04,5.54.09,11.92.14,19.08.07,14.31.16,31.71.26,51.74.02,5.01.04,10.18.06,15.5,0,2.66.02,5.37.03,8.11,0,1.37,0,2.75.01,4.14,0,.69,0,1.39,0,2.09-.03.75-.05,1.51-.19,2.26-.47,3-2.01,5.87-4.36,7.94-2.32,2.08-5.41,3.4-8.62,3.46-5.93.02-12.01.04-18.22.07l1.08-.98c-1.18,12.81-2.42,26.33-3.72,40.38l-.2,2.19-1.7-1.4c-15.37-12.67-31.81-26.21-48.91-40.3l.8.29c-31.39.02-65.23.03-100.22.05-6.36,0-12.67,0-18.95,0-1.57,0-3.14,0-4.7,0-.8,0-1.53.02-2.38-.02-.86-.02-1.71-.13-2.56-.3-3.38-.7-6.41-2.75-8.39-5.53-.99-1.39-1.72-2.96-2.14-4.6-.45-1.62-.48-3.44-.45-4.9,0-3.07,0-6.13,0-9.18,0-6.1,0-12.14.01-18.13.03-23.97.05-47.1.08-69.12,0-2.75,0-5.49.01-8.21,0-1.38.1-2.95.55-4.34.42-1.42,1.05-2.76,1.87-3.98,1.68-2.4,4.08-4.29,6.83-5.21,1.37-.46,2.8-.76,4.23-.76,1.37-.03,2.64,0,3.95,0,10.43.02,20.56.04,30.36.07,19.59.06,37.84.11,54.49.16,33.31.17,60.27.32,78.91.41,9.31.11,16.54.19,21.45.24,2.45.06,4.32.1,5.58.13,1.26.04,1.9.09,1.9.13s-.64.09-1.9.13c-1.26.03-3.13.07-5.58.13-4.91.06-12.14.14-21.45.24-18.64.1-45.59.24-78.91.41-16.66.05-34.9.1-54.49.16-9.79.02-19.92.04-30.36.07-1.29,0-2.64,0-3.9.02-1.2,0-2.38.27-3.52.65-2.28.77-4.27,2.36-5.66,4.35-1.37,2.04-2.07,4.42-1.99,6.99,0,2.72,0,5.45.01,8.21.02,22.03.05,45.15.08,69.12,0,5.99,0,12.04.01,18.13,0,3.05,0,6.11,0,9.18-.02,1.6.01,2.89.37,4.26.34,1.34.94,2.61,1.75,3.74,1.61,2.26,4.08,3.93,6.82,4.49.69.13,1.38.23,2.08.24.71.03,1.54,0,2.31.02,1.56,0,3.13,0,4.7,0,6.28,0,12.6,0,18.95,0,34.99.02,68.83.03,100.22.05h.45s.35.29.35.29c17.06,14.14,33.46,27.73,48.8,40.44l-1.9.79c1.35-14.04,2.65-27.56,3.88-40.36l.09-.98h.98c6.19.01,12.24.02,18.15.03,2.73-.04,5.36-1.15,7.34-2.9,2.01-1.75,3.34-4.19,3.76-6.75.13-.64.14-1.29.18-1.93,0-.7,0-1.4,0-2.09,0-1.39,0-2.77.01-4.14,0-2.74.02-5.44.03-8.11.02-5.33.04-10.5.06-15.5.1-20.03.18-37.43.26-51.74.05-7.15.1-13.53.14-19.08.01-1.39.03-2.72.04-4,0-.64.01-1.27.02-1.88-.04-.59,0-1.18-.11-1.74-.28-2.26-1.17-4.2-2.27-5.69-1.1-1.5-2.39-2.58-3.61-3.31-1.23-.72-2.35-1.18-3.3-1.41-1.88-.48-2.92-.43-2.91-.52Z"/>
      <g>
        <rect class="cls-7" x="50.63" y="198.87" width="221.56" height="131.85" rx="13.39" ry="13.39"/>
        <polyline class="cls-7" points="185.41 326.51 237.79 373.02 242.09 327.33"/>
        <circle class="cls-10" cx="119.69" cy="266.66" r="12.9"/>
        <circle class="cls-10" cx="164.09" cy="266.66" r="12.9"/>
        <circle class="cls-10" cx="208.49" cy="266.66" r="12.9"/>
      </g>
      <g class="cls-12">
        <path class="cls-3" d="M263.93,199.44l-20.83-.61-161.02.04c13.38,13.3,32.51,20.43,51.31,22.07,18.8,1.64,37.68-1.22,56.27-4.44,18.59-3.22,37.26-6.82,56.13-6.68,3.98.03,8.1.2,11.8-1.27,3.7-1.48,6.88-5.15,6.34-9.1Z"/>
      </g>
      <circle class="cls-7" cx="300.07" cy="201.41" r="12.9"/>
    </g>
  </g>
  <g id="Character">
    <g>
      <path class="cls-1" d="M188.9,11.74c-10.36-.07-20.31,7.39-23.15,17.35-1.46,5.13-1.18,10.59-2.11,15.85-.93,5.25-3.59,10.77-8.58,12.66-3.25,1.23-6.97.72-10.2,2.01-3,1.2-5.31,3.99-5.92,7.16s.49,6.62,2.83,8.85c-3.91,3.38-4.99,9.6-2.45,14.09,2.54,4.5,8.43,6.78,13.34,5.17-1.85,2.94-1.24,7.02.93,9.74,2.17,2.72,5.62,4.18,9.08,4.58,3.46.39,6.95-.18,10.34-.93,7.57-1.68,15.18-4.38,20.88-9.64,6.25-5.78,9.56-14.04,12.07-22.18,4.79-15.55,7.34-32.3,3.42-48.09"/>
      <g>
        <g>
          <path class="cls-5" d="M154.04,98.42l-8.42,18.43-18.45-40.69c-.87-3.29-1.84-7-2.04-7.74-.31-1.13-.4-2.31-.31-3.48.11-1.42.34-3.3.78-4.29.55-1.23-.68-2.48-1.74-1.88-1.06.6-2.65,3.94-2.6,8.27.05,4.32-14.82-5.93-17.24-3.5l1.8,14.3c1.63,1.49,6.23,5.6,8.79,7.87l17.4,43.3c1.63,4.45,5.29,7.85,9.84,9.17,6.61,1.9,13.66-.97,17.05-6.96l11.21-19.77-16.06-13.03Z"/>
          <g>
            <path class="cls-1" d="M114.96,50.43c.29-.11.61.06.72.39l9.57,28.4c.18.53-.02,1.13-.45,1.38l-11.37,6.38c-.47.26-1.03.01-1.24-.55l-10.76-29.45c-.21-.58.04-1.24.55-1.45l12.98-5.12Z"/>
            <polygon class="cls-6" points="115.27 52.48 124.07 77.83 112.81 83.82 103.14 57.3 115.27 52.48"/>
          </g>
          <path class="cls-9" d="M105.3,59.02c.34.86.9,2.26,1.25,3.13.17.43.66.63,1.08.45l5.97-2.51,2.07.3-.58-1.1.68-.27c.43-.17.63-.66.45-1.09l-1.22-2.85c-.18-.41-.65-.61-1.07-.44l-8.18,3.3c-.42.17-.62.65-.46,1.07Z"/>
          <path class="cls-9" d="M110.4,73.99c.34.86.9,2.26,1.25,3.13.17.43.66.63,1.08.45l5.97-2.51,2.07.3-.58-1.1.68-.27c.43-.17.63-.66.45-1.09l-1.22-2.85c-.18-.41-.65-.61-1.07-.44l-8.18,3.3c-.42.17-.62.65-.46,1.07Z"/>
          <path class="cls-9" d="M117.33,62.56c.38.85.98,2.23,1.36,3.09.18.42-.01.91-.44,1.09l-5.98,2.5-1.23,1.69-.38-1.18-.67.29c-.42.19-.92-.01-1.09-.44l-1.17-2.87c-.17-.41.02-.89.43-1.07l8.09-3.52c.42-.18.9,0,1.08.42Z"/>
        </g>
        <path class="cls-5" d="M104.01,64.25c1.94.32,4.3.51,6.24.83.55.09,1.12.19,1.57.52.44.33.71.98.44,1.46-.31.55-1.07.6-1.7.58-1.42-.05-3,.25-4.42.21,1.82.16,3.5.31,5.53.55.84.1,1.7.81,1.71,1.65.01.73-.69,1.31-1.41,1.42-.72.11-2.24.03-2.24.03,0,0-2.93.04-3.05.42,1.83-.01,4.24.38,6.06.54.5.04.73.73.85,1.21.12.49-.07,1.08-.53,1.28-.22.1-.48.09-.72.08-2.36-.07-3.6.08-5.96,0"/>
        <path class="cls-4" d="M147.91,129.98c-.17-.02.51-3.11-.23-6.85-.69-3.75-2.47-6.37-2.32-6.45.05-.03.56.57,1.17,1.68.61,1.11,1.29,2.76,1.66,4.67.36,1.91.35,3.69.19,4.95-.16,1.26-.41,2.01-.46,2Z"/>
        <path class="cls-4" d="M113.17,72.74c-.02.14-1.87.04-4.13-.22-1.13-.11-2.17-.34-2.86-.34-.71,0-1.02.36-1.08.31-.02-.02.01-.14.18-.3.16-.16.48-.32.88-.37.81-.1,1.81.08,2.95.19,2.27.26,4.09.6,4.07.74Z"/>
        <path class="cls-4" d="M112.51,68.59c-.02.14-1.85.05-4.09-.21-1.12-.1-2.15-.35-2.82-.32-.69.02-.99.41-1.06.35-.07,0,.18-.58,1.01-.72.39-.08.87-.04,1.34,0,.53.05,1.04.11,1.58.16,2.24.26,4.04.59,4.02.73Z"/>
      </g>
      <g>
        <g>
          <path class="cls-1" d="M169.58,154.25s-60.86-4.59-78.47,9.19c-17.61,13.78-9.19,35.98-9.19,35.98h99.52l3.83-45.9-15.69.73Z"/>
          <path class="cls-2" d="M181.02,185.87s-.31,0-.89-.07c-.58-.06-1.44-.15-2.53-.3-2.2-.28-5.37-.73-9.28-1.39-7.81-1.31-18.55-3.57-30.16-6.98-5.8-1.72-11.29-3.45-16.36-4.71-5.08-1.23-9.73-2.02-13.68-2.18-3.94-.17-7.14.12-9.31.54-1.1.14-1.92.41-2.49.51-.57.12-.87.18-.88.16,0-.02.29-.11.85-.27.57-.13,1.38-.44,2.48-.61,2.17-.49,5.39-.83,9.36-.71,3.98.11,8.67.87,13.78,2.08,5.1,1.23,10.61,2.96,16.4,4.67,11.59,3.4,22.29,5.71,30.08,7.11,3.89.71,7.06,1.22,9.25,1.55,1.06.17,1.9.3,2.52.39.58.09.88.15.87.17Z"/>
          <path class="cls-2" d="M123.58,172.16c-.12.12-2.18-2.13-5.47-3.83-3.27-1.73-6.29-2.15-6.26-2.32,0-.06.77-.04,1.98.21,1.21.25,2.85.77,4.52,1.64,1.67.88,3.03,1.93,3.92,2.78.89.85,1.35,1.47,1.3,1.51Z"/>
        </g>
        <g>
          <path class="cls-1" d="M213.63,148.52s-55.67,1.51-73.28,15.29c-17.61,13.78-9.19,35.98-9.19,35.98l104.4,1.62v-13.46l-13.54-1.47-.1-.61c5.26-5.75,1.26-25.79-7.49-36.37l-.81-.98Z"/>
          <path class="cls-2" d="M229.26,187.35s-.31,0-.89-.07c-.58-.06-1.44-.15-2.53-.3-2.2-.28-5.37-.73-9.28-1.39-7.81-1.31-18.55-3.57-30.16-6.98-5.8-1.72-11.29-3.45-16.36-4.71-5.08-1.23-9.73-2.02-13.68-2.18-3.94-.17-7.14.12-9.31.54-1.1.14-1.92.41-2.49.51-.57.12-.87.18-.88.16,0-.02.29-.11.85-.27.57-.13,1.38-.44,2.48-.61,2.17-.49,5.39-.83,9.36-.71,3.98.11,8.67.87,13.78,2.08,5.1,1.23,10.61,2.96,16.4,4.67,11.59,3.4,22.29,5.71,30.08,7.11,3.89.71,7.06,1.22,9.25,1.55,1.06.17,1.9.3,2.52.39.58.09.88.15.87.17Z"/>
          <path class="cls-2" d="M171.81,173.63c-.12.12-2.18-2.13-5.47-3.83-3.27-1.73-6.29-2.15-6.26-2.32,0-.06.77-.04,1.98.21,1.21.25,2.85.77,4.52,1.64,1.67.88,3.03,1.93,3.92,2.78.89.85,1.35,1.47,1.3,1.51Z"/>
        </g>
        <path class="cls-2" d="M184.84,150.84s-.3.07-.86.14c-.61.09-1.44.2-2.47.35-2.15.32-5.24.84-9.05,1.61-3.8.76-8.32,1.74-13.31,2.93-4.96,1.21-10.34,3.08-15.37,6.15-2.52,1.53-4.8,3.31-6.7,5.32-1.91,2.01-3.43,4.24-4.62,6.48-2.37,4.52-3.24,9.16-3.25,13.01-.04,3.87.69,6.96,1.32,9.02.32,1.03.62,1.82.83,2.35.21.53.32.81.3.82-.02,0-.15-.26-.4-.78-.24-.52-.57-1.3-.92-2.33-.69-2.06-1.48-5.16-1.5-9.08-.04-3.89.8-8.62,3.19-13.23,1.2-2.29,2.74-4.56,4.68-6.61,1.93-2.06,4.25-3.87,6.8-5.42,5.1-3.11,10.53-4.98,15.53-6.17,5-1.17,9.53-2.11,13.35-2.83,3.82-.72,6.93-1.18,9.09-1.44,1.08-.13,1.92-.21,2.49-.25.57-.04.87-.06.87-.04Z"/>
      </g>
      <g>
        <path class="cls-9" d="M235.56,188.61l9.53-.6,6.3,3.67,12.09,1.32c5.79.3,6.71,6.53,3.15,6.53-2.83,0-19.76,1.1-19.76,1.1l-11.32.3v-12.32Z"/>
        <path class="cls-2" d="M251.04,191.7c.03.05-.48.43-1.46.68-.97.26-2.43.33-3.9-.24-1.46-.57-2.5-1.61-3.04-2.45-.55-.85-.68-1.47-.63-1.49.08-.03.33.53.92,1.27.59.74,1.59,1.66,2.93,2.18,1.35.52,2.7.52,3.64.36.94-.15,1.5-.4,1.54-.32Z"/>
        <path class="cls-2" d="M266.15,199.41c.01.06-.48.19-1.17-.17-.69-.33-1.35-1.25-1.6-2.33-.3-1.07-.15-2.18.25-2.82.38-.65.84-.85.87-.79.05.06-.29.35-.54.96-.27.6-.34,1.53-.07,2.52.24,1,.74,1.78,1.28,2.15.53.38.98.4.97.49Z"/>
      </g>
      <g>
        <path class="cls-7" d="M172.4,72.76s-11.87,26.09-11.17,30.52c.7,4.43,4.13,22.1,4.13,22.1l2.51,28.76s44.83-5.44,45.76-5.44-1.4-23.79-1.4-23.79l6.83-45.72s-3.13-6.23-17.25-8.38c-8.48-1.3-29.41,1.96-29.41,1.96Z"/>
        <path class="cls-7" d="M205.13,107.92c.54,3.85,1.56,8.41,4.23,13.28.85,1.56,1.66,3.73,3.08,4.8,2.22,1.67,5.41.09,7.43-1.82,2.02-1.91,4.04-4.33,6.82-4.43,1.77-.06,3.4.86,5.13,1.22,1.73.36,3.97-.19,4.38-1.91.23-.99-.24-1.99-.69-2.9-4.32-8.75-7.41-17.02-9.68-26.51-.45-1.9-2.55-5.79-3.51-7.48-.96-1.69-3.58-4.14-6.13-6.2"/>
        <path class="cls-7" d="M180.82,71.03c-12.33.44-21.58,8.59-24.22,14.47-3.09,6.9-5.49,15.24-9.11,21.88-.71,1.3-1.56,2.57-1.87,4.03-.31,1.45.08,3.19,1.36,3.94,1.86,1.1,4.55-.33,6.27.98.94.72,1.22,2.03,2.03,2.9.99,1.07,2.57,1.29,4.02,1.45,2.78.3,5.56.6,8.33.9"/>
        <path class="cls-1" d="M202.4,96.49s-.22-.33-.48-.99c-.26-.66-.56-1.65-.74-2.91-.38-2.49-.11-6.22,1.91-9.61,2.03-3.39,5.18-5.39,7.56-6.23,1.2-.44,2.21-.65,2.91-.73.7-.08,1.1-.08,1.1-.05.02.11-1.57.17-3.88,1.12-2.29.91-5.29,2.9-7.25,6.16-1.94,3.27-2.27,6.85-1.99,9.3.27,2.48.96,3.91.86,3.94Z"/>
        <path class="cls-1" d="M168.47,86.27s-.2.48-.64,1.3c-.23.41-.49.91-.77,1.51-.28.6-.63,1.26-.94,2.03-.67,1.52-1.34,3.38-1.95,5.48-.58,2.11-1.08,4.47-1.37,6.98-.27,2.51-.31,4.93-.22,7.12.13,2.19.36,4.15.68,5.78.12.82.32,1.55.46,2.19.13.65.28,1.19.41,1.64.25.9.37,1.4.33,1.41s-.22-.47-.53-1.35c-.16-.44-.34-.98-.5-1.63-.17-.64-.39-1.37-.54-2.19-.37-1.63-.64-3.61-.8-5.83-.12-2.21-.09-4.66.18-7.2.3-2.54.82-4.93,1.43-7.06.64-2.12,1.35-3.99,2.08-5.5.33-.77.71-1.43,1.01-2.02.3-.59.6-1.08.85-1.48.5-.79.78-1.22.81-1.2Z"/>
        <path class="cls-11" d="M235.47,115.53s-.02.11-.1.29c-.1.17-.26.44-.57.68-.6.5-1.76.87-3.14.7-1.4-.16-2.85-.96-4.54-1.29-1.7-.38-3.57.4-5.13,1.66-1.57,1.25-2.85,2.78-4.36,3.81-.74.52-1.53.94-2.34,1.11-.8.17-1.56.18-2.24.13-1.37-.1-2.45-.49-3.08-.93-.32-.22-.53-.44-.65-.6-.11-.17-.16-.26-.15-.27.04-.03.26.34.9.7.63.36,1.68.69,3,.73.66.02,1.38-.02,2.13-.19.73-.17,1.46-.58,2.16-1.08,1.43-1,2.68-2.52,4.31-3.83.82-.65,1.71-1.2,2.66-1.52.95-.34,1.97-.39,2.87-.2,1.8.39,3.2,1.22,4.5,1.4,1.29.2,2.38-.09,2.96-.5.6-.42.75-.84.8-.81Z"/>
        <path class="cls-11" d="M232.61,109.68s0,.1-.06.28c-.07.17-.22.43-.5.67-.54.49-1.64.87-2.92.61-1.27-.22-2.6-1.05-4.18-1.13-1.59-.08-3.31.6-4.85,1.64-1.56,1.04-2.9,2.29-4.29,3.22-1.37.96-2.83,1.56-4.1,1.7-1.28.16-2.33-.07-2.97-.38-.65-.31-.92-.61-.9-.62.03-.04.34.2.98.44.64.24,1.64.41,2.84.21,1.21-.18,2.56-.78,3.88-1.73,1.34-.93,2.66-2.18,4.27-3.26,1.6-1.07,3.43-1.8,5.17-1.68.87.04,1.65.33,2.33.59.69.27,1.31.52,1.9.66,1.17.28,2.19-.01,2.72-.41.54-.4.64-.82.69-.79Z"/>
        <path class="cls-11" d="M162.55,117.29s-.19.26-.72.38c-.52.12-1.37.03-2.14-.58-.78-.59-1.33-1.62-1.86-2.69-.54-1.04-1.25-2.23-2.54-2.55-1.28-.33-2.59,0-3.78.2-1.19.21-2.38.26-3.28-.15-.89-.39-1.41-1.04-1.59-1.55-.19-.51-.09-.82-.07-.81.05,0,.03.29.26.73.21.43.72.98,1.54,1.29.81.32,1.89.25,3.06.02,1.16-.21,2.53-.6,4-.23.73.19,1.37.64,1.81,1.17.45.53.76,1.11,1.03,1.66.52,1.09,1,2.05,1.67,2.62.66.57,1.41.71,1.88.66.49-.05.73-.23.75-.18Z"/>
        <path class="cls-11" d="M161.03,111.41s-.21.11-.6,0c-.38-.11-.86-.48-1.24-1.06-.38-.55-.68-1.33-1.35-1.74-.66-.43-1.63-.34-2.61-.18-.99.18-2.04.22-2.92-.01-.89-.21-1.63-.58-2.19-.98-1.12-.8-1.5-1.59-1.46-1.61.07-.06.55.63,1.66,1.3,1.09.69,2.86,1.22,4.83.78.98-.15,2.09-.28,2.95.29.83.58,1.07,1.42,1.4,1.96.31.55.69.91,1.01,1.06.31.16.52.15.53.19Z"/>
        <path class="cls-11" d="M208.03,116.56s-.63-.12-1.76-.39c-1.13-.26-2.77-.65-4.8-1.02-1.02-.19-2.14-.38-3.34-.52-1.2-.13-2.51-.28-3.84-.15-1.33.14-2.67.65-3.99,1.31-1.32.66-2.65,1.47-4.09,2.17-1.44.7-2.97,1.23-4.51,1.31-1.53.09-3-.16-4.34-.48-2.69-.67-5.01-1.52-7.06-1.72-2.04-.25-3.72.03-4.78.45-1.06.43-1.55.87-1.59.82-.01-.01.11-.12.35-.32.24-.19.63-.44,1.16-.69,1.07-.49,2.8-.84,4.9-.63,2.11.15,4.49.99,7.13,1.62,1.32.3,2.74.53,4.2.44,1.46-.08,2.91-.58,4.32-1.27,1.41-.69,2.74-1.49,4.09-2.16,1.35-.66,2.75-1.2,4.17-1.33,1.41-.12,2.72.05,3.94.2,1.22.16,2.34.38,3.36.59,2.04.42,3.67.86,4.79,1.19.56.16.99.3,1.28.4.29.1.44.16.43.18Z"/>
        <path class="cls-11" d="M209.05,121.58s-.6-.24-1.66-.69c-1.07-.44-2.61-1.08-4.58-1.68-.98-.3-2.08-.59-3.26-.73-1.18-.12-2.45.04-3.72.48-2.55.87-4.97,2.75-7.96,3.92-1.5.59-3.09.82-4.6.8-1.51-.02-2.95-.23-4.3-.47-2.7-.51-5.09-1.04-7.14-1.1-2.05-.1-3.7.22-4.77.61-1.08.39-1.61.76-1.64.71,0-.02.12-.11.37-.28.25-.17.65-.4,1.19-.62,1.07-.46,2.76-.84,4.86-.79,2.09.02,4.54.52,7.22,1,2.66.45,5.73.81,8.64-.35,2.89-1.13,5.34-3,7.99-3.89,1.32-.44,2.68-.61,3.92-.46,1.23.17,2.33.49,3.32.81,1.97.65,3.51,1.34,4.55,1.84.52.25.92.46,1.19.61.26.15.4.24.39.26Z"/>
        <path class="cls-1" d="M195.7,119.8s-.25.08-.73.12c-.47.05-1.16.04-2-.05-.85-.08-1.84-.32-2.9-.69-1.05-.4-2.17-.94-3.24-1.68-1.06-.75-1.97-1.61-2.71-2.46-.72-.87-1.28-1.72-1.66-2.48-.38-.76-.63-1.4-.75-1.86-.12-.46-.18-.71-.14-.72.09-.03.39.97,1.21,2.4.4.72.98,1.52,1.69,2.34.73.8,1.61,1.62,2.64,2.34,1.04.71,2.11,1.25,3.12,1.66,1.02.38,1.97.64,2.78.77,1.63.27,2.67.2,2.67.3Z"/>
        <g class="cls-12">
          <path class="cls-3" d="M181.61,111.06c.68,3.72,2.1,7.43,4.82,10.07,2.71,2.63,6.89,3.97,10.42,2.59.74-.29,1.51-.78,1.68-1.55.2-.9-.51-1.78-1.36-2.14-.85-.36-1.8-.33-2.71-.38-5.23-.29-10.21-3.51-12.61-8.16"/>
        </g>
        <path class="cls-1" d="M210.94,125.9s-.19-.33-.43-.96c-.25-.63-.58-1.55-.98-2.69-.8-2.28-1.84-5.46-2.87-9-1.03-3.54-1.87-6.78-2.43-9.13-.28-1.18-.49-2.13-.62-2.8-.13-.66-.19-1.03-.15-1.04s.16.35.35.99c.22.76.47,1.68.78,2.75.65,2.33,1.54,5.54,2.57,9.08,1.03,3.54,2.01,6.72,2.72,9.03.32,1.07.6,1.98.83,2.74.19.65.28,1.01.24,1.03Z"/>
      </g>
      <g>
        <path class="cls-5" d="M165.79,154.53s8.65-9.26,16.2-11.08c7.55-1.82,34.65-11.38,34.65-11.38l-1.71-5.39h0c1.72-.11,3.32-1.06,4.55-2.28l1.75-1.75c2.38-2.6,5.25-4.03,9.41-2.59l2.62.78,2.74,7.98c2.69,7.95-2.52,16.38-10.83,17.52l-59.37,8.18Z"/>
        <path class="cls-4" d="M227.87,133.22c-.07.15-2.37-1.02-5.47-1.33-3.1-.34-5.59.33-5.63.16-.06-.11,2.46-1.04,5.68-.68,3.22.32,5.5,1.75,5.42,1.85Z"/>
      </g>
      <g>
        <path class="cls-1" d="M167.09,27.96c-.78-12.53,15.64-21.38,26.8-18.23,10.49,2.96,14.96,8.18,16.69,15.2,1.73,7.02,1.64,14.62-1.11,21.31-1.36,3.3-3.8,6.65-7.34,7.06"/>
        <g>
          <g>
            <g>
              <path class="cls-5" d="M200.58,20.24c1.84.19,3.23,1.77,3.19,3.62h0l-2.02,48.15c-.08,5.69-8.38,8.9-14.47,8.77h0c-6.15-.13-6.35-3.14-6.44-8.55-.15-9.04-.15-12.43-.15-12.38,0,0-7.77-1.29-9.38-11.43-.8-5.04-.55-13.3-.12-20.06.38-6.08,4.41-13.54,10.47-12.9l18.92,4.78Z"/>
              <g>
                <path class="cls-1" d="M173.83,34.92c-.02.69.54,1.27,1.25,1.31.71.04,1.32-.49,1.34-1.17.02-.69-.54-1.27-1.25-1.31-.72-.04-1.32.49-1.34,1.17Z"/>
                <path class="cls-1" d="M172.99,32.66c.16.17,1.15-.56,2.54-.56,1.4-.02,2.42.7,2.58.53.07-.08-.09-.38-.54-.71-.44-.32-1.19-.64-2.06-.64-.87,0-1.6.33-2.03.65-.43.33-.58.64-.5.71Z"/>
              </g>
              <g>
                <path class="cls-1" d="M187.5,34.92c-.02.69.54,1.27,1.25,1.31.71.04,1.32-.49,1.34-1.17.02-.69-.54-1.27-1.25-1.31-.72-.04-1.32.49-1.34,1.17Z"/>
                <path class="cls-1" d="M186.74,32.92c.16.17,1.15-.56,2.55-.56,1.4-.02,2.42.7,2.58.53.07-.08-.09-.38-.54-.71-.44-.32-1.19-.64-2.06-.64-.87,0-1.6.33-2.03.65-.43.33-.58.64-.5.71Z"/>
              </g>
              <path class="cls-1" d="M181.66,43.29c0-.08-.86-.23-2.27-.41-.36-.04-.7-.11-.76-.35-.08-.26.07-.64.24-1.06.34-.86.69-1.77,1.06-2.72,1.47-3.87,2.53-7.06,2.37-7.11-.16-.06-1.47,3.03-2.94,6.91-.35.95-.69,1.86-1.01,2.74-.14.41-.37.87-.19,1.4.1.27.36.46.59.52.23.07.43.07.61.08,1.42.08,2.3.08,2.3,0Z"/>
              <path class="cls-4" d="M180.69,59.85s6.82.44,13.57-3.62c0,0-3.29,6.96-13.44,6.01l-.14-2.39Z"/>
              <path class="cls-4" d="M182.25,46.66c.5-.67,1.38-1.03,2.26-.94.61.07,1.22.36,1.59.85.37.49.45,1.2.11,1.67-.38.53-1.17.65-1.83.46-.67-.19-1.24-.63-1.79-1.07-.15-.12-.3-.25-.4-.41-.09-.17-.11-.38,0-.52"/>
              <path class="cls-1" d="M185.78,44.26c-.23-.01-.23,1.51-1.53,2.58-1.3,1.08-2.92.91-2.93,1.12-.02.1.36.29,1.04.31.67.02,1.65-.19,2.44-.85.79-.66,1.13-1.54,1.19-2.17.06-.63-.11-1.01-.22-1Z"/>
            </g>
            <path class="cls-1" d="M186.11,30.47c.14.38,1.53.2,3.18.4,1.65.16,2.97.65,3.19.3.1-.16-.13-.52-.67-.89-.53-.37-1.38-.72-2.36-.83-.99-.11-1.89.05-2.48.29-.6.24-.91.54-.85.72Z"/>
            <path class="cls-1" d="M173.5,28.61c.25.32,1.21-.01,2.37-.03,1.16-.06,2.14.21,2.37-.12.1-.16-.06-.48-.48-.78-.42-.3-1.13-.54-1.93-.52-.8.03-1.49.31-1.89.64-.41.33-.54.65-.44.81Z"/>
          </g>
          <path class="cls-1" d="M186.71,12.08c-3.69.12-6.5,1.25-9.74,3.02-3.24,1.77-5.95,4.7-6.95,8.26-.21.76-.33,1.62.08,2.28.55.88,1.84,1.03,2.78.6.94-.43,1.62-1.27,2.26-2.08.48,1.86,2.32,3.27,4.24,3.25,1.92-.02,3.73-1.48,4.17-3.35.02,1.95,1.96,3.55,3.91,3.48,1.94-.07,3.67-1.57,4.31-3.41.36,1.73.75,3.52,1.78,4.95,1.04,1.43,2.91,2.42,4.59,1.87-.24,1.51-.47,3.1.07,4.53.54,1.43,3.02,32.46,4.47,31.96,1.4-.48,1.05-32.01,1.38-33.46.63-2.79,1.18-5.63,1.09-8.49-.09-2.86-.85-5.77-2.61-8.03-1.82-2.34-4.57-3.82-7.43-4.58-2.86-.76-5.86-.84-8.82-.8"/>
        </g>
        <path class="cls-1" d="M151.44,52.23s-.12-.19-.4-.47c-.28-.28-.78-.64-1.53-.78-.73-.13-1.74-.06-2.59.58-.85.63-1.35,1.89-1.17,3.22.09.66.34,1.33.76,1.92.44.57,1.04,1.06,1.76,1.38,1.43.66,3.25.67,4.89-.03,1.65-.69,3.12-1.98,4.31-3.54,1.19-1.57,2.12-3.42,2.77-5.41,1.32-4,1.68-8.06,2.24-11.69.53-3.65,1.38-6.91,2.56-9.46,1.15-2.57,2.68-4.33,3.86-5.35.61-.49,1.1-.85,1.46-1.05.35-.21.54-.31.55-.3.04.06-.73.46-1.88,1.5-1.12,1.05-2.57,2.81-3.66,5.35-1.12,2.53-1.91,5.75-2.42,9.38-.53,3.62-.87,7.7-2.22,11.79-.66,2.04-1.62,3.94-2.86,5.56-1.23,1.61-2.77,2.95-4.53,3.68-1.75.74-3.72.71-5.26-.02-.77-.35-1.43-.89-1.9-1.54-.47-.65-.72-1.39-.81-2.11-.17-1.44.4-2.82,1.36-3.49.96-.68,2.04-.71,2.8-.54.79.18,1.3.59,1.57.9.27.32.33.54.33.54Z"/>
        <path class="cls-1" d="M205.19,68.84c-.03-.05.59-.31,1.57-1,.98-.68,2.27-1.86,3.44-3.64,1.16-1.78,2.15-4.17,2.57-6.95.43-2.78.22-5.91-.39-9.11-.62-3.21-1.54-6.19-2.33-8.92-.8-2.73-1.47-5.22-1.87-7.34-.4-2.12-.56-3.87-.58-5.08,0-.6,0-1.07.02-1.39.02-.32.04-.48.05-.48.05,0,.04.67.13,1.86.08,1.2.29,2.92.74,5.02.44,2.1,1.14,4.56,1.96,7.27.82,2.72,1.75,5.72,2.38,8.96.62,3.24.81,6.43.35,9.28-.46,2.85-1.51,5.28-2.73,7.08-1.23,1.8-2.6,2.97-3.63,3.61-.52.32-.93.54-1.23.66-.29.13-.45.19-.45.17Z"/>
        <path class="cls-1" d="M207,62.34s-.12.08-.36.18c-.24.1-.61.2-1.11.27-.98.13-2.49.01-4.07-.85-1.59-.83-3.11-2.52-3.92-4.74-.85-2.21-1.03-4.85-.79-7.52.24-2.68.73-5.17.95-7.46.24-2.29.35-4.36.39-6.1.04-1.74.02-3.15,0-4.13-.02-.98-.03-1.52,0-1.52.03,0,.11.53.19,1.51.08.97.16,2.39.17,4.14,0,1.75-.06,3.84-.28,6.15-.2,2.31-.67,4.82-.91,7.45-.24,2.63-.08,5.18.72,7.31.76,2.14,2.16,3.75,3.65,4.59,1.49.86,2.92,1.03,3.87.97.96-.08,1.47-.3,1.48-.25Z"/>
        <path class="cls-2" d="M141.6,71.47s-.04-.34.15-.96c.19-.61.68-1.47,1.67-2.21.96-.74,2.41-1.33,4.13-1.44,1.72-.16,3.67.09,5.78-.05,2.11-.17,4.37-.88,6.49-2.2,2.1-1.34,4.07-3.21,5.62-5.55,1.57-2.32,2.68-5.1,3.33-8.09.66-2.99.87-6.18.8-9.43-.05-3.26-.45-6.43-.65-9.52-.2-3.08-.17-6.13.56-8.92.71-2.79,2.22-5.23,4.16-6.91,1.92-1.71,4.16-2.72,6.29-3.16,2.14-.43,4.15-.26,5.81.17,1.67.44,3.01,1.1,4.02,1.77,1.01.66,1.71,1.3,2.14,1.76.23.22.37.42.48.54.1.12.15.19.15.2-.05.06-.86-1.05-2.88-2.32-1.01-.63-2.34-1.25-3.98-1.65-1.63-.4-3.59-.53-5.66-.09-2.06.44-4.23,1.45-6.08,3.12-1.87,1.64-3.3,3.99-3.98,6.7-.7,2.71-.72,5.71-.52,8.77.2,3.07.61,6.25.66,9.54.07,3.28-.14,6.51-.82,9.56-.67,3.03-1.81,5.88-3.43,8.25-1.59,2.39-3.63,4.29-5.79,5.65-2.18,1.34-4.52,2.05-6.69,2.2-2.17.12-4.1-.16-5.79-.03-1.69.08-3.08.62-4.04,1.31-.97.68-1.47,1.5-1.69,2.08-.22.59-.22.93-.25.92Z"/>
        <path class="cls-2" d="M191.73,9.95c.03-.05.49.18,1.03.79.53.6,1.11,1.63,1.21,2.89.11,1.26-.28,2.37-.71,3.05-.43.69-.84.99-.88.95-.06-.05.24-.43.55-1.12.32-.68.61-1.7.51-2.84-.1-1.13-.56-2.09-.99-2.71-.43-.62-.79-.95-.74-1.01Z"/>
        <path class="cls-2" d="M211.7,35.89s-.12-.44-.27-1.23c-.15-.79-.37-1.94-.67-3.35-.3-1.41-.68-3.08-1.18-4.92-.25-.92-.53-1.87-.88-2.84-.34-.98-.78-1.91-1.45-2.77-1.28-1.74-2.97-3.03-4.7-3.71-1.74-.69-3.48-.74-4.86-.47-1.4.26-2.44.81-3.1,1.25-.66.45-.98.77-1.01.73-.01-.01.06-.1.2-.26.14-.16.37-.38.69-.63.64-.5,1.69-1.13,3.14-1.44,1.43-.33,3.27-.32,5.11.38,1.83.69,3.62,2.04,4.95,3.85.68.89,1.17,1.92,1.51,2.91.35.99.62,1.96.86,2.89.47,1.86.82,3.55,1.08,4.97.26,1.42.42,2.59.51,3.39.09.8.1,1.25.07,1.26Z"/>
        <path class="cls-2" d="M192.77,18.02c-.01.08-1.27-.15-3.2-.77-.97-.29-2.12-.66-3.42-.84-1.3-.19-2.76-.08-4.17.46-1.41.53-2.59,1.41-3.43,2.41-.84,1-1.35,2.09-1.63,3.04-.56,1.92-.32,3.21-.43,3.21-.03,0-.12-.3-.16-.88-.04-.57-.02-1.42.23-2.43.25-1,.74-2.17,1.61-3.25.87-1.08,2.12-2.03,3.61-2.6,1.49-.57,3.07-.67,4.42-.45,1.36.21,2.51.63,3.47.96,1.9.71,3.1,1.06,3.09,1.12Z"/>
      </g>
    </g>
  </g>
</svg>