<svg width="26" height="26" viewBox="0 0 26 26" fill="none" xmlns="http://www.w3.org/2000/svg">
<g id="Communication" clip-path="url(#clip0_47_179)">
<path id="Vector" d="M3.25 7.58341C3.25 7.00878 3.47827 6.45768 3.8846 6.05135C4.29093 5.64502 4.84203 5.41675 5.41667 5.41675H20.5833C21.158 5.41675 21.7091 5.64502 22.1154 6.05135C22.5217 6.45768 22.75 7.00878 22.75 7.58341V18.4167C22.75 18.9914 22.5217 19.5425 22.1154 19.9488C21.7091 20.3551 21.158 20.5834 20.5833 20.5834H5.41667C4.84203 20.5834 4.29093 20.3551 3.8846 19.9488C3.47827 19.5425 3.25 18.9914 3.25 18.4167V7.58341Z" stroke="black" stroke-width="1.5" stroke-linecap="round" stroke-linejoin="round"/>
<path id="Vector_2" d="M3.25 7.58325L13 14.0833L22.75 7.58325" stroke="black" stroke-width="1.5" stroke-linecap="round" stroke-linejoin="round"/>
</g>
<defs>
<clipPath id="clip0_47_179">
<rect width="26" height="26" fill="white"/>
</clipPath>
</defs>
</svg>
