<svg width="32" height="32" viewBox="0 0 32 32" fill="none" xmlns="http://www.w3.org/2000/svg">
<circle cx="16" cy="16" r="16" fill="#50C1BA"/>
<g clip-path="url(#clip0_1056_1802)">
<path d="M17.8031 21.9963C18.5642 21.9963 18.9663 22.8973 18.4586 23.4639C18.1288 23.833 17.7247 24.1282 17.2729 24.3302C16.821 24.5321 16.3316 24.6363 15.8366 24.6359C15.3417 24.6363 14.8522 24.5321 14.4004 24.3302C13.9485 24.1282 13.5444 23.833 13.2146 23.4639C12.729 22.922 13.0756 22.0746 13.7725 22.0025L13.8693 21.9972L17.8031 21.9963Z" fill="white"/>
<path d="M15.8394 7.03882C17.0342 7.03882 18.0443 7.83333 18.369 8.9226L18.4094 9.07306L18.4165 9.11089C19.3864 9.65808 20.213 10.4273 20.8284 11.3554C21.4438 12.2836 21.8306 13.3443 21.957 14.4508L21.9817 14.7033L21.9984 14.9576V17.5364L22.0169 17.6561C22.1373 18.3044 22.4961 18.8841 23.0225 19.2812L23.1695 19.3841L23.312 19.4713C24.0687 19.8997 23.8047 21.0251 22.9803 21.1113L22.8783 21.1166H8.80048C7.89598 21.1166 7.58011 19.9165 8.36671 19.4713C8.70196 19.2815 8.99162 19.0207 9.21537 18.7072C9.43911 18.3936 9.59151 18.0348 9.66186 17.6561L9.68034 17.5303L9.68122 14.9171C9.73487 13.7679 10.0694 12.6493 10.6555 11.6594C11.2416 10.6694 12.0614 9.83819 13.0432 9.23847L13.2614 9.11001L13.2702 9.07218C13.3946 8.54604 13.6775 8.07075 14.0806 7.71045C14.4837 7.35014 14.9876 7.12217 15.5244 7.0573L15.6845 7.04234L15.8394 7.03882Z" fill="white"/>
</g>
<defs>
<clipPath id="clip0_1056_1802">
<rect width="21.1167" height="21.1167" fill="white" transform="translate(5.2793 5.27905)"/>
</clipPath>
</defs>
</svg>
