<svg width="35" height="35" viewBox="0 0 35 35" fill="none" xmlns="http://www.w3.org/2000/svg">
<g id="System" clip-path="url(#clip0_1105_1419)">
<path id="Vector" d="M12.0601 10.3673C12.0601 11.8519 12.6498 13.2757 13.6996 14.3255C14.7494 15.3753 16.1732 15.965 17.6578 15.965C19.1424 15.965 20.5662 15.3753 21.616 14.3255C22.6658 13.2757 23.2555 11.8519 23.2555 10.3673C23.2555 8.88266 22.6658 7.45885 21.616 6.40907C20.5662 5.35929 19.1424 4.76953 17.6578 4.76953C16.1732 4.76953 14.7494 5.35929 13.6996 6.40907C12.6498 7.45885 12.0601 8.88266 12.0601 10.3673Z" stroke="#A3A3A3" stroke-width="1.79927" stroke-linecap="round" stroke-linejoin="round"/>
<path id="Vector_2" d="M9.26074 29.9594V27.1605C9.26074 25.6759 9.8505 24.2521 10.9003 23.2023C11.9501 22.1525 13.3739 21.5627 14.8585 21.5627H20.4562C21.9408 21.5627 23.3646 22.1525 24.4144 23.2023C25.4642 24.2521 26.054 25.6759 26.054 27.1605V29.9594" stroke="#A3A3A3" stroke-width="1.79927" stroke-linecap="round" stroke-linejoin="round"/>
</g>
<defs>
<clipPath id="clip0_1105_1419">
<rect width="33.5864" height="33.5864" fill="white" transform="translate(0.864258 0.571289)"/>
</clipPath>
</defs>
</svg>
