<svg width="32" height="32" viewBox="0 0 32 32" fill="none" xmlns="http://www.w3.org/2000/svg">
<circle cx="16" cy="16" r="16" fill="#50C1BA"/>
<path d="M18.1669 8.87003C18.1905 8.96746 18.2368 9.05794 18.3019 9.13412C18.3671 9.21029 18.4493 9.27002 18.5419 9.30843C18.6345 9.34684 18.7349 9.36285 18.8348 9.35517C18.9348 9.34748 19.0315 9.31632 19.1171 9.26421C21.2631 7.95761 23.7188 10.4124 22.4122 12.5584C22.3601 12.644 22.3289 12.7407 22.3212 12.8406C22.3134 12.9405 22.3294 13.0408 22.3677 13.1334C22.406 13.2259 22.4656 13.3082 22.5417 13.3734C22.6178 13.4386 22.7082 13.4849 22.8055 13.5087C25.2471 14.1008 25.2471 17.5736 22.8055 18.1666C22.7081 18.1902 22.6176 18.2365 22.5414 18.3017C22.4652 18.3668 22.4055 18.4491 22.3671 18.5417C22.3287 18.6343 22.3127 18.7346 22.3204 18.8346C22.3281 18.9345 22.3592 19.0313 22.4113 19.1169C23.7179 21.2629 21.2631 23.7186 19.1171 22.412C19.0316 22.3599 18.9349 22.3287 18.835 22.3209C18.7351 22.3132 18.6348 22.3291 18.5422 22.3674C18.4496 22.4058 18.3674 22.4654 18.3022 22.5415C18.2369 22.6175 18.1906 22.7079 18.1669 22.8053C17.5747 25.2469 14.1019 25.2469 13.5089 22.8053C13.4853 22.7078 13.439 22.6174 13.3739 22.5412C13.3087 22.465 13.2265 22.4053 13.1339 22.3669C13.0413 22.3285 12.9409 22.3124 12.841 22.3201C12.741 22.3278 12.6443 22.359 12.5587 22.4111C10.4127 23.7177 7.95698 21.2629 9.26357 19.1169C9.31569 19.0313 9.34688 18.9346 9.35462 18.8347C9.36235 18.7348 9.34642 18.6345 9.3081 18.5419C9.26978 18.4494 9.21016 18.3671 9.13408 18.3019C9.05801 18.2367 8.96763 18.1904 8.87027 18.1666C6.42866 17.5745 6.42866 14.1017 8.87027 13.5087C8.9677 13.485 9.05818 13.4388 9.13436 13.3736C9.21054 13.3085 9.27026 13.2262 9.30867 13.1336C9.34708 13.041 9.3631 12.9407 9.35541 12.8407C9.34773 12.7408 9.31656 12.644 9.26445 12.5584C7.95786 10.4124 10.4127 7.95673 12.5587 9.26333C12.6441 9.31584 12.7409 9.34735 12.8409 9.35529C12.9409 9.36322 13.0414 9.34736 13.1341 9.30899C13.2268 9.27062 13.3091 9.21084 13.3742 9.13454C13.4394 9.05824 13.4855 8.9676 13.5089 8.87003C14.101 6.42841 17.5739 6.42841 18.1669 8.87003ZM15.8379 13.1981C15.1378 13.1981 14.4664 13.4762 13.9714 13.9712C13.4764 14.4662 13.1983 15.1376 13.1983 15.8376C13.1983 16.5377 13.4764 17.2091 13.9714 17.7041C14.4664 18.1991 15.1378 18.4772 15.8379 18.4772C16.538 18.4772 17.2093 18.1991 17.7044 17.7041C18.1994 17.2091 18.4775 16.5377 18.4775 15.8376C18.4775 15.1376 18.1994 14.4662 17.7044 13.9712C17.2093 13.4762 16.538 13.1981 15.8379 13.1981Z" fill="white"/>
</svg>
