<svg width="34" height="34" viewBox="0 0 34 34" fill="none" xmlns="http://www.w3.org/2000/svg">
<g clip-path="url(#clip0_1292_1866)">
<path d="M14.4507 6.04198C15.0469 3.58431 18.5431 3.58431 19.1393 6.04198C19.2287 6.41119 19.4041 6.75406 19.6511 7.04268C19.8981 7.33131 20.2098 7.55753 20.5608 7.70293C20.9117 7.84834 21.2921 7.90882 21.6708 7.87945C22.0496 7.85009 22.4161 7.7317 22.7404 7.53394C24.9 6.21833 27.373 8.68999 26.0574 10.8509C25.8599 11.1752 25.7417 11.5414 25.7124 11.9199C25.6831 12.2984 25.7436 12.6785 25.8888 13.0292C26.034 13.38 26.26 13.6915 26.5483 13.9385C26.8366 14.1855 27.1791 14.361 27.548 14.4507C30.0056 15.0469 30.0056 18.5431 27.548 19.1393C27.1788 19.2287 26.8359 19.4041 26.5473 19.6511C26.2587 19.8981 26.0324 20.2098 25.887 20.5608C25.7416 20.9117 25.6811 21.2921 25.7105 21.6708C25.7399 22.0496 25.8583 22.4161 26.056 22.7404C27.3716 24.9 24.9 27.373 22.739 26.0574C22.4148 25.8599 22.0485 25.7417 21.67 25.7124C21.2915 25.6831 20.9115 25.7436 20.5607 25.8888C20.21 26.034 19.8984 26.26 19.6515 26.5483C19.4045 26.8366 19.229 27.1791 19.1393 27.548C18.5431 30.0056 15.0469 30.0056 14.4507 27.548C14.3612 27.1788 14.1858 26.8359 13.9388 26.5473C13.6918 26.2587 13.3802 26.0324 13.0292 25.887C12.6782 25.7416 12.2979 25.6811 11.9191 25.7105C11.5404 25.7399 11.1739 25.8583 10.8496 26.056C8.68999 27.3716 6.21693 24.9 7.53254 22.739C7.73002 22.4148 7.84821 22.0485 7.87751 21.67C7.90681 21.2915 7.84639 20.9115 7.70115 20.5607C7.55591 20.21 7.32996 19.8984 7.04167 19.6515C6.75337 19.4045 6.41086 19.229 6.04198 19.1393C3.58431 18.5431 3.58431 15.0469 6.04198 14.4507C6.41119 14.3612 6.75406 14.1858 7.04268 13.9388C7.33131 13.6918 7.55753 13.3802 7.70293 13.0292C7.84834 12.6782 7.90882 12.2979 7.87945 11.9191C7.85009 11.5404 7.7317 11.1739 7.53394 10.8496C6.21833 8.68999 8.68999 6.21693 10.8509 7.53254C12.2505 8.38348 14.0644 7.63051 14.4507 6.04198Z" stroke="#50C1BA" stroke-width="1.8" stroke-linecap="round" stroke-linejoin="round"/>
<path d="M12.5962 16.7949C12.5962 17.9085 13.0386 18.9765 13.826 19.7639C14.6134 20.5513 15.6814 20.9937 16.7949 20.9937C17.9085 20.9937 18.9765 20.5513 19.7639 19.7639C20.5513 18.9765 20.9937 17.9085 20.9937 16.7949C20.9937 15.6814 20.5513 14.6134 19.7639 13.826C18.9765 13.0386 17.9085 12.5962 16.7949 12.5962C15.6814 12.5962 14.6134 13.0386 13.826 13.826C13.0386 14.6134 12.5962 15.6814 12.5962 16.7949Z" stroke="#50C1BA" stroke-width="1.8" stroke-linecap="round" stroke-linejoin="round"/>
</g>
<defs>
<clipPath id="clip0_1292_1866">
<rect width="33.59" height="33.59" fill="white"/>
</clipPath>
</defs>
</svg>
