<svg width="106" height="202" viewBox="0 0 106 202" fill="none" xmlns="http://www.w3.org/2000/svg">
<path d="M34.564 107.818H36.0356L39.4958 116.27H39.6151L43.0754 107.818H44.547V118H43.3936V110.264H43.2941L40.1123 118H38.9987L35.8169 110.264H35.7174V118H34.564V107.818ZM46.86 118V110.364H48.0333V118H46.86ZM47.4566 109.091C47.2279 109.091 47.0307 109.013 46.865 108.857C46.7026 108.701 46.6214 108.514 46.6214 108.295C46.6214 108.077 46.7026 107.889 46.865 107.734C47.0307 107.578 47.2279 107.5 47.4566 107.5C47.6853 107.5 47.8808 107.578 48.0432 107.734C48.209 107.889 48.2918 108.077 48.2918 108.295C48.2918 108.514 48.209 108.701 48.0432 108.857C47.8808 109.013 47.6853 109.091 47.4566 109.091ZM53.5033 110.364V111.358H49.5459V110.364H53.5033ZM50.6993 108.534H51.8726V115.812C51.8726 116.144 51.9207 116.393 52.0168 116.558C52.1162 116.721 52.2422 116.83 52.3946 116.886C52.5504 116.939 52.7145 116.966 52.8868 116.966C53.0161 116.966 53.1221 116.959 53.205 116.946C53.2878 116.929 53.3541 116.916 53.4039 116.906L53.6425 117.96C53.5629 117.99 53.4519 118.02 53.3094 118.05C53.1669 118.083 52.9862 118.099 52.7675 118.099C52.4361 118.099 52.1112 118.028 51.7931 117.886C51.4782 117.743 51.2164 117.526 51.0075 117.234C50.8021 116.943 50.6993 116.575 50.6993 116.131V108.534ZM58.5892 110.364V111.358H54.6318V110.364H58.5892ZM55.7852 108.534H56.9585V115.812C56.9585 116.144 57.0066 116.393 57.1027 116.558C57.2021 116.721 57.3281 116.83 57.4806 116.886C57.6363 116.939 57.8004 116.966 57.9727 116.966C58.102 116.966 58.2081 116.959 58.2909 116.946C58.3738 116.929 58.4401 116.916 58.4898 116.906L58.7284 117.96C58.6489 117.99 58.5378 118.02 58.3953 118.05C58.2528 118.083 58.0722 118.099 57.8534 118.099C57.522 118.099 57.1972 118.028 56.879 117.886C56.5641 117.743 56.3023 117.526 56.0935 117.234C55.888 116.943 55.7852 116.575 55.7852 116.131V108.534ZM63.4738 118.159C62.738 118.159 62.1033 117.997 61.5697 117.672C61.0394 117.344 60.6301 116.886 60.3417 116.3C60.0567 115.71 59.9142 115.024 59.9142 114.241C59.9142 113.459 60.0567 112.77 60.3417 112.173C60.6301 111.573 61.0311 111.106 61.5448 110.771C62.0619 110.433 62.6651 110.264 63.3545 110.264C63.7522 110.264 64.145 110.33 64.5328 110.463C64.9205 110.596 65.2735 110.811 65.5917 111.109C65.9099 111.404 66.1634 111.795 66.3524 112.283C66.5413 112.77 66.6357 113.37 66.6357 114.082V114.58H60.7494V113.565H65.4426C65.4426 113.134 65.3564 112.75 65.184 112.412C65.015 112.074 64.7731 111.807 64.4582 111.612C64.1466 111.416 63.7787 111.318 63.3545 111.318C62.8872 111.318 62.4828 111.434 62.1414 111.666C61.8034 111.895 61.5432 112.193 61.3609 112.561C61.1786 112.929 61.0874 113.323 61.0874 113.744V114.42C61.0874 114.997 61.1869 115.486 61.3857 115.887C61.5879 116.285 61.868 116.588 62.2259 116.797C62.5839 117.002 62.9999 117.105 63.4738 117.105C63.782 117.105 64.0605 117.062 64.309 116.976C64.5609 116.886 64.778 116.754 64.9603 116.578C65.1426 116.399 65.2835 116.177 65.3829 115.912L66.5164 116.23C66.3971 116.615 66.1966 116.953 65.9149 117.244C65.6331 117.533 65.2851 117.758 64.8708 117.92C64.4565 118.08 63.9909 118.159 63.4738 118.159ZM69.5938 107.818V118H68.4205V107.818H69.5938Z" fill="black"/>
<g filter="url(#filter0_d_1467_2096)">
<rect x="1.5" y="1.5" width="101" height="197" rx="10.5" stroke="#ECECEC" shape-rendering="crispEdges"/>
</g>
<path d="M38.1387 53.1805C36.7363 55.5955 35.9987 58.3344 36 61.122C36.0013 63.9096 36.7414 66.6478 38.1461 69.0616C39.5507 71.4753 41.5703 73.4795 44.0021 74.873C46.4339 76.2664 49.1922 77 52 77C54.8078 77 57.5661 76.2664 59.9979 74.873C62.4297 73.4795 64.4493 71.4753 65.8539 69.0616C67.2586 66.6478 67.9987 63.9096 68 61.122C68.0013 58.3344 67.2637 55.5955 65.8613 53.1805L52.0027 32L38.136 53.1805H38.1387Z" fill="#50C1BA" fill-opacity="0.55"/>
<defs>
<filter id="filter0_d_1467_2096" x="0" y="0" width="106" height="202" filterUnits="userSpaceOnUse" color-interpolation-filters="sRGB">
<feFlood flood-opacity="0" result="BackgroundImageFix"/>
<feColorMatrix in="SourceAlpha" type="matrix" values="0 0 0 0 0 0 0 0 0 0 0 0 0 0 0 0 0 0 127 0" result="hardAlpha"/>
<feOffset dx="0.5" dy="0.5"/>
<feGaussianBlur stdDeviation="0.5"/>
<feComposite in2="hardAlpha" operator="out"/>
<feColorMatrix type="matrix" values="0 0 0 0 0 0 0 0 0 0 0 0 0 0 0 0 0 0 0.1 0"/>
<feBlend mode="normal" in2="BackgroundImageFix" result="effect1_dropShadow_1467_2096"/>
<feBlend mode="normal" in="SourceGraphic" in2="effect1_dropShadow_1467_2096" result="shape"/>
</filter>
</defs>
</svg>
