<svg width="106" height="202" viewBox="0 0 106 202" fill="none" xmlns="http://www.w3.org/2000/svg">
<path d="M37.2689 110.364C37.2093 109.86 36.9673 109.469 36.5431 109.19C36.1188 108.912 35.5985 108.773 34.982 108.773C34.5312 108.773 34.1368 108.846 33.7987 108.991C33.464 109.137 33.2021 109.338 33.0132 109.593C32.8276 109.848 32.7348 110.138 32.7348 110.463C32.7348 110.735 32.7994 110.969 32.9287 111.164C33.0613 111.356 33.2303 111.517 33.4358 111.646C33.6413 111.772 33.8567 111.877 34.0821 111.96C34.3075 112.039 34.5146 112.104 34.7036 112.153L35.7377 112.432C36.0028 112.501 36.2978 112.598 36.6226 112.72C36.9507 112.843 37.2639 113.01 37.5622 113.222C37.8638 113.431 38.1124 113.7 38.308 114.028C38.5035 114.356 38.6013 114.759 38.6013 115.236C38.6013 115.786 38.4571 116.283 38.1688 116.727C37.8837 117.171 37.4661 117.524 36.9159 117.786C36.3691 118.048 35.7045 118.179 34.9223 118.179C34.1932 118.179 33.5618 118.061 33.0281 117.826C32.4978 117.591 32.0802 117.263 31.7753 116.842C31.4737 116.421 31.303 115.932 31.2632 115.375H32.536C32.5691 115.759 32.6984 116.078 32.9237 116.33C33.1524 116.578 33.4408 116.764 33.7888 116.886C34.1401 117.006 34.518 117.065 34.9223 117.065C35.393 117.065 35.8155 116.989 36.1901 116.837C36.5646 116.681 36.8612 116.465 37.08 116.19C37.2987 115.912 37.4081 115.587 37.4081 115.216C37.4081 114.878 37.3137 114.603 37.1247 114.391C36.9358 114.179 36.6872 114.006 36.379 113.874C36.0708 113.741 35.7377 113.625 35.3797 113.526L34.1269 113.168C33.3314 112.939 32.7017 112.612 32.2377 112.188C31.7736 111.764 31.5416 111.209 31.5416 110.523C31.5416 109.953 31.6958 109.455 32.004 109.031C32.3155 108.604 32.7332 108.272 33.2568 108.037C33.7838 107.798 34.3721 107.679 35.0218 107.679C35.678 107.679 36.2613 107.797 36.7718 108.032C37.2822 108.264 37.6865 108.582 37.9848 108.987C38.2864 109.391 38.4455 109.85 38.4621 110.364H37.2689ZM43.7904 110.364V111.358H39.833V110.364H43.7904ZM40.9864 108.534H42.1597V115.812C42.1597 116.144 42.2078 116.393 42.3039 116.558C42.4033 116.721 42.5293 116.83 42.6817 116.886C42.8375 116.939 43.0016 116.966 43.1739 116.966C43.3032 116.966 43.4092 116.959 43.4921 116.946C43.575 116.929 43.6412 116.916 43.691 116.906L43.9296 117.96C43.8501 117.99 43.739 118.02 43.5965 118.05C43.454 118.083 43.2733 118.099 43.0546 118.099C42.7232 118.099 42.3983 118.028 42.0802 117.886C41.7653 117.743 41.5035 117.526 41.2947 117.234C41.0892 116.943 40.9864 116.575 40.9864 116.131V108.534ZM45.5553 118V110.364H46.6888V111.517H46.7684C46.9076 111.139 47.1595 110.833 47.5241 110.597C47.8886 110.362 48.2996 110.244 48.757 110.244C48.8432 110.244 48.9509 110.246 49.0802 110.249C49.2094 110.253 49.3072 110.258 49.3735 110.264V111.457C49.3337 111.447 49.2426 111.433 49.1001 111.413C48.9608 111.389 48.8134 111.378 48.6576 111.378C48.2864 111.378 47.9549 111.456 47.6633 111.612C47.3749 111.764 47.1462 111.976 46.9772 112.248C46.8115 112.516 46.7286 112.823 46.7286 113.168V118H45.5553ZM53.6341 118.159C52.9448 118.159 52.3399 117.995 51.8195 117.667C51.3025 117.339 50.8981 116.88 50.6064 116.29C50.3181 115.7 50.1739 115.01 50.1739 114.222C50.1739 113.426 50.3181 112.732 50.6064 112.138C50.8981 111.545 51.3025 111.085 51.8195 110.756C52.3399 110.428 52.9448 110.264 53.6341 110.264C54.3235 110.264 54.9268 110.428 55.4438 110.756C55.9642 111.085 56.3685 111.545 56.6569 112.138C56.9485 112.732 57.0944 113.426 57.0944 114.222C57.0944 115.01 56.9485 115.7 56.6569 116.29C56.3685 116.88 55.9642 117.339 55.4438 117.667C54.9268 117.995 54.3235 118.159 53.6341 118.159ZM53.6341 117.105C54.1578 117.105 54.5887 116.971 54.9268 116.702C55.2648 116.434 55.5151 116.081 55.6775 115.643C55.8399 115.206 55.9211 114.732 55.9211 114.222C55.9211 113.711 55.8399 113.236 55.6775 112.795C55.5151 112.354 55.2648 111.998 54.9268 111.726C54.5887 111.454 54.1578 111.318 53.6341 111.318C53.1105 111.318 52.6796 111.454 52.3415 111.726C52.0035 111.998 51.7532 112.354 51.5908 112.795C51.4284 113.236 51.3472 113.711 51.3472 114.222C51.3472 114.732 51.4284 115.206 51.5908 115.643C51.7532 116.081 52.0035 116.434 52.3415 116.702C52.6796 116.971 53.1105 117.105 53.6341 117.105ZM60.0587 113.406V118H58.8854V110.364H60.0189V111.557H60.1183C60.2973 111.169 60.5691 110.857 60.9337 110.622C61.2983 110.384 61.7689 110.264 62.3456 110.264C62.8627 110.264 63.3151 110.37 63.7029 110.582C64.0906 110.791 64.3923 111.109 64.6077 111.537C64.8231 111.961 64.9308 112.498 64.9308 113.148V118H63.7575V113.227C63.7575 112.627 63.6018 112.16 63.2902 111.825C62.9787 111.487 62.5511 111.318 62.0075 111.318C61.633 111.318 61.2983 111.399 61.0033 111.562C60.7116 111.724 60.4813 111.961 60.3122 112.273C60.1432 112.584 60.0587 112.962 60.0587 113.406ZM70.1572 121.023C69.5905 121.023 69.1032 120.95 68.6956 120.804C68.2879 120.661 67.9482 120.473 67.6764 120.237C67.4079 120.005 67.1942 119.757 67.0351 119.491L67.9697 118.835C68.0758 118.974 68.21 119.134 68.3724 119.312C68.5348 119.495 68.7569 119.652 69.0386 119.785C69.3237 119.921 69.6965 119.989 70.1572 119.989C70.7737 119.989 71.2825 119.839 71.6835 119.541C72.0845 119.243 72.2851 118.776 72.2851 118.139V116.588H72.1856C72.0995 116.727 71.9768 116.9 71.8177 117.105C71.662 117.307 71.4366 117.488 71.1416 117.647C70.8499 117.803 70.4555 117.881 69.9584 117.881C69.3419 117.881 68.7884 117.735 68.2979 117.443C67.8106 117.152 67.4245 116.727 67.1395 116.17C66.8577 115.614 66.7169 114.937 66.7169 114.142C66.7169 113.36 66.8544 112.679 67.1295 112.099C67.4046 111.515 67.7874 111.065 68.278 110.746C68.7685 110.425 69.3353 110.264 69.9782 110.264C70.4754 110.264 70.8698 110.347 71.1615 110.513C71.4565 110.675 71.6818 110.861 71.8376 111.07C71.9967 111.275 72.1193 111.444 72.2055 111.577H72.3248V110.364H73.4584V118.219C73.4584 118.875 73.3092 119.409 73.0109 119.82C72.7159 120.234 72.3182 120.537 71.8177 120.729C71.3206 120.925 70.7671 121.023 70.1572 121.023ZM70.1175 116.827C70.5881 116.827 70.9858 116.719 71.3106 116.504C71.6354 116.288 71.8824 115.978 72.0514 115.574C72.2204 115.17 72.305 114.686 72.305 114.122C72.305 113.572 72.2221 113.086 72.0564 112.665C71.8907 112.245 71.6454 111.915 71.3206 111.676C70.9958 111.437 70.5947 111.318 70.1175 111.318C69.6203 111.318 69.206 111.444 68.8746 111.696C68.5464 111.948 68.2995 112.286 68.1338 112.71C67.9714 113.134 67.8902 113.605 67.8902 114.122C67.8902 114.652 67.973 115.121 68.1388 115.529C68.3078 115.933 68.5564 116.252 68.8845 116.484C69.2159 116.712 69.6269 116.827 70.1175 116.827Z" fill="black"/>
<g filter="url(#filter0_d_1467_2095)">
<rect x="1.5" y="1.5" width="101" height="197" rx="10.5" stroke="#ECECEC" shape-rendering="crispEdges"/>
</g>
<path d="M38.1387 53.1805C36.7363 55.5955 35.9987 58.3344 36 61.122C36.0013 63.9096 36.7414 66.6478 38.1461 69.0616C39.5507 71.4753 41.5703 73.4795 44.0021 74.873C46.4339 76.2664 49.1922 77 52 77C54.8078 77 57.5661 76.2664 59.9979 74.873C62.4297 73.4795 64.4493 71.4753 65.8539 69.0616C67.2586 66.6478 67.9987 63.9096 68 61.122C68.0013 58.3344 67.2637 55.5955 65.8613 53.1805L52.0027 32L38.136 53.1805H38.1387Z" fill="#50C1BA"/>
<defs>
<filter id="filter0_d_701_1473" x="0.5" y="0.5" width="104" height="200" filterUnits="userSpaceOnUse" color-interpolation-filters="sRGB">
<feFlood flood-opacity="0" result="BackgroundImageFix"/>
<feColorMatrix in="SourceAlpha" type="matrix" values="0 0 0 0 0 0 0 0 0 0 0 0 0 0 0 0 0 0 127 0" result="hardAlpha"/>
<feOffset dx="0.5" dy="0.5"/>
<feGaussianBlur stdDeviation="0.5"/>
<feComposite in2="hardAlpha" operator="out"/>
<feColorMatrix type="matrix" values="0 0 0 0 0 0 0 0 0 0 0 0 0 0 0 0 0 0 0.1 0"/>
<feBlend mode="normal" in2="BackgroundImageFix" result="effect1_dropShadow_1467_2095"/>
<feBlend mode="normal" in="SourceGraphic" in2="effect1_dropShadow_1467_2095" result="shape"/>
</filter>
</defs>
</svg>
