<svg width="106" height="202" viewBox="0 0 106 202" fill="none" xmlns="http://www.w3.org/2000/svg">
<path d="M27.271 107.818H28.7426L32.2029 116.27H32.3222L35.7824 107.818H37.254V118H36.1006V110.264H36.0012L32.8193 118H31.7057L28.5239 110.264H28.4244V118H27.271V107.818ZM42.7687 118.159C42.0329 118.159 41.3982 117.997 40.8646 117.672C40.3343 117.344 39.925 116.886 39.6366 116.3C39.3516 115.71 39.2091 115.024 39.2091 114.241C39.2091 113.459 39.3516 112.77 39.6366 112.173C39.925 111.573 40.326 111.106 40.8398 110.771C41.3568 110.433 41.96 110.264 42.6494 110.264C43.0471 110.264 43.4399 110.33 43.8277 110.463C44.2155 110.596 44.5684 110.811 44.8866 111.109C45.2048 111.404 45.4584 111.795 45.6473 112.283C45.8362 112.77 45.9307 113.37 45.9307 114.082V114.58H40.0443V113.565H44.7375C44.7375 113.134 44.6513 112.75 44.479 112.412C44.3099 112.074 44.068 111.807 43.7531 111.612C43.4416 111.416 43.0737 111.318 42.6494 111.318C42.1821 111.318 41.7777 111.434 41.4363 111.666C41.0983 111.895 40.8381 112.193 40.6558 112.561C40.4735 112.929 40.3824 113.323 40.3824 113.744V114.42C40.3824 114.997 40.4818 115.486 40.6807 115.887C40.8828 116.285 41.1629 116.588 41.5209 116.797C41.8788 117.002 42.2948 117.105 42.7687 117.105C43.077 117.105 43.3554 117.062 43.604 116.976C43.8559 116.886 44.0729 116.754 44.2552 116.578C44.4375 116.399 44.5784 116.177 44.6778 115.912L45.8113 116.23C45.692 116.615 45.4915 116.953 45.2098 117.244C44.9281 117.533 44.58 117.758 44.1657 117.92C43.7515 118.08 43.2858 118.159 42.7687 118.159ZM50.599 118.159C49.9626 118.159 49.4008 117.998 48.9136 117.677C48.4264 117.352 48.0452 116.895 47.7702 116.305C47.4951 115.711 47.3575 115.01 47.3575 114.202C47.3575 113.4 47.4951 112.704 47.7702 112.114C48.0452 111.524 48.4281 111.068 48.9186 110.746C49.4091 110.425 49.9759 110.264 50.6189 110.264C51.116 110.264 51.5088 110.347 51.7971 110.513C52.0888 110.675 52.3109 110.861 52.4633 111.07C52.6191 111.275 52.7401 111.444 52.8263 111.577H52.9257V107.818H54.099V118H52.9655V116.827H52.8263C52.7401 116.966 52.6175 117.142 52.4584 117.354C52.2993 117.562 52.0722 117.75 51.7773 117.915C51.4823 118.078 51.0895 118.159 50.599 118.159ZM50.7581 117.105C51.2287 117.105 51.6265 116.982 51.9513 116.737C52.2761 116.489 52.523 116.146 52.692 115.708C52.8611 115.267 52.9456 114.759 52.9456 114.182C52.9456 113.612 52.8627 113.113 52.697 112.685C52.5313 112.254 52.286 111.92 51.9612 111.681C51.6364 111.439 51.2354 111.318 50.7581 111.318C50.2609 111.318 49.8466 111.446 49.5152 111.701C49.1871 111.953 48.9401 112.296 48.7744 112.73C48.612 113.161 48.5308 113.645 48.5308 114.182C48.5308 114.725 48.6137 115.219 48.7794 115.663C48.9484 116.104 49.197 116.455 49.5251 116.717C49.8566 116.976 50.2675 117.105 50.7581 117.105ZM56.4108 118V110.364H57.5841V118H56.4108ZM57.0074 109.091C56.7787 109.091 56.5815 109.013 56.4157 108.857C56.2533 108.701 56.1721 108.514 56.1721 108.295C56.1721 108.077 56.2533 107.889 56.4157 107.734C56.5815 107.578 56.7787 107.5 57.0074 107.5C57.2361 107.5 57.4316 107.578 57.594 107.734C57.7597 107.889 57.8426 108.077 57.8426 108.295C57.8426 108.514 57.7597 108.701 57.594 108.857C57.4316 109.013 57.2361 109.091 57.0074 109.091ZM64.5455 114.878V110.364H65.7188V118H64.5455V116.707H64.466C64.287 117.095 64.0086 117.425 63.6308 117.697C63.2529 117.965 62.7757 118.099 62.199 118.099C61.7217 118.099 61.2974 117.995 60.9262 117.786C60.555 117.574 60.2633 117.256 60.0512 116.832C59.8391 116.404 59.733 115.866 59.733 115.216V110.364H60.9063V115.136C60.9063 115.693 61.0621 116.137 61.3737 116.469C61.6885 116.8 62.0896 116.966 62.5768 116.966C62.8685 116.966 63.1651 116.891 63.4667 116.742C63.7716 116.593 64.0268 116.364 64.2323 116.056C64.4411 115.748 64.5455 115.355 64.5455 114.878ZM67.8678 118V110.364H69.0013V111.557H69.1008C69.2599 111.149 69.5167 110.833 69.8714 110.607C70.226 110.379 70.6519 110.264 71.1491 110.264C71.6528 110.264 72.0721 110.379 72.4069 110.607C72.7449 110.833 73.0084 111.149 73.1974 111.557H73.2769C73.4724 111.162 73.7658 110.849 74.1569 110.617C74.548 110.382 75.017 110.264 75.5638 110.264C76.2466 110.264 76.8051 110.478 77.2393 110.906C77.6734 111.33 77.8905 111.991 77.8905 112.889V118H76.7172V112.889C76.7172 112.326 76.5631 111.923 76.2549 111.681C75.9466 111.439 75.5837 111.318 75.1661 111.318C74.6292 111.318 74.2132 111.481 73.9182 111.805C73.6233 112.127 73.4758 112.535 73.4758 113.028V118H72.2826V112.77C72.2826 112.336 72.1417 111.986 71.86 111.721C71.5783 111.452 71.2153 111.318 70.7712 111.318C70.4663 111.318 70.1813 111.399 69.9161 111.562C69.6543 111.724 69.4421 111.95 69.2797 112.238C69.1207 112.523 69.0411 112.853 69.0411 113.227V118H67.8678Z" fill="black"/>
<g filter="url(#filter0_d_1467_2096)">
<rect x="1.5" y="1.5" width="101" height="197" rx="10.5" stroke="#ECECEC" shape-rendering="crispEdges"/>
</g>
<path d="M38.1387 53.1805C36.7363 55.5955 35.9987 58.3344 36 61.122C36.0013 63.9096 36.7414 66.6478 38.1461 69.0616C39.5507 71.4753 41.5703 73.4795 44.0021 74.873C46.4339 76.2664 49.1922 77 52 77C54.8078 77 57.5661 76.2664 59.9979 74.873C62.4297 73.4795 64.4493 71.4753 65.8539 69.0616C67.2586 66.6478 67.9987 63.9096 68 61.122C68.0013 58.3344 67.2637 55.5955 65.8613 53.1805L52.0027 32L38.136 53.1805H38.1387Z" fill="#50C1BA" fill-opacity="0.55"/>
<defs>
<filter id="filter0_d_701_1473" x="0.5" y="0.5" width="104" height="200" filterUnits="userSpaceOnUse" color-interpolation-filters="sRGB">
<feFlood flood-opacity="0" result="BackgroundImageFix"/>
<feColorMatrix in="SourceAlpha" type="matrix" values="0 0 0 0 0 0 0 0 0 0 0 0 0 0 0 0 0 0 127 0" result="hardAlpha"/>
<feOffset dx="0.5" dy="0.5"/>
<feGaussianBlur stdDeviation="0.5"/>
<feComposite in2="hardAlpha" operator="out"/>
<feColorMatrix type="matrix" values="0 0 0 0 0 0 0 0 0 0 0 0 0 0 0 0 0 0 0.1 0"/>
<feBlend mode="normal" in2="BackgroundImageFix" result="effect1_dropShadow_1467_2096"/>
<feBlend mode="normal" in="SourceGraphic" in2="effect1_dropShadow_1467_2096" result="shape"/>
</filter>
</defs>
</svg>
