<svg width="106" height="202" viewBox="0 0 106 202" fill="none" xmlns="http://www.w3.org/2000/svg">
<path d="M29.1136 110.364C29.054 109.86 28.812 109.469 28.3878 109.19C27.9635 108.912 27.4432 108.773 26.8267 108.773C26.3759 108.773 25.9815 108.846 25.6435 108.991C25.3087 109.137 25.0469 109.338 24.858 109.593C24.6723 109.848 24.5795 110.138 24.5795 110.463C24.5795 110.735 24.6442 110.969 24.7734 111.164C24.906 111.356 25.075 111.517 25.2805 111.646C25.486 111.772 25.7015 111.877 25.9268 111.96C26.1522 112.039 26.3594 112.104 26.5483 112.153L27.5824 112.432C27.8475 112.501 28.1425 112.598 28.4673 112.72C28.7955 112.843 29.1087 113.01 29.407 113.222C29.7086 113.431 29.9571 113.7 30.1527 114.028C30.3482 114.356 30.446 114.759 30.446 115.236C30.446 115.786 30.3018 116.283 30.0135 116.727C29.7285 117.171 29.3108 117.524 28.7607 117.786C28.2138 118.048 27.5492 118.179 26.767 118.179C26.0379 118.179 25.4065 118.061 24.8729 117.826C24.3426 117.591 23.925 117.263 23.62 116.842C23.3184 116.421 23.1477 115.932 23.108 115.375H24.3807C24.4138 115.759 24.5431 116.078 24.7685 116.33C24.9972 116.578 25.2855 116.764 25.6335 116.886C25.9848 117.006 26.3627 117.065 26.767 117.065C27.2377 117.065 27.6603 116.989 28.0348 116.837C28.4093 116.681 28.706 116.465 28.9247 116.19C29.1435 115.912 29.2528 115.587 29.2528 115.216C29.2528 114.878 29.1584 114.603 28.9695 114.391C28.7805 114.179 28.532 114.006 28.2237 113.874C27.9155 113.741 27.5824 113.625 27.2244 113.526L25.9716 113.168C25.1761 112.939 24.5464 112.612 24.0824 112.188C23.6184 111.764 23.3864 111.209 23.3864 110.523C23.3864 109.953 23.5405 109.455 23.8487 109.031C24.1603 108.604 24.5779 108.272 25.1016 108.037C25.6286 107.798 26.2169 107.679 26.8665 107.679C27.5227 107.679 28.1061 107.797 28.6165 108.032C29.1269 108.264 29.5313 108.582 29.8295 108.987C30.1312 109.391 30.2902 109.85 30.3068 110.364H29.1136ZM35.4164 118.159C34.7005 118.159 34.084 117.99 33.5669 117.652C33.0499 117.314 32.6522 116.848 32.3738 116.255C32.0953 115.662 31.9561 114.984 31.9561 114.222C31.9561 113.446 32.0987 112.762 32.3837 112.168C32.6721 111.572 33.0731 111.106 33.5868 110.771C34.1039 110.433 34.7071 110.264 35.3965 110.264C35.9334 110.264 36.4173 110.364 36.8482 110.562C37.2791 110.761 37.632 111.04 37.9071 111.398C38.1822 111.756 38.3529 112.173 38.4192 112.651H37.2459C37.1564 112.303 36.9576 111.994 36.6493 111.726C36.3444 111.454 35.9334 111.318 35.4164 111.318C34.959 111.318 34.5579 111.437 34.2132 111.676C33.8719 111.911 33.6051 112.245 33.4128 112.675C33.2239 113.103 33.1294 113.605 33.1294 114.182C33.1294 114.772 33.2222 115.286 33.4078 115.723C33.5968 116.161 33.8619 116.5 34.2033 116.742C34.548 116.984 34.9524 117.105 35.4164 117.105C35.7213 117.105 35.998 117.052 36.2466 116.946C36.4952 116.84 36.7057 116.688 36.878 116.489C37.0504 116.29 37.173 116.051 37.2459 115.773H38.4192C38.3529 116.223 38.1889 116.629 37.927 116.991C37.6685 117.349 37.3255 117.634 36.8979 117.846C36.4737 118.055 35.9798 118.159 35.4164 118.159ZM41.3077 113.406V118H40.1344V107.818H41.3077V111.557H41.4071C41.5861 111.162 41.8546 110.849 42.2125 110.617C42.5738 110.382 43.0544 110.264 43.6543 110.264C44.1747 110.264 44.6304 110.369 45.0215 110.577C45.4126 110.783 45.7159 111.099 45.9313 111.527C46.15 111.951 46.2594 112.491 46.2594 113.148V118H45.0861V113.227C45.0861 112.621 44.9287 112.152 44.6138 111.82C44.3023 111.486 43.8697 111.318 43.3162 111.318C42.9318 111.318 42.5871 111.399 42.2821 111.562C41.9805 111.724 41.7419 111.961 41.5662 112.273C41.3939 112.584 41.3077 112.962 41.3077 113.406ZM50.136 118L47.8093 110.364H49.0423L50.6928 116.21H50.7724L52.4031 110.364H53.6559L55.2667 116.19H55.3462L56.9968 110.364H58.2298L55.9031 118H54.7496L53.0792 112.134H52.9599L51.2894 118H50.136ZM62.0281 118.179C61.5442 118.179 61.105 118.088 60.7106 117.906C60.3162 117.72 60.003 117.453 59.771 117.105C59.5389 116.754 59.4229 116.33 59.4229 115.832C59.4229 115.395 59.5091 115.04 59.6815 114.768C59.8538 114.493 60.0842 114.278 60.3725 114.122C60.6609 113.966 60.979 113.85 61.3271 113.774C61.6784 113.695 62.0314 113.632 62.386 113.585C62.85 113.526 63.2262 113.481 63.5146 113.451C63.8062 113.418 64.0183 113.363 64.1509 113.287C64.2868 113.211 64.3548 113.078 64.3548 112.889V112.849C64.3548 112.359 64.2205 111.978 63.9521 111.706C63.6869 111.434 63.2842 111.298 62.744 111.298C62.1838 111.298 61.7447 111.421 61.4265 111.666C61.1083 111.911 60.8846 112.173 60.7553 112.452L59.6417 112.054C59.8406 111.59 60.1057 111.229 60.4371 110.97C60.7719 110.708 61.1365 110.526 61.5309 110.423C61.9286 110.317 62.3197 110.264 62.7042 110.264C62.9495 110.264 63.2312 110.294 63.5494 110.354C63.8709 110.41 64.1808 110.528 64.479 110.707C64.7807 110.886 65.0309 111.156 65.2298 111.517C65.4286 111.878 65.5281 112.362 65.5281 112.969V118H64.3548V116.966H64.2951C64.2156 117.132 64.083 117.309 63.8974 117.498C63.7118 117.687 63.4648 117.848 63.1566 117.98C62.8484 118.113 62.4722 118.179 62.0281 118.179ZM62.207 117.125C62.671 117.125 63.0621 117.034 63.3803 116.852C63.7018 116.669 63.9438 116.434 64.1062 116.146C64.2719 115.857 64.3548 115.554 64.3548 115.236V114.162C64.305 114.222 64.1957 114.276 64.0266 114.326C63.8609 114.372 63.6687 114.414 63.4499 114.45C63.2345 114.483 63.024 114.513 62.8185 114.54C62.6164 114.563 62.4523 114.583 62.3263 114.599C62.0214 114.639 61.7364 114.704 61.4712 114.793C61.2094 114.879 60.9973 115.01 60.8349 115.186C60.6758 115.358 60.5962 115.594 60.5962 115.892C60.5962 116.3 60.747 116.608 61.0487 116.817C61.3536 117.022 61.7397 117.125 62.207 117.125ZM70.7718 118.159C70.0559 118.159 69.4395 117.99 68.9224 117.652C68.4054 117.314 68.0076 116.848 67.7292 116.255C67.4508 115.662 67.3116 114.984 67.3116 114.222C67.3116 113.446 67.4541 112.762 67.7392 112.168C68.0275 111.572 68.4286 111.106 68.9423 110.771C69.4593 110.433 70.0626 110.264 70.752 110.264C71.2889 110.264 71.7728 110.364 72.2037 110.562C72.6345 110.761 72.9875 111.04 73.2626 111.398C73.5377 111.756 73.7084 112.173 73.7747 112.651H72.6014C72.5119 112.303 72.313 111.994 72.0048 111.726C71.6999 111.454 71.2889 111.318 70.7718 111.318C70.3145 111.318 69.9134 111.437 69.5687 111.676C69.2273 111.911 68.9605 112.245 68.7683 112.675C68.5794 113.103 68.4849 113.605 68.4849 114.182C68.4849 114.772 68.5777 115.286 68.7633 115.723C68.9522 116.161 69.2174 116.5 69.5588 116.742C69.9035 116.984 70.3078 117.105 70.7718 117.105C71.0768 117.105 71.3535 117.052 71.6021 116.946C71.8507 116.84 72.0611 116.688 72.2335 116.489C72.4058 116.29 72.5285 116.051 72.6014 115.773H73.7747C73.7084 116.223 73.5443 116.629 73.2825 116.991C73.024 117.349 72.6809 117.634 72.2534 117.846C71.8291 118.055 71.3353 118.159 70.7718 118.159ZM76.6632 113.406V118H75.4899V107.818H76.6632V111.557H76.7626C76.9416 111.162 77.21 110.849 77.568 110.617C77.9293 110.382 78.4099 110.264 79.0098 110.264C79.5301 110.264 79.9859 110.369 80.377 110.577C80.7681 110.783 81.0713 111.099 81.2868 111.527C81.5055 111.951 81.6149 112.491 81.6149 113.148V118H80.4416V113.227C80.4416 112.621 80.2842 112.152 79.9693 111.82C79.6577 111.486 79.2252 111.318 78.6717 111.318C78.2872 111.318 77.9425 111.399 77.6376 111.562C77.336 111.724 77.0974 111.961 76.9217 112.273C76.7493 112.584 76.6632 112.962 76.6632 113.406Z" fill="black"/>
<g filter="url(#filter0_d_1467_2097)">
<rect x="1.5" y="1.5" width="101" height="197" rx="10.5" stroke="#ECECEC" shape-rendering="crispEdges"/>
</g>
<path d="M38.1387 53.1805C36.7363 55.5955 35.9987 58.3344 36 61.122C36.0013 63.9096 36.7414 66.6478 38.1461 69.0616C39.5507 71.4753 41.5703 73.4795 44.0021 74.873C46.4339 76.2664 49.1922 77 52 77C54.8078 77 57.5661 76.2664 59.9979 74.873C62.4297 73.4795 64.4493 71.4753 65.8539 69.0616C67.2586 66.6478 67.9987 63.9096 68 61.122C68.0013 58.3344 67.2637 55.5955 65.8613 53.1805L52.0027 32L38.136 53.1805H38.1387Z" fill="#50C1BA" fill-opacity="0.2"/>
<defs>
<filter id="filter0_d_1467_2097" x="0" y="0" width="106" height="202" filterUnits="userSpaceOnUse" color-interpolation-filters="sRGB">
<feFlood flood-opacity="0" result="BackgroundImageFix"/>
<feColorMatrix in="SourceAlpha" type="matrix" values="0 0 0 0 0 0 0 0 0 0 0 0 0 0 0 0 0 0 127 0" result="hardAlpha"/>
<feOffset dx="0.5" dy="0.5"/>
<feGaussianBlur stdDeviation="0.5"/>
<feComposite in2="hardAlpha" operator="out"/>
<feColorMatrix type="matrix" values="0 0 0 0 0 0 0 0 0 0 0 0 0 0 0 0 0 0 0.1 0"/>
<feBlend mode="normal" in2="BackgroundImageFix" result="effect1_dropShadow_1467_2097"/>
<feBlend mode="normal" in="SourceGraphic" in2="effect1_dropShadow_1467_2097" result="shape"/>
</filter>
</defs>
</svg>
