<svg width="106" height="202" viewBox="0 0 106 202" fill="none" xmlns="http://www.w3.org/2000/svg">
<path d="M31.5929 107.818V118H30.3599V107.818H31.5929ZM35.0792 113.406V118H33.9059V110.364H35.0394V111.557H35.1388C35.3178 111.169 35.5896 110.857 35.9542 110.622C36.3188 110.384 36.7894 110.264 37.3661 110.264C37.8832 110.264 38.3356 110.37 38.7234 110.582C39.1112 110.791 39.4128 111.109 39.6282 111.537C39.8436 111.961 39.9513 112.498 39.9513 113.148V118H38.7781V113.227C38.7781 112.627 38.6223 112.16 38.3107 111.825C37.9992 111.487 37.5716 111.318 37.0281 111.318C36.6535 111.318 36.3188 111.399 36.0238 111.562C35.7321 111.724 35.5018 111.961 35.3327 112.273C35.1637 112.584 35.0792 112.962 35.0792 113.406ZM45.4164 110.364V111.358H41.459V110.364H45.4164ZM42.6124 108.534H43.7857V115.812C43.7857 116.144 43.8337 116.393 43.9299 116.558C44.0293 116.721 44.1552 116.83 44.3077 116.886C44.4635 116.939 44.6275 116.966 44.7999 116.966C44.9292 116.966 45.0352 116.959 45.1181 116.946C45.2009 116.929 45.2672 116.916 45.3169 116.906L45.5556 117.96C45.476 117.99 45.365 118.02 45.2225 118.05C45.08 118.083 44.8993 118.099 44.6806 118.099C44.3491 118.099 44.0243 118.028 43.7061 117.886C43.3913 117.743 43.1294 117.526 42.9206 117.234C42.7151 116.943 42.6124 116.575 42.6124 116.131V108.534ZM50.301 118.159C49.5652 118.159 48.9305 117.997 48.3968 117.672C47.8665 117.344 47.4572 116.886 47.1689 116.3C46.8838 115.71 46.7413 115.024 46.7413 114.241C46.7413 113.459 46.8838 112.77 47.1689 112.173C47.4572 111.573 47.8583 111.106 48.372 110.771C48.889 110.433 49.4922 110.264 50.1816 110.264C50.5794 110.264 50.9721 110.33 51.3599 110.463C51.7477 110.596 52.1007 110.811 52.4189 111.109C52.737 111.404 52.9906 111.795 53.1795 112.283C53.3684 112.77 53.4629 113.37 53.4629 114.082V114.58H47.5765V113.565H52.2697C52.2697 113.134 52.1835 112.75 52.0112 112.412C51.8422 112.074 51.6002 111.807 51.2853 111.612C50.9738 111.416 50.6059 111.318 50.1816 111.318C49.7143 111.318 49.31 111.434 48.9686 111.666C48.6305 111.895 48.3703 112.193 48.188 112.561C48.0057 112.929 47.9146 113.323 47.9146 113.744V114.42C47.9146 114.997 48.014 115.486 48.2129 115.887C48.4151 116.285 48.6951 116.588 49.0531 116.797C49.411 117.002 49.827 117.105 50.301 117.105C50.6092 117.105 50.8876 117.062 51.1362 116.976C51.3881 116.886 51.6052 116.754 51.7875 116.578C51.9698 116.399 52.1106 116.177 52.21 115.912L53.3436 116.23C53.2243 116.615 53.0237 116.953 52.742 117.244C52.4603 117.533 52.1123 117.758 51.698 117.92C51.2837 118.08 50.818 118.159 50.301 118.159ZM55.2477 118V110.364H56.3812V111.517H56.4608C56.6 111.139 56.8519 110.833 57.2164 110.597C57.581 110.362 57.992 110.244 58.4494 110.244C58.5356 110.244 58.6433 110.246 58.7725 110.249C58.9018 110.253 58.9996 110.258 59.0659 110.264V111.457C59.0261 111.447 58.935 111.433 58.7924 111.413C58.6532 111.389 58.5057 111.378 58.35 111.378C57.9788 111.378 57.6473 111.456 57.3556 111.612C57.0673 111.764 56.8386 111.976 56.6696 112.248C56.5038 112.516 56.421 112.823 56.421 113.168V118H55.2477ZM60.4567 118V110.364H61.63V118H60.4567ZM61.0533 109.091C60.8246 109.091 60.6274 109.013 60.4616 108.857C60.2992 108.701 60.218 108.514 60.218 108.295C60.218 108.077 60.2992 107.889 60.4616 107.734C60.6274 107.578 60.8246 107.5 61.0533 107.5C61.282 107.5 61.4775 107.578 61.6399 107.734C61.8056 107.889 61.8885 108.077 61.8885 108.295C61.8885 108.514 61.8056 108.701 61.6399 108.857C61.4775 109.013 61.282 109.091 61.0533 109.091ZM63.7789 118V110.364H64.9125V111.557H65.0119C65.171 111.149 65.4279 110.833 65.7825 110.607C66.1371 110.379 66.563 110.264 67.0602 110.264C67.564 110.264 67.9833 110.379 68.318 110.607C68.6561 110.833 68.9196 111.149 69.1085 111.557H69.188C69.3836 111.162 69.6769 110.849 70.068 110.617C70.4591 110.382 70.9281 110.264 71.475 110.264C72.1577 110.264 72.7162 110.478 73.1504 110.906C73.5846 111.33 73.8017 111.991 73.8017 112.889V118H72.6284V112.889C72.6284 112.326 72.4743 111.923 72.166 111.681C71.8578 111.439 71.4949 111.318 71.0772 111.318C70.5403 111.318 70.1243 111.481 69.8294 111.805C69.5344 112.127 69.3869 112.535 69.3869 113.028V118H68.1937V112.77C68.1937 112.336 68.0529 111.986 67.7711 111.721C67.4894 111.452 67.1265 111.318 66.6824 111.318C66.3774 111.318 66.0924 111.399 65.8272 111.562C65.5654 111.724 65.3533 111.95 65.1909 112.238C65.0318 112.523 64.9522 112.853 64.9522 113.227V118H63.7789ZM24.7066 139V128.818H25.8799V132.577H25.9793C26.0655 132.444 26.1848 132.275 26.3373 132.07C26.493 131.861 26.7151 131.675 27.0035 131.513C27.2951 131.347 27.6895 131.264 28.1867 131.264C28.8297 131.264 29.3965 131.425 29.887 131.746C30.3775 132.068 30.7603 132.524 31.0354 133.114C31.3105 133.704 31.4481 134.4 31.4481 135.202C31.4481 136.01 31.3105 136.711 31.0354 137.305C30.7603 137.895 30.3792 138.352 29.892 138.677C29.4047 138.998 28.843 139.159 28.2066 139.159C27.7161 139.159 27.3233 139.078 27.0283 138.915C26.7333 138.75 26.5063 138.562 26.3472 138.354C26.1881 138.142 26.0655 137.966 25.9793 137.827H25.8401V139H24.7066ZM25.86 135.182C25.86 135.759 25.9445 136.267 26.1135 136.708C26.2826 137.146 26.5295 137.489 26.8543 137.737C27.1791 137.982 27.5769 138.105 28.0475 138.105C28.538 138.105 28.9474 137.976 29.2755 137.717C29.6069 137.455 29.8555 137.104 30.0212 136.663C30.1903 136.219 30.2748 135.725 30.2748 135.182C30.2748 134.645 30.1919 134.161 30.0262 133.73C29.8638 133.296 29.6169 132.953 29.2854 132.701C28.9573 132.446 28.5447 132.318 28.0475 132.318C27.5702 132.318 27.1692 132.439 26.8444 132.681C26.5196 132.92 26.2743 133.254 26.1086 133.685C25.9429 134.113 25.86 134.612 25.86 135.182ZM34.4161 128.818V139H33.2428V128.818H34.4161ZM39.7668 139.159C39.031 139.159 38.3963 138.997 37.8627 138.672C37.3324 138.344 36.923 137.886 36.6347 137.3C36.3496 136.71 36.2071 136.024 36.2071 135.241C36.2071 134.459 36.3496 133.77 36.6347 133.173C36.923 132.573 37.3241 132.106 37.8378 131.771C38.3548 131.433 38.9581 131.264 39.6475 131.264C40.0452 131.264 40.4379 131.33 40.8257 131.463C41.2135 131.596 41.5665 131.811 41.8847 132.109C42.2029 132.404 42.4564 132.795 42.6453 133.283C42.8343 133.77 42.9287 134.37 42.9287 135.082V135.58H37.0423V134.565H41.7355C41.7355 134.134 41.6494 133.75 41.477 133.412C41.308 133.074 41.066 132.807 40.7512 132.612C40.4396 132.416 40.0717 132.318 39.6475 132.318C39.1801 132.318 38.7758 132.434 38.4344 132.666C38.0963 132.895 37.8361 133.193 37.6539 133.561C37.4716 133.929 37.3804 134.323 37.3804 134.744V135.42C37.3804 135.997 37.4798 136.486 37.6787 136.887C37.8809 137.285 38.161 137.588 38.5189 137.797C38.8769 138.002 39.2928 138.105 39.7668 138.105C40.075 138.105 40.3534 138.062 40.602 137.976C40.8539 137.886 41.071 137.754 41.2533 137.578C41.4356 137.399 41.5764 137.177 41.6759 136.912L42.8094 137.23C42.6901 137.615 42.4896 137.953 42.2078 138.244C41.9261 138.533 41.5781 138.758 41.1638 138.92C40.7495 139.08 40.2838 139.159 39.7668 139.159ZM47.9152 139.159C47.1794 139.159 46.5447 138.997 46.0111 138.672C45.4808 138.344 45.0715 137.886 44.7831 137.3C44.4981 136.71 44.3556 136.024 44.3556 135.241C44.3556 134.459 44.4981 133.77 44.7831 133.173C45.0715 132.573 45.4725 132.106 45.9862 131.771C46.5033 131.433 47.1065 131.264 47.7959 131.264C48.1936 131.264 48.5864 131.33 48.9742 131.463C49.3619 131.596 49.7149 131.811 50.0331 132.109C50.3513 132.404 50.6048 132.795 50.7938 133.283C50.9827 133.77 51.0771 134.37 51.0771 135.082V135.58H45.1908V134.565H49.884C49.884 134.134 49.7978 133.75 49.6254 133.412C49.4564 133.074 49.2145 132.807 48.8996 132.612C48.588 132.416 48.2201 132.318 47.7959 132.318C47.3286 132.318 46.9242 132.434 46.5828 132.666C46.2448 132.895 45.9846 133.193 45.8023 133.561C45.62 133.929 45.5289 134.323 45.5289 134.744V135.42C45.5289 135.997 45.6283 136.486 45.8271 136.887C46.0293 137.285 46.3094 137.588 46.6673 137.797C47.0253 138.002 47.4413 138.105 47.9152 138.105C48.2235 138.105 48.5019 138.062 48.7504 137.976C49.0023 137.886 49.2194 137.754 49.4017 137.578C49.584 137.399 49.7249 137.177 49.8243 136.912L50.9578 137.23C50.8385 137.615 50.638 137.953 50.3563 138.244C50.0745 138.533 49.7265 138.758 49.3122 138.92C48.8979 139.08 48.4323 139.159 47.9152 139.159ZM55.7455 139.159C55.1091 139.159 54.5473 138.998 54.0601 138.677C53.5729 138.352 53.1917 137.895 52.9166 137.305C52.6415 136.711 52.504 136.01 52.504 135.202C52.504 134.4 52.6415 133.704 52.9166 133.114C53.1917 132.524 53.5745 132.068 54.0651 131.746C54.5556 131.425 55.1224 131.264 55.7654 131.264C56.2625 131.264 56.6553 131.347 56.9436 131.513C57.2353 131.675 57.4574 131.861 57.6098 132.07C57.7656 132.275 57.8866 132.444 57.9727 132.577H58.0722V128.818H59.2455V139H58.1119V137.827H57.9727C57.8866 137.966 57.7639 138.142 57.6048 138.354C57.4458 138.562 57.2187 138.75 56.9237 138.915C56.6288 139.078 56.236 139.159 55.7455 139.159ZM55.9046 138.105C56.3752 138.105 56.7729 137.982 57.0977 137.737C57.4226 137.489 57.6695 137.146 57.8385 136.708C58.0075 136.267 58.0921 135.759 58.0921 135.182C58.0921 134.612 58.0092 134.113 57.8435 133.685C57.6778 133.254 57.4325 132.92 57.1077 132.681C56.7829 132.439 56.3818 132.318 55.9046 132.318C55.4074 132.318 54.9931 132.446 54.6617 132.701C54.3335 132.953 54.0866 133.296 53.9209 133.73C53.7585 134.161 53.6773 134.645 53.6773 135.182C53.6773 135.725 53.7602 136.219 53.9259 136.663C54.0949 137.104 54.3435 137.455 54.6716 137.717C55.003 137.976 55.414 138.105 55.9046 138.105ZM61.5573 139V131.364H62.7306V139H61.5573ZM62.1539 130.091C61.9252 130.091 61.728 130.013 61.5622 129.857C61.3998 129.701 61.3186 129.514 61.3186 129.295C61.3186 129.077 61.3998 128.889 61.5622 128.734C61.728 128.578 61.9252 128.5 62.1539 128.5C62.3825 128.5 62.5781 128.578 62.7405 128.734C62.9062 128.889 62.9891 129.077 62.9891 129.295C62.9891 129.514 62.9062 129.701 62.7405 129.857C62.5781 130.013 62.3825 130.091 62.1539 130.091ZM66.0528 134.406V139H64.8795V131.364H66.0131V132.557H66.1125C66.2915 132.169 66.5632 131.857 66.9278 131.622C67.2924 131.384 67.7631 131.264 68.3398 131.264C68.8568 131.264 69.3092 131.37 69.697 131.582C70.0848 131.791 70.3864 132.109 70.6018 132.537C70.8173 132.961 70.925 133.498 70.925 134.148V139H69.7517V134.227C69.7517 133.627 69.5959 133.16 69.2844 132.825C68.9728 132.487 68.5452 132.318 68.0017 132.318C67.6272 132.318 67.2924 132.399 66.9974 132.562C66.7058 132.724 66.4754 132.961 66.3064 133.273C66.1373 133.584 66.0528 133.962 66.0528 134.406ZM76.1514 142.023C75.5846 142.023 75.0974 141.95 74.6897 141.804C74.282 141.661 73.9423 141.473 73.6705 141.237C73.4021 141.005 73.1883 140.757 73.0292 140.491L73.9639 139.835C74.0699 139.974 74.2042 140.134 74.3666 140.312C74.529 140.495 74.751 140.652 75.0328 140.785C75.3178 140.921 75.6907 140.989 76.1514 140.989C76.7678 140.989 77.2766 140.839 77.6776 140.541C78.0787 140.243 78.2792 139.776 78.2792 139.139V137.588H78.1798C78.0936 137.727 77.971 137.9 77.8119 138.105C77.6561 138.307 77.4307 138.488 77.1357 138.647C76.8441 138.803 76.4497 138.881 75.9525 138.881C75.336 138.881 74.7825 138.735 74.292 138.443C73.8048 138.152 73.4186 137.727 73.1336 137.17C72.8519 136.614 72.711 135.937 72.711 135.142C72.711 134.36 72.8486 133.679 73.1237 133.099C73.3988 132.515 73.7816 132.065 74.2721 131.746C74.7626 131.425 75.3294 131.264 75.9724 131.264C76.4695 131.264 76.864 131.347 77.1556 131.513C77.4506 131.675 77.676 131.861 77.8318 132.07C77.9909 132.275 78.1135 132.444 78.1997 132.577H78.319V131.364H79.4525V139.219C79.4525 139.875 79.3034 140.409 79.0051 140.82C78.7101 141.234 78.3124 141.537 77.8119 141.729C77.3147 141.925 76.7612 142.023 76.1514 142.023ZM76.1116 137.827C76.5822 137.827 76.98 137.719 77.3048 137.504C77.6296 137.288 77.8765 136.978 78.0455 136.574C78.2146 136.17 78.2991 135.686 78.2991 135.122C78.2991 134.572 78.2162 134.086 78.0505 133.665C77.8848 133.245 77.6395 132.915 77.3147 132.676C76.9899 132.437 76.5889 132.318 76.1116 132.318C75.6144 132.318 75.2001 132.444 74.8687 132.696C74.5406 132.948 74.2936 133.286 74.1279 133.71C73.9655 134.134 73.8843 134.605 73.8843 135.122C73.8843 135.652 73.9672 136.121 74.1329 136.529C74.3019 136.933 74.5505 137.252 74.8786 137.484C75.2101 137.712 75.6211 137.827 76.1116 137.827Z" fill="black"/>
<g filter="url(#filter0_d_1467_2098)">
<rect x="1.5" y="1.5" width="101" height="197" rx="10.5" stroke="#ECECEC" shape-rendering="crispEdges"/>
</g>
<path d="M38.1387 53.1805C36.7363 55.5955 35.9987 58.3344 36 61.122C36.0013 63.9096 36.7414 66.6478 38.1461 69.0616C39.5507 71.4753 41.5703 73.4795 44.0021 74.873C46.4339 76.2664 49.1922 77 52 77C54.8078 77 57.5661 76.2664 59.9979 74.873C62.4297 73.4795 64.4493 71.4753 65.8539 69.0616C67.2586 66.6478 67.9987 63.9096 68 61.122C68.0013 58.3344 67.2637 55.5955 65.8613 53.1805L52.0027 32L38.136 53.1805H38.1387Z" stroke="#50C1BA" stroke-width="2" stroke-linecap="round" stroke-linejoin="round"/>
<defs>
<filter id="filter0_d_701_1473" x="0.5" y="0.5" width="104" height="200" filterUnits="userSpaceOnUse" color-interpolation-filters="sRGB">
<feFlood flood-opacity="0" result="BackgroundImageFix"/>
<feColorMatrix in="SourceAlpha" type="matrix" values="0 0 0 0 0 0 0 0 0 0 0 0 0 0 0 0 0 0 127 0" result="hardAlpha"/>
<feOffset dx="0.5" dy="0.5"/>
<feGaussianBlur stdDeviation="0.5"/>
<feComposite in2="hardAlpha" operator="out"/>
<feColorMatrix type="matrix" values="0 0 0 0 0 0 0 0 0 0 0 0 0 0 0 0 0 0 0.1 0"/>
<feBlend mode="normal" in2="BackgroundImageFix" result="effect1_dropShadow_1467_2098"/>
<feBlend mode="normal" in="SourceGraphic" in2="effect1_dropShadow_1467_2098" result="shape"/>
</filter>
</defs>
</svg>
