<svg width="62" height="57" viewBox="0 0 62 57" fill="none" xmlns="http://www.w3.org/2000/svg">
<g clip-path="url(#clip0_365_993)">
<path d="M25.1748 13.1663H36.3703" stroke="#A3A3A3" stroke-width="1.79927" stroke-linecap="round" stroke-linejoin="round"/>
<path d="M25.1748 18.7642H33.5714" stroke="#A3A3A3" stroke-width="1.79927" stroke-linecap="round" stroke-linejoin="round"/>
<path d="M26.5741 25.7613H22.3758C21.2623 25.7613 20.1945 25.319 19.4071 24.5316C18.6198 23.7443 18.1775 22.6764 18.1775 21.563V10.3675C18.1775 9.25404 18.6198 8.18618 19.4071 7.39885C20.1945 6.61151 21.2623 6.16919 22.3758 6.16919H39.169C40.2825 6.16919 41.3503 6.61151 42.1377 7.39885C42.925 8.18618 43.3673 9.25404 43.3673 10.3675V21.563C43.3673 22.6764 42.925 23.7443 42.1377 24.5316C41.3503 25.319 40.2825 25.7613 39.169 25.7613H34.9707L30.7724 29.9596L26.5741 25.7613Z" stroke="#A3A3A3" stroke-width="1.79927" stroke-linecap="round" stroke-linejoin="round"/>
</g>
<path d="M24.4562 44.1407H23.218C23.1448 43.7845 23.0166 43.4717 22.8336 43.2021C22.6538 42.9325 22.4341 42.7061 22.1745 42.5231C21.9182 42.3367 21.6336 42.1969 21.3208 42.1037C21.0079 42.0105 20.6817 41.9639 20.3422 41.9639C19.7231 41.9639 19.1623 42.1203 18.6597 42.4332C18.1604 42.7461 17.7626 43.2071 17.4664 43.8162C17.1735 44.4253 17.027 45.1725 17.027 46.0579C17.027 46.9433 17.1735 47.6905 17.4664 48.2996C17.7626 48.9087 18.1604 49.3697 18.6597 49.6826C19.1623 49.9955 19.7231 50.1519 20.3422 50.1519C20.6817 50.1519 21.0079 50.1053 21.3208 50.0121C21.6336 49.9189 21.9182 49.7808 22.1745 49.5977C22.4341 49.4113 22.6538 49.1833 22.8336 48.9137C23.0166 48.6408 23.1448 48.3279 23.218 47.9751H24.4562C24.363 48.4977 24.1932 48.9653 23.9469 49.378C23.7006 49.7908 23.3944 50.1419 23.0283 50.4315C22.6621 50.7177 22.2511 50.9358 21.7951 51.0855C21.3424 51.2353 20.8581 51.3102 20.3422 51.3102C19.4701 51.3102 18.6946 51.0972 18.0156 50.6711C17.3366 50.2451 16.8024 49.6393 16.4129 48.8538C16.0235 48.0683 15.8288 47.1363 15.8288 46.0579C15.8288 44.9795 16.0235 44.0475 16.4129 43.262C16.8024 42.4765 17.3366 41.8707 18.0156 41.4446C18.6946 41.0186 19.4701 40.8056 20.3422 40.8056C20.8581 40.8056 21.3424 40.8805 21.7951 41.0302C22.2511 41.18 22.6621 41.3997 23.0283 41.6893C23.3944 41.9755 23.7006 42.325 23.9469 42.7377C24.1932 43.1471 24.363 43.6148 24.4562 44.1407ZM27.4755 46.5572V51.1704H26.2972V40.9454H27.4755V44.6999H27.5754C27.7551 44.3038 28.0247 43.9892 28.3842 43.7563C28.747 43.5199 29.2296 43.4018 29.8321 43.4018C30.3546 43.4018 30.8123 43.5066 31.2051 43.7163C31.5978 43.9227 31.9024 44.2405 32.1187 44.6699C32.3384 45.096 32.4482 45.6385 32.4482 46.2975V51.1704H31.27V46.3774C31.27 45.7683 31.1119 45.2973 30.7957 44.9645C30.4828 44.6283 30.0484 44.4602 29.4926 44.4602C29.1065 44.4602 28.7603 44.5418 28.4541 44.7049C28.1512 44.868 27.9115 45.1059 27.7351 45.4188C27.5621 45.7317 27.4755 46.1111 27.4755 46.5572ZM36.8605 51.3501C36.3746 51.3501 35.9336 51.2586 35.5375 51.0755C35.1414 50.8892 34.8269 50.6212 34.5939 50.2717C34.3609 49.9189 34.2444 49.4929 34.2444 48.9936C34.2444 48.5542 34.3309 48.1981 34.504 47.9252C34.6771 47.6489 34.9084 47.4325 35.198 47.2761C35.4876 47.1197 35.8071 47.0032 36.1566 46.9266C36.5094 46.8467 36.8639 46.7835 37.22 46.7369C37.686 46.677 38.0638 46.632 38.3534 46.6021C38.6463 46.5688 38.8593 46.5139 38.9924 46.4373C39.1289 46.3608 39.1971 46.2276 39.1971 46.0379V45.998C39.1971 45.5054 39.0623 45.1226 38.7927 44.8497C38.5264 44.5767 38.122 44.4403 37.5795 44.4403C37.017 44.4403 36.576 44.5634 36.2564 44.8097C35.9369 45.056 35.7122 45.319 35.5824 45.5986L34.464 45.1991C34.6638 44.7332 34.93 44.3704 35.2629 44.1107C35.5991 43.8478 35.9652 43.6647 36.3613 43.5615C36.7607 43.455 37.1534 43.4018 37.5396 43.4018C37.7859 43.4018 38.0688 43.4317 38.3883 43.4916C38.7112 43.5482 39.0224 43.6664 39.3219 43.8461C39.6248 44.0259 39.8761 44.2971 40.0758 44.6599C40.2756 45.0227 40.3754 45.5087 40.3754 46.1178V51.1704H39.1971V50.1319H39.1372C39.0573 50.2984 38.9242 50.4764 38.7378 50.6661C38.5514 50.8559 38.3034 51.0173 37.9939 51.1504C37.6843 51.2836 37.3066 51.3501 36.8605 51.3501ZM37.0403 50.2917C37.5063 50.2917 37.899 50.2002 38.2186 50.0171C38.5414 49.834 38.7844 49.5977 38.9475 49.3081C39.1139 49.0186 39.1971 48.714 39.1971 48.3945V47.316C39.1472 47.376 39.0374 47.4309 38.8676 47.4808C38.7012 47.5274 38.5081 47.569 38.2885 47.6056C38.0721 47.6389 37.8607 47.6689 37.6544 47.6955C37.4513 47.7188 37.2866 47.7388 37.1601 47.7554C36.8539 47.7953 36.5676 47.8602 36.3014 47.9501C36.0384 48.0367 35.8254 48.1681 35.6623 48.3445C35.5025 48.5176 35.4226 48.7539 35.4226 49.0535C35.4226 49.4629 35.5741 49.7725 35.877 49.9821C36.1832 50.1885 36.571 50.2917 37.0403 50.2917ZM45.8611 43.5016V44.5002H41.8869V43.5016H45.8611ZM43.0453 41.6643H44.2235V48.9736C44.2235 49.3065 44.2718 49.5561 44.3683 49.7225C44.4682 49.8856 44.5947 49.9955 44.7478 50.052C44.9042 50.1053 45.069 50.1319 45.242 50.1319C45.3718 50.1319 45.4784 50.1253 45.5616 50.112C45.6448 50.0953 45.7114 50.082 45.7613 50.072L46.0009 51.1305C45.921 51.1604 45.8095 51.1904 45.6664 51.2203C45.5233 51.2536 45.3419 51.2703 45.1222 51.2703C44.7894 51.2703 44.4632 51.1987 44.1436 51.0556C43.8274 50.9125 43.5645 50.6944 43.3548 50.4015C43.1484 50.1086 43.0453 49.7392 43.0453 49.2932V41.6643Z" fill="#A3A3A3"/>
<defs>
<clipPath id="clip0_365_993">
<rect width="33.5864" height="33.5864" fill="white" transform="translate(13.9792 0.571289)"/>
</clipPath>
</defs>
</svg>
