<svg width="58" height="57" viewBox="0 0 58 57" fill="none" xmlns="http://www.w3.org/2000/svg">
<g clip-path="url(#clip0_365_1000)">
<path d="M23.0601 10.3673C23.0601 11.8519 23.6498 13.2757 24.6996 14.3255C25.7494 15.3753 27.1732 15.965 28.6578 15.965C30.1424 15.965 31.5662 15.3753 32.616 14.3255C33.6658 13.2757 34.2555 11.8519 34.2555 10.3673C34.2555 8.88266 33.6658 7.45885 32.616 6.40907C31.5662 5.35929 30.1424 4.76953 28.6578 4.76953C27.1732 4.76953 25.7494 5.35929 24.6996 6.40907C23.6498 7.45885 23.0601 8.88266 23.0601 10.3673Z" stroke="#A3A3A3" stroke-width="1.79927" stroke-linecap="round" stroke-linejoin="round"/>
<path d="M20.2612 29.9594V27.1605C20.2612 25.6759 20.851 24.2521 21.9008 23.2023C22.9506 22.1525 24.3744 21.5627 25.859 21.5627H31.4567C32.9413 21.5627 34.3651 22.1525 35.4149 23.2023C36.4647 24.2521 37.0545 25.6759 37.0545 27.1605V29.9594" stroke="#A3A3A3" stroke-width="1.79927" stroke-linecap="round" stroke-linejoin="round"/>
</g>
<path d="M12.8707 51.1704V40.9454H16.3257C17.1278 40.9454 17.7835 41.0901 18.2928 41.3797C18.8054 41.666 19.1848 42.0537 19.4311 42.543C19.6774 43.0323 19.8006 43.5782 19.8006 44.1806C19.8006 44.7831 19.6774 45.3306 19.4311 45.8232C19.1881 46.3158 18.812 46.7086 18.3028 47.0015C17.7935 47.2911 17.1411 47.4359 16.3456 47.4359H13.8693V46.3375H16.3057C16.8549 46.3375 17.2959 46.2426 17.6288 46.0529C17.9616 45.8632 18.2029 45.6069 18.3527 45.284C18.5058 44.9578 18.5824 44.59 18.5824 44.1806C18.5824 43.7712 18.5058 43.4051 18.3527 43.0822C18.2029 42.7594 17.9599 42.5064 17.6238 42.3233C17.2876 42.137 16.8416 42.0438 16.2857 42.0438H14.1089V51.1704H12.8707ZM21.6354 51.1704V43.5016H22.7737V44.6599H22.8536C22.9934 44.2805 23.2464 43.9726 23.6125 43.7363C23.9786 43.5 24.3914 43.3818 24.8507 43.3818C24.9372 43.3818 25.0454 43.3835 25.1752 43.3868C25.305 43.3901 25.4032 43.3951 25.4698 43.4018V44.6C25.4298 44.59 25.3383 44.5751 25.1952 44.5551C25.0554 44.5318 24.9073 44.5201 24.7508 44.5201C24.3781 44.5201 24.0452 44.5984 23.7523 44.7548C23.4627 44.9079 23.2331 45.1209 23.0633 45.3939C22.8969 45.6635 22.8137 45.9713 22.8137 46.3175V51.1704H21.6354ZM29.7485 51.3302C29.0562 51.3302 28.4488 51.1654 27.9262 50.8359C27.407 50.5064 27.0009 50.0454 26.708 49.4529C26.4184 48.8605 26.2736 48.1681 26.2736 47.376C26.2736 46.5771 26.4184 45.8798 26.708 45.284C27.0009 44.6882 27.407 44.2256 27.9262 43.896C28.4488 43.5665 29.0562 43.4018 29.7485 43.4018C30.4409 43.4018 31.0466 43.5665 31.5659 43.896C32.0884 44.2256 32.4945 44.6882 32.7841 45.284C33.077 45.8798 33.2235 46.5771 33.2235 47.376C33.2235 48.1681 33.077 48.8605 32.7841 49.4529C32.4945 50.0454 32.0884 50.5064 31.5659 50.8359C31.0466 51.1654 30.4409 51.3302 29.7485 51.3302ZM29.7485 50.2717C30.2744 50.2717 30.7071 50.1369 31.0466 49.8673C31.3861 49.5977 31.6374 49.2432 31.8005 48.8039C31.9636 48.3645 32.0452 47.8885 32.0452 47.376C32.0452 46.8634 31.9636 46.3857 31.8005 45.9431C31.6374 45.5004 31.3861 45.1426 31.0466 44.8696C30.7071 44.5967 30.2744 44.4602 29.7485 44.4602C29.2226 44.4602 28.7899 44.5967 28.4504 44.8696C28.1109 45.1426 27.8596 45.5004 27.6965 45.9431C27.5334 46.3857 27.4519 46.8634 27.4519 47.376C27.4519 47.8885 27.5334 48.3645 27.6965 48.8039C27.8596 49.2432 28.1109 49.5977 28.4504 49.8673C28.7899 50.1369 29.2226 50.2717 29.7485 50.2717ZM38.4371 43.5016V44.5002H34.3031V43.5016H38.4371ZM35.5413 51.1704V42.4432C35.5413 42.0038 35.6445 41.6377 35.8509 41.3448C36.0572 41.0519 36.3252 40.8322 36.6547 40.6857C36.9842 40.5393 37.332 40.4661 37.6982 40.4661C37.9877 40.4661 38.2241 40.4894 38.4071 40.536C38.5902 40.5826 38.7267 40.6258 38.8165 40.6658L38.477 41.6843C38.4171 41.6643 38.3339 41.6393 38.2274 41.6094C38.1242 41.5794 37.9877 41.5645 37.818 41.5645C37.4286 41.5645 37.1473 41.6626 36.9742 41.859C36.8045 42.0554 36.7196 42.3433 36.7196 42.7228V51.1704H35.5413ZM40.0884 51.1704V43.5016H41.2667V51.1704H40.0884ZM40.6875 42.2235C40.4579 42.2235 40.2598 42.1453 40.0934 41.9888C39.9303 41.8324 39.8488 41.6443 39.8488 41.4247C39.8488 41.205 39.9303 41.0169 40.0934 40.8605C40.2598 40.704 40.4579 40.6258 40.6875 40.6258C40.9172 40.6258 41.1136 40.704 41.2767 40.8605C41.4431 41.0169 41.5263 41.205 41.5263 41.4247C41.5263 41.6443 41.4431 41.8324 41.2767 41.9888C41.1136 42.1453 40.9172 42.2235 40.6875 42.2235ZM44.6031 40.9454V51.1704H43.4248V40.9454H44.6031Z" fill="#A3A3A3"/>
<defs>
<clipPath id="clip0_365_1000">
<rect width="33.5864" height="33.5864" fill="white" transform="translate(11.8645 0.571289)"/>
</clipPath>
</defs>
</svg>
