<svg width="55" height="57" viewBox="0 0 55 57" fill="none" xmlns="http://www.w3.org/2000/svg">
<g clip-path="url(#clip0_365_971)">
<path d="M18.0626 17.3643H15.2634L27.8597 4.76807L40.4559 17.3643H37.6568" stroke="#50C1BA" stroke-width="1.57483" stroke-linecap="round" stroke-linejoin="round"/>
<path d="M18.063 17.3643V27.1613C18.063 27.9037 18.3579 28.6157 18.8828 29.1407C19.4078 29.6656 20.1198 29.9605 20.8622 29.9605H34.858C35.6004 29.9605 36.3124 29.6656 36.8373 29.1407C37.3622 28.6157 37.6572 27.9037 37.6572 27.1613V17.3643" stroke="#50C1BA" stroke-width="1.57483" stroke-linecap="round" stroke-linejoin="round"/>
<path d="M23.6611 29.9606V21.5631C23.6611 20.8207 23.956 20.1087 24.481 19.5838C25.0059 19.0588 25.7179 18.7639 26.4603 18.7639H29.2595C30.0019 18.7639 30.7138 19.0588 31.2388 19.5838C31.7637 20.1087 32.0586 20.8207 32.0586 21.5631V29.9606" stroke="#50C1BA" stroke-width="1.57483" stroke-linecap="round" stroke-linejoin="round"/>
</g>
<path d="M18.2828 43.5033C18.2228 42.9974 17.9799 42.6046 17.5538 42.3251C17.1278 42.0455 16.6052 41.9057 15.9861 41.9057C15.5334 41.9057 15.1374 41.9789 14.7979 42.1253C14.4617 42.2718 14.1987 42.4732 14.009 42.7295C13.8226 42.9858 13.7294 43.277 13.7294 43.6032C13.7294 43.8761 13.7943 44.1108 13.9241 44.3072C14.0573 44.5002 14.227 44.6616 14.4334 44.7914C14.6397 44.9179 14.8561 45.0228 15.0824 45.106C15.3088 45.1859 15.5168 45.2508 15.7065 45.3007L16.745 45.5803C17.0113 45.6502 17.3075 45.7467 17.6337 45.8699C17.9632 45.993 18.2778 46.1611 18.5773 46.3741C18.8802 46.5838 19.1299 46.8534 19.3262 47.183C19.5226 47.5125 19.6208 47.9169 19.6208 48.3962C19.6208 48.9487 19.476 49.448 19.1864 49.894C18.9002 50.34 18.4808 50.6945 17.9283 50.9574C17.3791 51.2204 16.7117 51.3519 15.9262 51.3519C15.1939 51.3519 14.5599 51.2337 14.024 50.9974C13.4914 50.7611 13.072 50.4315 12.7658 50.0088C12.4629 49.5861 12.2915 49.0952 12.2516 48.536H13.5297C13.563 48.9221 13.6928 49.2416 13.9191 49.4946C14.1488 49.7442 14.4384 49.9306 14.7879 50.0538C15.1407 50.1736 15.5201 50.2335 15.9262 50.2335C16.3988 50.2335 16.8232 50.1569 17.1993 50.0038C17.5755 49.8474 17.8734 49.631 18.093 49.3548C18.3127 49.0752 18.4226 48.749 18.4226 48.3762C18.4226 48.0367 18.3277 47.7604 18.138 47.5474C17.9482 47.3344 17.6986 47.1613 17.3891 47.0282C17.0795 46.895 16.745 46.7785 16.3855 46.6787L15.1274 46.3192C14.3285 46.0896 13.6961 45.7617 13.2301 45.3357C12.7642 44.9096 12.5312 44.3521 12.5312 43.6631C12.5312 43.0906 12.6859 42.5913 12.9955 42.1653C13.3084 41.7359 13.7277 41.4031 14.2536 41.1667C14.7829 40.9271 15.3737 40.8073 16.0261 40.8073C16.6851 40.8073 17.2709 40.9254 17.7835 41.1618C18.2961 41.3947 18.7021 41.7143 19.0017 42.1204C19.3046 42.5264 19.4644 42.9874 19.481 43.5033H18.2828ZM24.8319 43.5033V44.5019H20.8577V43.5033H24.8319ZM22.016 41.666H23.1943V48.9753C23.1943 49.3082 23.2426 49.5578 23.3391 49.7242C23.439 49.8873 23.5654 49.9972 23.7186 50.0538C23.875 50.107 24.0398 50.1336 24.2128 50.1336C24.3426 50.1336 24.4492 50.127 24.5324 50.1137C24.6156 50.097 24.6821 50.0837 24.7321 50.0737L24.9717 51.1322C24.8918 51.1621 24.7803 51.1921 24.6372 51.222C24.4941 51.2553 24.3127 51.272 24.093 51.272C23.7602 51.272 23.434 51.2004 23.1144 51.0573C22.7982 50.9142 22.5353 50.6961 22.3256 50.4032C22.1192 50.1103 22.016 49.7409 22.016 49.2949V41.666ZM28.861 51.3519C28.3751 51.3519 27.9341 51.2603 27.538 51.0773C27.1419 50.8909 26.8273 50.6229 26.5944 50.2734C26.3614 49.9206 26.2449 49.4946 26.2449 48.9953C26.2449 48.5559 26.3314 48.1998 26.5045 47.9269C26.6776 47.6506 26.9089 47.4343 27.1985 47.2778C27.488 47.1214 27.8076 47.0049 28.1571 46.9283C28.5099 46.8484 28.8644 46.7852 29.2205 46.7386C29.6865 46.6787 30.0643 46.6338 30.3539 46.6038C30.6468 46.5705 30.8598 46.5156 30.9929 46.439C31.1294 46.3625 31.1976 46.2293 31.1976 46.0396V45.9997C31.1976 45.5071 31.0628 45.1243 30.7932 44.8514C30.5269 44.5784 30.1225 44.442 29.58 44.442C29.0175 44.442 28.5765 44.5651 28.2569 44.8114C27.9374 45.0577 27.7127 45.3207 27.5829 45.6003L26.4645 45.2008C26.6643 44.7349 26.9305 44.3721 27.2634 44.1124C27.5996 43.8495 27.9657 43.6664 28.3618 43.5632C28.7612 43.4567 29.1539 43.4035 29.54 43.4035C29.7864 43.4035 30.0693 43.4334 30.3888 43.4933C30.7117 43.5499 31.0229 43.6681 31.3224 43.8478C31.6253 44.0276 31.8766 44.2988 32.0763 44.6616C32.276 45.0244 32.3759 45.5104 32.3759 46.1195V51.1721H31.1976V50.1336H31.1377C31.0578 50.3001 30.9247 50.4781 30.7383 50.6679C30.5519 50.8576 30.3039 51.019 29.9944 51.1521C29.6848 51.2853 29.3071 51.3519 28.861 51.3519ZM29.0408 50.2934C29.5068 50.2934 29.8995 50.2019 30.2191 50.0188C30.5419 49.8357 30.7849 49.5994 30.948 49.3098C31.1144 49.0203 31.1976 48.7157 31.1976 48.3962V47.3178C31.1477 47.3777 31.0379 47.4326 30.8681 47.4825C30.7017 47.5291 30.5086 47.5707 30.289 47.6073C30.0726 47.6406 29.8612 47.6706 29.6549 47.6972C29.4518 47.7205 29.2871 47.7405 29.1606 47.7571C28.8544 47.7971 28.5681 47.862 28.3019 47.9518C28.0389 48.0384 27.8259 48.1698 27.6628 48.3463C27.503 48.5193 27.4231 48.7557 27.4231 49.0552C27.4231 49.4646 27.5746 49.7742 27.8775 49.9839C28.1837 50.1902 28.5715 50.2934 29.0408 50.2934ZM34.5265 51.1721V43.5033H35.6648V44.6616H35.7447C35.8845 44.2822 36.1375 43.9743 36.5036 43.738C36.8697 43.5017 37.2825 43.3835 37.7418 43.3835C37.8283 43.3835 37.9365 43.3852 38.0663 43.3885C38.1961 43.3918 38.2943 43.3968 38.3609 43.4035V44.6017C38.321 44.5917 38.2294 44.5768 38.0863 44.5568C37.9465 44.5335 37.7984 44.5218 37.642 44.5218C37.2692 44.5218 36.9363 44.6001 36.6434 44.7565C36.3538 44.9096 36.1242 45.1226 35.9544 45.3956C35.788 45.6652 35.7048 45.9731 35.7048 46.3192V51.1721H34.5265ZM43.5733 43.5033V44.5019H39.5991V43.5033H43.5733ZM40.7574 41.666H41.9357V48.9753C41.9357 49.3082 41.9839 49.5578 42.0805 49.7242C42.1803 49.8873 42.3068 49.9972 42.4599 50.0538C42.6163 50.107 42.7811 50.1336 42.9542 50.1336C43.084 50.1336 43.1905 50.127 43.2737 50.1137C43.3569 50.097 43.4235 50.0837 43.4734 50.0737L43.7131 51.1322C43.6332 51.1621 43.5217 51.1921 43.3786 51.222C43.2354 51.2553 43.054 51.272 42.8344 51.272C42.5015 51.272 42.1753 51.2004 41.8558 51.0573C41.5396 50.9142 41.2766 50.6961 41.0669 50.4032C40.8606 50.1103 40.7574 49.7409 40.7574 49.2949V41.666Z" fill="#50C1BA"/>
<defs>
<clipPath id="clip0_365_971">
<rect width="33.59" height="33.59" fill="white" transform="translate(11.0649 0.569336)"/>
</clipPath>
</defs>
</svg>
