<svg width="106" height="202" viewBox="0 0 106 202" fill="none" xmlns="http://www.w3.org/2000/svg">
<path d="M37.4672 118L34.6831 107.818H35.9359L38.0637 116.111H38.1632L40.3308 107.818H41.7228L43.8904 116.111H43.9899L46.1177 107.818H47.3706L44.5865 118H43.3137L41.0666 109.886H40.987L38.7399 118H37.4672ZM51.2385 118.159C50.5027 118.159 49.868 117.997 49.3343 117.672C48.804 117.344 48.3947 116.886 48.1064 116.3C47.8213 115.71 47.6788 115.024 47.6788 114.241C47.6788 113.459 47.8213 112.77 48.1064 112.173C48.3947 111.573 48.7958 111.106 49.3095 110.771C49.8265 110.433 50.4297 110.264 51.1191 110.264C51.5169 110.264 51.9096 110.33 52.2974 110.463C52.6852 110.596 53.0382 110.811 53.3564 111.109C53.6745 111.404 53.9281 111.795 54.117 112.283C54.3059 112.77 54.4004 113.37 54.4004 114.082V114.58H48.514V113.565H53.2072C53.2072 113.134 53.121 112.75 52.9487 112.412C52.7797 112.074 52.5377 111.807 52.2228 111.612C51.9113 111.416 51.5434 111.318 51.1191 111.318C50.6518 111.318 50.2475 111.434 49.9061 111.666C49.568 111.895 49.3078 112.193 49.1255 112.561C48.9432 112.929 48.8521 113.323 48.8521 113.744V114.42C48.8521 114.997 48.9515 115.486 49.1504 115.887C49.3526 116.285 49.6326 116.588 49.9906 116.797C50.3485 117.002 50.7645 117.105 51.2385 117.105C51.5467 117.105 51.8251 117.062 52.0737 116.976C52.3256 116.886 52.5427 116.754 52.725 116.578C52.9073 116.399 53.0481 116.177 53.1475 115.912L54.2811 116.23C54.1618 116.615 53.9612 116.953 53.6795 117.244C53.3978 117.533 53.0498 117.758 52.6355 117.92C52.2212 118.08 51.7555 118.159 51.2385 118.159ZM58.4324 118.179C57.9484 118.179 57.5093 118.088 57.1149 117.906C56.7205 117.72 56.4073 117.453 56.1752 117.105C55.9432 116.754 55.8272 116.33 55.8272 115.832C55.8272 115.395 55.9134 115.04 56.0858 114.768C56.2581 114.493 56.4885 114.278 56.7768 114.122C57.0652 113.966 57.3833 113.85 57.7314 113.774C58.0827 113.695 58.4357 113.632 58.7903 113.585C59.2543 113.526 59.6305 113.481 59.9189 113.451C60.2105 113.418 60.4226 113.363 60.5552 113.287C60.6911 113.211 60.7591 113.078 60.7591 112.889V112.849C60.7591 112.359 60.6248 111.978 60.3564 111.706C60.0912 111.434 59.6885 111.298 59.1483 111.298C58.5881 111.298 58.149 111.421 57.8308 111.666C57.5126 111.911 57.2889 112.173 57.1596 112.452L56.046 112.054C56.2449 111.59 56.51 111.229 56.8414 110.97C57.1762 110.708 57.5408 110.526 57.9352 110.423C58.3329 110.317 58.724 110.264 59.1085 110.264C59.3538 110.264 59.6355 110.294 59.9537 110.354C60.2752 110.41 60.585 110.528 60.8833 110.707C61.185 110.886 61.4352 111.156 61.6341 111.517C61.8329 111.878 61.9324 112.362 61.9324 112.969V118H60.7591V116.966H60.6994C60.6199 117.132 60.4873 117.309 60.3017 117.498C60.1161 117.687 59.8691 117.848 59.5609 117.98C59.2527 118.113 58.8765 118.179 58.4324 118.179ZM58.6113 117.125C59.0753 117.125 59.4664 117.034 59.7846 116.852C60.1061 116.669 60.3481 116.434 60.5105 116.146C60.6762 115.857 60.7591 115.554 60.7591 115.236V114.162C60.7093 114.222 60.6 114.276 60.4309 114.326C60.2652 114.372 60.073 114.414 59.8542 114.45C59.6388 114.483 59.4283 114.513 59.2228 114.54C59.0207 114.563 58.8566 114.583 58.7306 114.599C58.4257 114.639 58.1407 114.704 57.8755 114.793C57.6137 114.879 57.4016 115.01 57.2392 115.186C57.0801 115.358 57.0005 115.594 57.0005 115.892C57.0005 116.3 57.1513 116.608 57.4529 116.817C57.7579 117.022 58.144 117.125 58.6113 117.125ZM65.1676 115.216L65.1477 113.764H65.3864L68.7273 110.364H70.179L66.6193 113.963H66.5199L65.1676 115.216ZM64.0739 118V107.818H65.2472V118H64.0739ZM68.9261 118L65.9432 114.222L66.7784 113.406L70.4176 118H68.9261Z" fill="black"/>
<g filter="url(#filter0_d_1467_2097)">
<rect x="1.5" y="1.5" width="101" height="197" rx="10.5" stroke="#ECECEC" shape-rendering="crispEdges"/>
</g>
<path d="M38.1387 53.1805C36.7363 55.5955 35.9987 58.3344 36 61.122C36.0013 63.9096 36.7414 66.6478 38.1461 69.0616C39.5507 71.4753 41.5703 73.4795 44.0021 74.873C46.4339 76.2664 49.1922 77 52 77C54.8078 77 57.5661 76.2664 59.9979 74.873C62.4297 73.4795 64.4493 71.4753 65.8539 69.0616C67.2586 66.6478 67.9987 63.9096 68 61.122C68.0013 58.3344 67.2637 55.5955 65.8613 53.1805L52.0027 32L38.136 53.1805H38.1387Z" fill="#50C1BA" fill-opacity="0.2"/>
<defs>
<filter id="filter0_d_701_1473" x="0.5" y="0.5" width="104" height="200" filterUnits="userSpaceOnUse" color-interpolation-filters="sRGB">
<feFlood flood-opacity="0" result="BackgroundImageFix"/>
<feColorMatrix in="SourceAlpha" type="matrix" values="0 0 0 0 0 0 0 0 0 0 0 0 0 0 0 0 0 0 127 0" result="hardAlpha"/>
<feOffset dx="0.5" dy="0.5"/>
<feGaussianBlur stdDeviation="0.5"/>
<feComposite in2="hardAlpha" operator="out"/>
<feColorMatrix type="matrix" values="0 0 0 0 0 0 0 0 0 0 0 0 0 0 0 0 0 0 0.1 0"/>
<feBlend mode="normal" in2="BackgroundImageFix" result="effect1_dropShadow_1467_2097"/>
<feBlend mode="normal" in="SourceGraphic" in2="effect1_dropShadow_1467_2097" result="shape"/>
</filter>
</defs>
</svg>
