<svg width="106" height="202" viewBox="0 0 106 202" fill="none" xmlns="http://www.w3.org/2000/svg">
<path d="M41.9379 110.364C41.8782 109.86 41.6362 109.469 41.212 109.19C40.7878 108.912 40.2674 108.773 39.6509 108.773C39.2002 108.773 38.8058 108.846 38.4677 108.991C38.1329 109.137 37.8711 109.338 37.6822 109.593C37.4966 109.848 37.4038 110.138 37.4038 110.463C37.4038 110.735 37.4684 110.969 37.5977 111.164C37.7302 111.356 37.8993 111.517 38.1048 111.646C38.3103 111.772 38.5257 111.877 38.7511 111.96C38.9764 112.039 39.1836 112.104 39.3725 112.153L40.4066 112.432C40.6718 112.501 40.9667 112.598 41.2915 112.72C41.6197 112.843 41.9329 113.01 42.2312 113.222C42.5328 113.431 42.7814 113.7 42.9769 114.028C43.1725 114.356 43.2702 114.759 43.2702 115.236C43.2702 115.786 43.1261 116.283 42.8377 116.727C42.5527 117.171 42.1351 117.524 41.5849 117.786C41.038 118.048 40.3735 118.179 39.5913 118.179C38.8621 118.179 38.2307 118.061 37.6971 117.826C37.1668 117.591 36.7492 117.263 36.4442 116.842C36.1426 116.421 35.9719 115.932 35.9322 115.375H37.2049C37.238 115.759 37.3673 116.078 37.5927 116.33C37.8214 116.578 38.1097 116.764 38.4577 116.886C38.8091 117.006 39.1869 117.065 39.5913 117.065C40.0619 117.065 40.4845 116.989 40.859 116.837C41.2335 116.681 41.5302 116.465 41.7489 116.19C41.9677 115.912 42.0771 115.587 42.0771 115.216C42.0771 114.878 41.9826 114.603 41.7937 114.391C41.6048 114.179 41.3562 114.006 41.0479 113.874C40.7397 113.741 40.4066 113.625 40.0487 113.526L38.7958 113.168C38.0004 112.939 37.3706 112.612 36.9066 112.188C36.4426 111.764 36.2106 111.209 36.2106 110.523C36.2106 109.953 36.3647 109.455 36.6729 109.031C36.9845 108.604 37.4021 108.272 37.9258 108.037C38.4528 107.798 39.0411 107.679 39.6907 107.679C40.3469 107.679 40.9303 107.797 41.4407 108.032C41.9511 108.264 42.3555 108.582 42.6538 108.987C42.9554 109.391 43.1145 109.85 43.131 110.364H41.9379ZM48.4593 110.364V111.358H44.502V110.364H48.4593ZM45.6554 108.534H46.8287V115.812C46.8287 116.144 46.8767 116.393 46.9728 116.558C47.0723 116.721 47.1982 116.83 47.3507 116.886C47.5065 116.939 47.6705 116.966 47.8429 116.966C47.9721 116.966 48.0782 116.959 48.161 116.946C48.2439 116.929 48.3102 116.916 48.3599 116.906L48.5985 117.96C48.519 117.99 48.408 118.02 48.2654 118.05C48.1229 118.083 47.9423 118.099 47.7235 118.099C47.3921 118.099 47.0673 118.028 46.7491 117.886C46.4342 117.743 46.1724 117.526 45.9636 117.234C45.7581 116.943 45.6554 116.575 45.6554 116.131V108.534ZM52.4714 118.179C51.9875 118.179 51.5484 118.088 51.1539 117.906C50.7595 117.72 50.4463 117.453 50.2143 117.105C49.9823 116.754 49.8663 116.33 49.8663 115.832C49.8663 115.395 49.9525 115.04 50.1248 114.768C50.2972 114.493 50.5275 114.278 50.8159 114.122C51.1042 113.966 51.4224 113.85 51.7704 113.774C52.1217 113.695 52.4747 113.632 52.8294 113.585C53.2934 113.526 53.6696 113.481 53.9579 113.451C54.2496 113.418 54.4617 113.363 54.5943 113.287C54.7302 113.211 54.7981 113.078 54.7981 112.889V112.849C54.7981 112.359 54.6639 111.978 54.3954 111.706C54.1303 111.434 53.7276 111.298 53.1873 111.298C52.6272 111.298 52.188 111.421 51.8699 111.666C51.5517 111.911 51.3279 112.173 51.1987 112.452L50.085 112.054C50.2839 111.59 50.5491 111.229 50.8805 110.97C51.2153 110.708 51.5798 110.526 51.9743 110.423C52.372 110.317 52.7631 110.264 53.1475 110.264C53.3928 110.264 53.6745 110.294 53.9927 110.354C54.3142 110.41 54.6241 110.528 54.9224 110.707C55.224 110.886 55.4743 111.156 55.6731 111.517C55.872 111.878 55.9714 112.362 55.9714 112.969V118H54.7981V116.966H54.7385C54.6589 117.132 54.5263 117.309 54.3407 117.498C54.1551 117.687 53.9082 117.848 53.6 117.98C53.2917 118.113 52.9155 118.179 52.4714 118.179ZM52.6504 117.125C53.1144 117.125 53.5055 117.034 53.8237 116.852C54.1452 116.669 54.3871 116.434 54.5495 116.146C54.7153 115.857 54.7981 115.554 54.7981 115.236V114.162C54.7484 114.222 54.639 114.276 54.47 114.326C54.3043 114.372 54.112 114.414 53.8933 114.45C53.6779 114.483 53.4674 114.513 53.2619 114.54C53.0597 114.563 52.8957 114.583 52.7697 114.599C52.4648 114.639 52.1797 114.704 51.9146 114.793C51.6528 114.879 51.4406 115.01 51.2782 115.186C51.1191 115.358 51.0396 115.594 51.0396 115.892C51.0396 116.3 51.1904 116.608 51.492 116.817C51.7969 117.022 52.1831 117.125 52.6504 117.125ZM58.1129 118V110.364H59.2464V111.517H59.326C59.4652 111.139 59.7171 110.833 60.0817 110.597C60.4463 110.362 60.8572 110.244 61.3146 110.244C61.4008 110.244 61.5085 110.246 61.6378 110.249C61.767 110.253 61.8648 110.258 61.9311 110.264V111.457C61.8913 111.447 61.8002 111.433 61.6577 111.413C61.5185 111.389 61.371 111.378 61.2152 111.378C60.844 111.378 60.5125 111.456 60.2209 111.612C59.9325 111.764 59.7038 111.976 59.5348 112.248C59.3691 112.516 59.2862 112.823 59.2862 113.168V118H58.1129ZM64.4157 115.216L64.3958 113.764H64.6344L67.9753 110.364H69.427L65.8674 113.963H65.7679L64.4157 115.216ZM63.3219 118V107.818H64.4952V118H63.3219ZM68.1742 118L65.1912 114.222L66.0265 113.406L69.6657 118H68.1742Z" fill="black"/>
<g filter="url(#filter0_d_1467_2095)">
<rect x="1.5" y="1.5" width="101" height="197" rx="10.5" stroke="#ECECEC" shape-rendering="crispEdges"/>
</g>
<path d="M38.1387 53.1805C36.7363 55.5955 35.9987 58.3344 36 61.122C36.0013 63.9096 36.7414 66.6478 38.1461 69.0616C39.5507 71.4753 41.5703 73.4795 44.0021 74.873C46.4339 76.2664 49.1922 77 52 77C54.8078 77 57.5661 76.2664 59.9979 74.873C62.4297 73.4795 64.4493 71.4753 65.8539 69.0616C67.2586 66.6478 67.9987 63.9096 68 61.122C68.0013 58.3344 67.2637 55.5955 65.8613 53.1805L52.0027 32L38.136 53.1805H38.1387Z" fill="#50C1BA"/>
<defs>
<filter id="filter0_d_1467_2095" x="0" y="0" width="106" height="202" filterUnits="userSpaceOnUse" color-interpolation-filters="sRGB">
<feFlood flood-opacity="0" result="BackgroundImageFix"/>
<feColorMatrix in="SourceAlpha" type="matrix" values="0 0 0 0 0 0 0 0 0 0 0 0 0 0 0 0 0 0 127 0" result="hardAlpha"/>
<feOffset dx="0.5" dy="0.5"/>
<feGaussianBlur stdDeviation="0.5"/>
<feComposite in2="hardAlpha" operator="out"/>
<feColorMatrix type="matrix" values="0 0 0 0 0 0 0 0 0 0 0 0 0 0 0 0 0 0 0.1 0"/>
<feBlend mode="normal" in2="BackgroundImageFix" result="effect1_dropShadow_1467_2095"/>
<feBlend mode="normal" in="SourceGraphic" in2="effect1_dropShadow_1467_2095" result="shape"/>
</filter>
</defs>
</svg>
