<svg width="106" height="202" viewBox="0 0 106 202" fill="none" xmlns="http://www.w3.org/2000/svg">
<path d="M18.0795 118V117.105L23.5681 108.912H18.0198V107.818H25.0397V108.713L19.551 116.906H25.0993V118H18.0795ZM28.7385 118L26.4118 110.364H27.6448L29.2954 116.21H29.3749L31.0056 110.364H32.2584L33.8692 116.19H33.9488L35.5993 110.364H36.8323L34.5056 118H33.3522L31.6817 112.134H31.5624L29.892 118H28.7385ZM38.3834 118V110.364H39.5567V118H38.3834ZM38.98 109.091C38.7513 109.091 38.5541 109.013 38.3884 108.857C38.226 108.701 38.1448 108.514 38.1448 108.295C38.1448 108.077 38.226 107.889 38.3884 107.734C38.5541 107.578 38.7513 107.5 38.98 107.5C39.2087 107.5 39.4043 107.578 39.5667 107.734C39.7324 107.889 39.8153 108.077 39.8153 108.295C39.8153 108.514 39.7324 108.701 39.5667 108.857C39.4043 109.013 39.2087 109.091 38.98 109.091ZM47.1148 112.074L46.0608 112.372C45.9945 112.196 45.8968 112.026 45.7675 111.86C45.6415 111.691 45.4692 111.552 45.2504 111.442C45.0317 111.333 44.7516 111.278 44.4102 111.278C43.9429 111.278 43.5535 111.386 43.2419 111.602C42.9337 111.814 42.7796 112.084 42.7796 112.412C42.7796 112.704 42.8856 112.934 43.0977 113.103C43.3099 113.272 43.6413 113.413 44.0921 113.526L45.2256 113.804C45.9084 113.97 46.4171 114.223 46.7519 114.565C47.0866 114.903 47.254 115.339 47.254 115.872C47.254 116.31 47.128 116.701 46.8762 117.045C46.6276 117.39 46.2796 117.662 45.8321 117.861C45.3847 118.06 44.8643 118.159 44.271 118.159C43.4922 118.159 42.8475 117.99 42.3371 117.652C41.8267 117.314 41.5035 116.82 41.3676 116.17L42.4813 115.892C42.5873 116.303 42.7878 116.611 43.0828 116.817C43.3811 117.022 43.7706 117.125 44.2512 117.125C44.798 117.125 45.2322 117.009 45.5537 116.777C45.8785 116.542 46.0409 116.26 46.0409 115.932C46.0409 115.667 45.9481 115.445 45.7625 115.266C45.5769 115.083 45.2919 114.947 44.9074 114.858L43.6347 114.56C42.9353 114.394 42.4216 114.137 42.0935 113.789C41.7687 113.438 41.6063 112.999 41.6063 112.472C41.6063 112.041 41.7272 111.66 41.9692 111.328C42.2145 110.997 42.5476 110.737 42.9685 110.548C43.3927 110.359 43.8733 110.264 44.4102 110.264C45.1659 110.264 45.7592 110.43 46.1901 110.761C46.6243 111.093 46.9325 111.53 47.1148 112.074ZM52.1224 118.159C51.4065 118.159 50.79 117.99 50.273 117.652C49.7559 117.314 49.3582 116.848 49.0798 116.255C48.8014 115.662 48.6622 114.984 48.6622 114.222C48.6622 113.446 48.8047 112.762 49.0898 112.168C49.3781 111.572 49.7791 111.106 50.2929 110.771C50.8099 110.433 51.4131 110.264 52.1025 110.264C52.6395 110.264 53.1234 110.364 53.5542 110.562C53.9851 110.761 54.3381 111.04 54.6132 111.398C54.8883 111.756 55.059 112.173 55.1253 112.651H53.952C53.8625 112.303 53.6636 111.994 53.3554 111.726C53.0505 111.454 52.6395 111.318 52.1224 111.318C51.665 111.318 51.264 111.437 50.9193 111.676C50.5779 111.911 50.3111 112.245 50.1189 112.675C49.93 113.103 49.8355 113.605 49.8355 114.182C49.8355 114.772 49.9283 115.286 50.1139 115.723C50.3028 116.161 50.568 116.5 50.9094 116.742C51.2541 116.984 51.6584 117.105 52.1224 117.105C52.4273 117.105 52.7041 117.052 52.9527 116.946C53.2013 116.84 53.4117 116.688 53.5841 116.489C53.7564 116.29 53.8791 116.051 53.952 115.773H55.1253C55.059 116.223 54.8949 116.629 54.6331 116.991C54.3746 117.349 54.0315 117.634 53.604 117.846C53.1797 118.055 52.6859 118.159 52.1224 118.159ZM58.0138 113.406V118H56.8405V107.818H58.0138V111.557H58.1132C58.2922 111.162 58.5606 110.849 58.9186 110.617C59.2799 110.382 59.7604 110.264 60.3604 110.264C60.8807 110.264 61.3364 110.369 61.7275 110.577C62.1186 110.783 62.4219 111.099 62.6373 111.527C62.8561 111.951 62.9655 112.491 62.9655 113.148V118H61.7922V113.227C61.7922 112.621 61.6347 112.152 61.3199 111.82C61.0083 111.486 60.5758 111.318 60.0223 111.318C59.6378 111.318 59.2931 111.399 58.9882 111.562C58.6866 111.724 58.4479 111.961 58.2723 112.273C58.0999 112.584 58.0138 112.962 58.0138 113.406ZM68.3137 118.159C67.5779 118.159 66.9432 117.997 66.4095 117.672C65.8792 117.344 65.4699 116.886 65.1816 116.3C64.8965 115.71 64.754 115.024 64.754 114.241C64.754 113.459 64.8965 112.77 65.1816 112.173C65.4699 111.573 65.8709 111.106 66.3847 110.771C66.9017 110.433 67.5049 110.264 68.1943 110.264C68.5921 110.264 68.9848 110.33 69.3726 110.463C69.7604 110.596 70.1134 110.811 70.4316 111.109C70.7497 111.404 71.0033 111.795 71.1922 112.283C71.3811 112.77 71.4756 113.37 71.4756 114.082V114.58H65.5892V113.565H70.2824C70.2824 113.134 70.1962 112.75 70.0239 112.412C69.8548 112.074 69.6129 111.807 69.298 111.612C68.9865 111.416 68.6186 111.318 68.1943 111.318C67.727 111.318 67.3227 111.434 66.9813 111.666C66.6432 111.895 66.383 112.193 66.2007 112.561C66.0184 112.929 65.9273 113.323 65.9273 113.744V114.42C65.9273 114.997 66.0267 115.486 66.2256 115.887C66.4278 116.285 66.7078 116.588 67.0658 116.797C67.4237 117.002 67.8397 117.105 68.3137 117.105C68.6219 117.105 68.9003 117.062 69.1489 116.976C69.4008 116.886 69.6179 116.754 69.8002 116.578C69.9825 116.399 70.1233 116.177 70.2227 115.912L71.3563 116.23C71.2369 116.615 71.0364 116.953 70.7547 117.244C70.473 117.533 70.125 117.758 69.7107 117.92C69.2964 118.08 68.8307 118.159 68.3137 118.159ZM74.4337 113.406V118H73.2604V110.364H74.3939V111.557H74.4933C74.6723 111.169 74.9441 110.857 75.3087 110.622C75.6733 110.384 76.1439 110.264 76.7206 110.264C77.2377 110.264 77.6901 110.37 78.0779 110.582C78.4656 110.791 78.7673 111.109 78.9827 111.537C79.1981 111.961 79.3058 112.498 79.3058 113.148V118H78.1325V113.227C78.1325 112.627 77.9768 112.16 77.6652 111.825C77.3537 111.487 76.9261 111.318 76.3825 111.318C76.008 111.318 75.6733 111.399 75.3783 111.562C75.0866 111.724 74.8563 111.961 74.6872 112.273C74.5182 112.584 74.4337 112.962 74.4337 113.406ZM85.8248 113.088V114.182H81.3703V113.088H85.8248ZM28.1861 139V128.818H29.3594V132.577H29.4588C29.545 132.444 29.6643 132.275 29.8168 132.07C29.9725 131.861 30.1946 131.675 30.483 131.513C30.7746 131.347 31.169 131.264 31.6662 131.264C32.3092 131.264 32.8759 131.425 33.3665 131.746C33.857 132.068 34.2398 132.524 34.5149 133.114C34.79 133.704 34.9276 134.4 34.9276 135.202C34.9276 136.01 34.79 136.711 34.5149 137.305C34.2398 137.895 33.8587 138.352 33.3714 138.677C32.8842 138.998 32.3224 139.159 31.6861 139.159C31.1955 139.159 30.8028 139.078 30.5078 138.915C30.2128 138.75 29.9858 138.562 29.8267 138.354C29.6676 138.142 29.545 137.966 29.4588 137.827H29.3196V139H28.1861ZM29.3395 135.182C29.3395 135.759 29.424 136.267 29.593 136.708C29.7621 137.146 30.009 137.489 30.3338 137.737C30.6586 137.982 31.0563 138.105 31.527 138.105C32.0175 138.105 32.4268 137.976 32.755 137.717C33.0864 137.455 33.335 137.104 33.5007 136.663C33.6697 136.219 33.7543 135.725 33.7543 135.182C33.7543 134.645 33.6714 134.161 33.5057 133.73C33.3433 133.296 33.0964 132.953 32.7649 132.701C32.4368 132.446 32.0241 132.318 31.527 132.318C31.0497 132.318 30.6487 132.439 30.3239 132.681C29.9991 132.92 29.7538 133.254 29.5881 133.685C29.4223 134.113 29.3395 134.612 29.3395 135.182ZM37.8956 128.818V139H36.7223V128.818H37.8956ZM44.8571 135.878V131.364H46.0304V139H44.8571V137.707H44.7775C44.5985 138.095 44.3201 138.425 43.9423 138.697C43.5645 138.965 43.0872 139.099 42.5105 139.099C42.0332 139.099 41.609 138.995 41.2377 138.786C40.8665 138.574 40.5749 138.256 40.3627 137.832C40.1506 137.404 40.0446 136.866 40.0446 136.216V131.364H41.2179V136.136C41.2179 136.693 41.3736 137.137 41.6852 137.469C42.0001 137.8 42.4011 137.966 42.8883 137.966C43.18 137.966 43.4766 137.891 43.7782 137.742C44.0832 137.593 44.3384 137.364 44.5439 137.056C44.7527 136.748 44.8571 136.355 44.8571 135.878ZM51.5004 131.364V132.358H47.543V131.364H51.5004ZM48.6964 129.534H49.8697V136.812C49.8697 137.144 49.9177 137.393 50.0138 137.558C50.1133 137.721 50.2392 137.83 50.3917 137.886C50.5475 137.939 50.7115 137.966 50.8839 137.966C51.0131 137.966 51.1192 137.959 51.2021 137.946C51.2849 137.929 51.3512 137.916 51.4009 137.906L51.6396 138.96C51.56 138.99 51.449 139.02 51.3065 139.05C51.1639 139.083 50.9833 139.099 50.7646 139.099C50.4331 139.099 50.1083 139.028 49.7901 138.886C49.4753 138.743 49.2134 138.526 49.0046 138.234C48.7991 137.943 48.6964 137.575 48.6964 137.131V129.534ZM58.0778 135.878V131.364H59.2511V139H58.0778V137.707H57.9982C57.8192 138.095 57.5408 138.425 57.163 138.697C56.7852 138.965 56.3079 139.099 55.7312 139.099C55.2539 139.099 54.8297 138.995 54.4585 138.786C54.0872 138.574 53.7956 138.256 53.5835 137.832C53.3713 137.404 53.2653 136.866 53.2653 136.216V131.364H54.4386V136.136C54.4386 136.693 54.5943 137.137 54.9059 137.469C55.2208 137.8 55.6218 137.966 56.109 137.966C56.4007 137.966 56.6973 137.891 56.9989 137.742C57.3039 137.593 57.5591 137.364 57.7646 137.056C57.9734 136.748 58.0778 136.355 58.0778 135.878ZM62.5733 134.406V139H61.4V131.364H62.5336V132.557H62.633C62.812 132.169 63.0837 131.857 63.4483 131.622C63.8129 131.384 64.2836 131.264 64.8603 131.264C65.3773 131.264 65.8297 131.37 66.2175 131.582C66.6053 131.791 66.9069 132.109 67.1223 132.537C67.3378 132.961 67.4455 133.498 67.4455 134.148V139H66.2722V134.227C66.2722 133.627 66.1164 133.16 65.8049 132.825C65.4933 132.487 65.0658 132.318 64.5222 132.318C64.1477 132.318 63.8129 132.399 63.5179 132.562C63.2263 132.724 62.9959 132.961 62.8269 133.273C62.6578 133.584 62.5733 133.962 62.5733 134.406ZM72.6719 142.023C72.1051 142.023 71.6179 141.95 71.2102 141.804C70.8026 141.661 70.4628 141.473 70.1911 141.237C69.9226 141.005 69.7088 140.757 69.5497 140.491L70.4844 139.835C70.5904 139.974 70.7247 140.134 70.8871 140.312C71.0495 140.495 71.2715 140.652 71.5533 140.785C71.8383 140.921 72.2112 140.989 72.6719 140.989C73.2884 140.989 73.7971 140.839 74.1982 140.541C74.5992 140.243 74.7997 139.776 74.7997 139.139V137.588H74.7003C74.6141 137.727 74.4915 137.9 74.3324 138.105C74.1766 138.307 73.9512 138.488 73.6562 138.647C73.3646 138.803 72.9702 138.881 72.473 138.881C71.8565 138.881 71.303 138.735 70.8125 138.443C70.3253 138.152 69.9392 137.727 69.6541 137.17C69.3724 136.614 69.2315 135.937 69.2315 135.142C69.2315 134.36 69.3691 133.679 69.6442 133.099C69.9193 132.515 70.3021 132.065 70.7926 131.746C71.2831 131.425 71.8499 131.264 72.4929 131.264C72.9901 131.264 73.3845 131.347 73.6761 131.513C73.9711 131.675 74.1965 131.861 74.3523 132.07C74.5114 132.275 74.634 132.444 74.7202 132.577H74.8395V131.364H75.973V139.219C75.973 139.875 75.8239 140.409 75.5256 140.82C75.2306 141.234 74.8329 141.537 74.3324 141.729C73.8352 141.925 73.2817 142.023 72.6719 142.023ZM72.6321 137.827C73.1027 137.827 73.5005 137.719 73.8253 137.504C74.1501 137.288 74.397 136.978 74.5661 136.574C74.7351 136.17 74.8196 135.686 74.8196 135.122C74.8196 134.572 74.7367 134.086 74.571 133.665C74.4053 133.245 74.16 132.915 73.8352 132.676C73.5104 132.437 73.1094 132.318 72.6321 132.318C72.1349 132.318 71.7206 132.444 71.3892 132.696C71.0611 132.948 70.8142 133.286 70.6484 133.71C70.486 134.134 70.4048 134.605 70.4048 135.122C70.4048 135.652 70.4877 136.121 70.6534 136.529C70.8224 136.933 71.071 137.252 71.3991 137.484C71.7306 137.712 72.1416 137.827 72.6321 137.827Z" fill="black"/>
<g filter="url(#filter0_d_1467_2098)">
<rect x="1.5" y="1.5" width="101" height="197" rx="10.5" stroke="#ECECEC" shape-rendering="crispEdges"/>
</g>
<path d="M38.1387 53.1805C36.7363 55.5955 35.9987 58.3344 36 61.122C36.0013 63.9096 36.7414 66.6478 38.1461 69.0616C39.5507 71.4753 41.5703 73.4795 44.0021 74.873C46.4339 76.2664 49.1922 77 52 77C54.8078 77 57.5661 76.2664 59.9979 74.873C62.4297 73.4795 64.4493 71.4753 65.8539 69.0616C67.2586 66.6478 67.9987 63.9096 68 61.122C68.0013 58.3344 67.2637 55.5955 65.8613 53.1805L52.0027 32L38.136 53.1805H38.1387Z" stroke="#50C1BA" stroke-width="2" stroke-linecap="round" stroke-linejoin="round"/>
<defs>
<filter id="filter0_d_1467_2098" x="0" y="0" width="106" height="202" filterUnits="userSpaceOnUse" color-interpolation-filters="sRGB">
<feFlood flood-opacity="0" result="BackgroundImageFix"/>
<feColorMatrix in="SourceAlpha" type="matrix" values="0 0 0 0 0 0 0 0 0 0 0 0 0 0 0 0 0 0 127 0" result="hardAlpha"/>
<feOffset dx="0.5" dy="0.5"/>
<feGaussianBlur stdDeviation="0.5"/>
<feComposite in2="hardAlpha" operator="out"/>
<feColorMatrix type="matrix" values="0 0 0 0 0 0 0 0 0 0 0 0 0 0 0 0 0 0 0.1 0"/>
<feBlend mode="normal" in2="BackgroundImageFix" result="effect1_dropShadow_1467_2098"/>
<feBlend mode="normal" in="SourceGraphic" in2="effect1_dropShadow_1467_2098" result="shape"/>
</filter>
</defs>
</svg>
